<svg viewBox="0 0 142 18" xmlns="http://www.w3.org/2000/svg">
<g clip-path="url(#clip0_1_961)">
<path d="M0.0633101 0.254883L11.0482 0.256648L11.1067 14.0332L5.55255 13.9945L5.55093 5.72828L0.0580673 5.71968L0.0633101 0.254883Z" />
<path d="M15.1994 5.58644C16.7304 5.58644 17.9715 4.35057 17.9715 2.82605C17.9715 1.30154 16.7304 0.0656738 15.1994 0.0656738C13.6684 0.0656738 12.4272 1.30154 12.4272 2.82605C12.4272 4.35057 13.6684 5.58644 15.1994 5.58644Z" />
<path d="M20.8137 0.26416L27.2133 0.270916L21.4167 13.9331L15.0848 13.9195L20.7695 0.275139L20.8137 0.26416Z" />
<path d="M30.4908 0.366559H40.4797V2.91318H36.8138V13.8714H34.1372V2.91318H30.4908V0.366559Z" />
<path d="M43.2254 4.22508V5.88424C43.4452 5.27974 43.8202 4.82315 44.3504 4.51447C44.8805 4.19293 45.4882 4.03215 46.1736 4.03215V6.81029C45.4107 6.7074 44.7253 6.86174 44.1176 7.27331C43.5228 7.67203 43.2254 8.3344 43.2254 9.26045V13.8714H40.7233V4.22508H43.2254Z" />
<path d="M54.7444 5.36334V4.22508H57.2465V13.8714H54.7444V12.7331C53.9944 13.672 52.9406 14.1415 51.5829 14.1415C50.2898 14.1415 49.1778 13.6527 48.2468 12.6752C47.3287 11.6849 46.8697 10.4759 46.8697 9.04823C46.8697 7.63344 47.3287 6.43087 48.2468 5.44052C49.1778 4.45016 50.2898 3.95498 51.5829 3.95498C52.9406 3.95498 53.9944 4.42444 54.7444 5.36334ZM50.1282 11.0161C50.6325 11.5177 51.2726 11.7685 52.0484 11.7685C52.8242 11.7685 53.4643 11.5177 53.9686 11.0161C54.4858 10.5016 54.7444 9.84566 54.7444 9.04823C54.7444 8.2508 54.4858 7.60129 53.9686 7.09968C53.4643 6.58521 52.8242 6.32797 52.0484 6.32797C51.2726 6.32797 50.6325 6.58521 50.1282 7.09968C49.6239 7.60129 49.3718 8.2508 49.3718 9.04823C49.3718 9.84566 49.6239 10.5016 50.1282 11.0161Z" />
<path d="M66.9633 5.36334V0.366559H69.4654V13.8714H66.9633V12.7331C66.2263 13.672 65.1789 14.1415 63.8212 14.1415C62.5152 14.1415 61.3967 13.6527 60.4657 12.6752C59.5477 11.6849 59.0886 10.4759 59.0886 9.04823C59.0886 7.63344 59.5477 6.43087 60.4657 5.44052C61.3967 4.45016 62.5152 3.95498 63.8212 3.95498C65.1789 3.95498 66.2263 4.42444 66.9633 5.36334ZM62.3471 11.0161C62.8773 11.5177 63.5238 11.7685 64.2867 11.7685C65.0625 11.7685 65.7026 11.5177 66.2069 11.0161C66.7112 10.5016 66.9633 9.84566 66.9633 9.04823C66.9633 8.2508 66.7112 7.60129 66.2069 7.09968C65.7026 6.58521 65.0625 6.32797 64.2867 6.32797C63.5109 6.32797 62.8643 6.58521 62.3471 7.09968C61.8428 7.60129 61.5907 8.2508 61.5907 9.04823C61.5907 9.84566 61.8428 10.5016 62.3471 11.0161Z" />
<path d="M73.092 3.06752C72.6782 3.06752 72.3161 2.91961 72.0058 2.62379C71.7084 2.31511 71.5597 1.95498 71.5597 1.54341C71.5597 1.13183 71.7084 0.771705 72.0058 0.463022C72.3161 0.154341 72.6782 0 73.092 0C73.5187 0 73.8807 0.154341 74.1781 0.463022C74.4885 0.771705 74.6437 1.13183 74.6437 1.54341C74.6437 1.95498 74.4885 2.31511 74.1781 2.62379C73.8807 2.91961 73.5187 3.06752 73.092 3.06752ZM74.3527 13.8714H71.8506V4.22508H74.3527V13.8714Z" />
<path d="M82.1318 3.95498C83.2051 3.95498 84.0779 4.30868 84.7503 5.01608C85.4485 5.73633 85.7976 6.71383 85.7976 7.94855V13.8714H83.2956V8.25723C83.2956 7.62701 83.121 7.13826 82.7719 6.791C82.4357 6.44373 81.9702 6.2701 81.3754 6.2701C80.7159 6.2701 80.1922 6.47588 79.8043 6.88746C79.4293 7.28617 79.2418 7.87781 79.2418 8.66238V13.8714H76.7398V4.22508H79.2418V5.30547C79.8366 4.40515 80.8 3.95498 82.1318 3.95498Z" />
<path d="M95.4596 5.42122V4.22508H97.9035V13.4084C97.9035 14.8875 97.4057 16.0257 96.41 16.8232C95.4273 17.6077 94.2377 18 92.8412 18C90.643 18 89.1107 17.2154 88.2444 15.6463L90.3779 14.4309C90.8564 15.3312 91.7033 15.7814 92.9188 15.7814C93.7076 15.7814 94.3282 15.5756 94.7808 15.164C95.2334 14.7524 95.4596 14.1672 95.4596 13.4084V12.3666C94.7226 13.3441 93.6882 13.8328 92.3563 13.8328C90.9857 13.8328 89.8348 13.3569 88.9038 12.4051C87.9858 11.4277 87.5267 10.2572 87.5267 8.89389C87.5267 7.53055 87.9922 6.36656 88.9232 5.40193C89.8542 4.4373 90.9986 3.95498 92.3563 3.95498C93.6882 3.95498 94.7226 4.44373 95.4596 5.42122ZM94.6838 10.8039C95.201 10.3023 95.4596 9.6656 95.4596 8.89389C95.4596 8.12219 95.201 7.49839 94.6838 7.02251C94.1795 6.5209 93.533 6.2701 92.7442 6.2701C91.9684 6.2701 91.3154 6.5209 90.7852 7.02251C90.2809 7.49839 90.0288 8.12219 90.0288 8.89389C90.0288 9.6656 90.2809 10.3023 90.7852 10.8039C91.3025 11.2926 91.9555 11.537 92.7442 11.537C93.533 11.537 94.1795 11.2926 94.6838 10.8039Z" />
<path d="M107.058 13.8714H103.741L99.1832 0.366559H102.093L105.409 10.746L108.707 0.366559H111.635L107.058 13.8714Z" />
<path d="M113.787 3.06752C113.373 3.06752 113.011 2.91961 112.701 2.62379C112.403 2.31511 112.255 1.95498 112.255 1.54341C112.255 1.13183 112.403 0.771705 112.701 0.463022C113.011 0.154341 113.373 0 113.787 0C114.214 0 114.576 0.154341 114.873 0.463022C115.183 0.771705 115.339 1.13183 115.339 1.54341C115.339 1.95498 115.183 2.31511 114.873 2.62379C114.576 2.91961 114.214 3.06752 113.787 3.06752ZM115.048 13.8714H112.546V4.22508H115.048V13.8714Z" />
<path d="M126.861 10.0707H119.549C119.872 11.2797 120.784 11.8842 122.284 11.8842C123.241 11.8842 123.965 11.5627 124.456 10.9196L126.473 12.0772C125.516 13.4534 124.107 14.1415 122.245 14.1415C120.641 14.1415 119.355 13.6592 118.385 12.6945C117.415 11.7299 116.93 10.5145 116.93 9.04823C116.93 7.60772 117.409 6.39871 118.366 5.42122C119.31 4.44373 120.538 3.95498 122.051 3.95498C123.486 3.95498 124.656 4.44373 125.562 5.42122C126.493 6.39871 126.958 7.60772 126.958 9.04823C126.958 9.31833 126.926 9.65916 126.861 10.0707ZM119.51 8.14148H124.456C124.314 7.51125 124.023 7.02894 123.583 6.69453C123.156 6.36013 122.646 6.19293 122.051 6.19293C121.379 6.19293 120.823 6.36656 120.383 6.71383C119.943 7.04823 119.652 7.52412 119.51 8.14148Z" />
<path d="M137.694 10.1672L139.343 4.22508H142L138.916 13.8714H136.53L134.746 8.02572L132.962 13.8714H130.576L127.492 4.22508H130.149L131.798 10.1479L133.563 4.22508H135.929L137.694 10.1672Z" />
</g>
<defs>
<clipPath id="clip0_1_961">
<rect width="142" height="18" fill="white"/>
</clipPath>
</defs>
</svg>
