<svg width="16" height="15" viewBox="0 0 16 15" fill="none" xmlns="http://www.w3.org/2000/svg">
<path fill-rule="evenodd" clip-rule="evenodd" d="M6.32751 0.875H9.67251C9.78842 0.874942 9.90225 0.905762 10.0023 0.964288C10.1024 1.02281 10.185 1.10694 10.2418 1.208L15.4213 10.4473C15.4758 10.5446 15.5044 10.6544 15.5044 10.766C15.5044 10.8776 15.4758 10.9874 15.4213 11.0848L13.7638 14.0413C13.7072 14.1423 13.6247 14.2265 13.5248 14.2852C13.4248 14.3439 13.3111 14.3748 13.1953 14.375H2.80476C2.68877 14.375 2.57489 14.3441 2.47484 14.2854C2.37478 14.2267 2.29217 14.1425 2.23551 14.0413L0.57876 11.0848C0.524236 10.9874 0.495605 10.8776 0.495605 10.766C0.495605 10.6544 0.524236 10.5446 0.57876 10.4473L5.75826 1.208C5.81501 1.10694 5.89767 1.02281 5.99772 0.964288C6.09777 0.905762 6.2116 0.874942 6.32751 0.875ZM8.00001 4.55075L4.51026 10.766H11.4898L8.00001 4.55075Z" fill="white"/>
</svg>
