<svg width="384" height="512" viewBox="0 0 384 512" fill="none" xmlns="http://www.w3.org/2000/svg">
<g clip-path="url(#clip0_108_45)">
<rect width="384" height="512" fill="black"/>
<path d="M188.255 261.715L189.92 258.853L191.584 256L193.238 253.138L193.512 252.685L193.634 253.138L194.142 255.023L193.573 256L191.909 258.853L190.254 261.715H192.244L193.908 258.853L194.771 257.371L195.177 258.853L195.948 261.715H197.735L196.963 258.853L196.192 256L195.989 255.265L197.227 253.138H195.421L195.36 252.927L194.73 250.588L194.649 250.286H192.914L192.873 250.347L191.249 253.138L189.585 256L187.93 258.853L186.266 261.715H188.255Z" fill="white"/>
</g>
<defs>
<clipPath id="clip0_108_45">
<rect width="384" height="512" fill="white"/>
</clipPath>
</defs>
</svg>
