<svg width="16" height="14" viewBox="0 0 16 14" fill="none" xmlns="http://www.w3.org/2000/svg">
<path d="M15.494 4.85325L8.39225 13.1108L8.0735 13.5L0.50525 4.9365L0.52925 4.92675L0.5 4.92225L3.4415 0.00449967L3.443 0.00600028L3.4415 0H12.632L12.6305 0.00524998L15.5 4.8525L15.494 4.85325ZM5.642 5.1975L4.0145 7.953L8.0285 12.537L12.0507 7.9155L10.4592 5.18925L5.642 5.1975ZM3.5585 7.4325L4.8785 5.19825L1.607 5.2035L3.5585 7.4325ZM10.8507 4.548L14.5662 4.542L12.2338 0.636L8.57225 0.6435L10.8507 4.548ZM14.429 5.1825L11.2242 5.18775L12.509 7.389L14.429 5.1825ZM10.0858 4.5495L8.0675 1.0905L6.02 4.5555L10.0858 4.5495ZM3.7865 0.654L1.4615 4.56375L5.2565 4.557L7.5665 0.6465L3.7865 0.654Z" fill="white"/>
</svg>
