<svg width="384" height="512" viewBox="0 0 384 512" fill="none" xmlns="http://www.w3.org/2000/svg">
<g clip-path="url(#clip0_108_62)">
<rect width="384" height="512" fill="#F29F10"/>
<path fill-rule="evenodd" clip-rule="evenodd" d="M191.192 252.582C191.165 252.627 191.109 252.836 191.066 253.047C190.917 253.789 190.9 253.812 190.5 253.812C190.198 253.812 190.109 253.862 190.063 254.059C189.884 254.82 189.116 258.592 189.116 258.707C189.116 258.786 189.256 258.844 189.449 258.844C189.746 258.844 189.783 258.88 189.783 259.172C189.783 259.474 189.814 259.5 190.172 259.5C190.513 259.5 190.561 259.466 190.561 259.227C190.561 258.979 190.605 258.953 191.018 258.953C191.45 258.953 191.471 258.968 191.405 259.227C191.341 259.479 191.365 259.5 191.717 259.5C192.052 259.5 192.109 259.459 192.173 259.172C192.245 258.851 192.261 258.844 192.925 258.844C193.836 258.844 194.448 258.546 194.891 257.888C195.305 257.275 195.317 256.992 194.948 256.562C194.669 256.236 194.668 256.23 194.891 256.112C195.21 255.945 195.466 255.405 195.473 254.886C195.478 254.551 195.41 254.376 195.19 254.16C194.943 253.918 194.78 253.868 194.108 253.83L193.316 253.787L193.384 253.389C193.421 253.171 193.483 252.881 193.52 252.746C193.582 252.525 193.549 252.5 193.199 252.5C192.816 252.5 192.806 252.512 192.653 253.129C192.5 253.748 192.491 253.758 192.071 253.793C191.675 253.825 191.649 253.809 191.707 253.574C191.741 253.434 191.803 253.136 191.844 252.91C191.918 252.51 191.912 252.5 191.581 252.5C191.394 252.5 191.219 252.537 191.192 252.582ZM199.011 253.806C197.772 253.914 197.036 254.231 196.394 254.934C195.248 256.188 195.386 257.891 196.693 258.626C197.147 258.881 197.294 258.9 199.083 258.936L200.99 258.974L201.056 258.636C201.093 258.449 201.152 258.149 201.188 257.969L201.252 257.641L199.603 257.64C198.172 257.64 197.908 257.612 197.603 257.429C197.193 257.183 197.072 256.89 197.17 256.376C197.267 255.868 197.721 255.372 198.212 255.238C198.437 255.177 199.331 255.126 200.198 255.126L201.775 255.125L201.903 254.515C201.974 254.179 202.015 253.888 201.995 253.868C201.898 253.775 199.854 253.732 199.011 253.806ZM183.685 256.303C182.758 257.673 182 258.83 182 258.874C182 258.917 182.62 258.953 183.378 258.953C184.903 258.953 184.821 258.995 184.95 258.147C185.021 257.68 185.009 257.641 184.792 257.641C184.663 257.641 184.557 257.606 184.557 257.563C184.557 257.464 186.137 255.111 186.177 255.151C186.223 255.195 186.781 257.389 186.781 257.524C186.781 257.588 186.661 257.641 186.515 257.641C186.215 257.641 186.164 257.73 186.054 258.447L185.977 258.953H187.315H188.653L188.347 257.832C188.178 257.215 187.876 256.059 187.675 255.262L187.311 253.812H186.34H185.369L183.685 256.303ZM193.736 255.173C193.909 255.3 193.927 255.37 193.829 255.529C193.725 255.696 193.524 255.731 192.523 255.758L191.339 255.789V255.475C191.339 255.303 191.373 255.129 191.413 255.089C191.565 254.939 193.513 255.01 193.736 255.173ZM193.546 257.141C193.619 257.518 193.265 257.641 192.096 257.641C191.095 257.641 191.006 257.623 191.006 257.431C191.006 256.892 191.069 256.866 192.324 256.899C193.389 256.927 193.509 256.95 193.546 257.141Z" fill="black"/>
</g>
<defs>
<clipPath id="clip0_108_62">
<rect width="384" height="512" fill="white"/>
</clipPath>
</defs>
</svg>
