<svg width="384" height="512" viewBox="0 0 384 512" fill="none" xmlns="http://www.w3.org/2000/svg">
<g clip-path="url(#clip0_108_75)">
<rect width="384" height="512" fill="#0AC18E"/>
<path d="M195.962 252.047C195.359 250.68 193.973 250.387 192.277 250.67L191.732 248.557L190.447 248.889L190.983 250.996C190.644 251.082 190.297 251.155 189.953 251.252L189.417 249.157L188.132 249.489L188.677 251.602C188.4 251.682 186.082 252.275 186.082 252.275L186.435 253.652C186.435 253.652 187.38 253.387 187.37 253.408C187.894 253.271 188.141 253.533 188.257 253.78L189.755 259.573C189.773 259.74 189.743 260.027 189.384 260.124C189.405 260.136 188.449 260.365 188.449 260.365L188.589 261.97C188.589 261.97 190.885 261.382 191.187 261.306L191.738 263.444L193.023 263.112L192.472 260.959C192.825 260.876 193.169 260.791 193.504 260.703L194.053 262.844L195.338 262.512L194.787 260.377C196.766 259.896 198.164 258.647 197.878 256.737C197.695 255.586 196.437 254.642 195.393 254.535C196.035 253.966 196.361 253.134 195.962 252.047ZM195.344 257.088C195.6 258.979 192.971 259.21 192.103 259.439L191.348 256.609C192.219 256.381 194.911 255.422 195.344 257.088ZM193.76 253.235C194.031 254.916 191.784 255.111 191.059 255.297L190.37 252.729C191.098 252.55 193.209 251.679 193.76 253.235Z" fill="white"/>
</g>
<defs>
<clipPath id="clip0_108_75">
<rect width="384" height="512" fill="white"/>
</clipPath>
</defs>
</svg>
