<svg width="384" height="512" viewBox="0 0 384 512" fill="none" xmlns="http://www.w3.org/2000/svg">
<g clip-path="url(#clip0_108_78)">
<rect width="384" height="512" fill="#F3BA2F"/>
<mask id="mask0_108_78" style="mask-type:luminance" maskUnits="userSpaceOnUse" x="185" y="249" width="14" height="14">
<path d="M198.859 249.143H185.145V262.857H198.859V249.143Z" fill="white"/>
</mask>
<g mask="url(#mask0_108_78)">
<path d="M189.339 254.905L192.003 252.243L194.667 254.907L196.216 253.357L192.003 249.143L187.789 253.356L189.339 254.905Z" fill="white"/>
<path d="M185.145 256L186.693 254.45L188.244 256L186.693 257.549L185.145 256Z" fill="white"/>
<path d="M189.339 257.094L192.003 259.757L194.667 257.093L196.217 258.641L192.004 262.855L187.789 258.644L189.339 257.094Z" fill="white"/>
<path d="M195.758 256L197.307 254.45L198.857 255.999L197.307 257.55L195.758 256Z" fill="white"/>
<path d="M193.577 256L192.005 254.427L190.843 255.589L190.709 255.722L190.434 255.997L192.005 257.568L193.577 256.001V256Z" fill="white"/>
</g>
</g>
<defs>
<clipPath id="clip0_108_78">
<rect width="384" height="512" fill="white"/>
</clipPath>
</defs>
</svg>
