<svg width="14" height="14" viewBox="0 0 14 14" fill="none" xmlns="http://www.w3.org/2000/svg">
<path d="M4.33813 5.90546L7.0017 3.24298L9.66635 5.90763L11.2153 4.35758L7.0017 0.142883L2.78809 4.3565L4.33813 5.90546Z" fill="white"/>
<path d="M0.143066 7.00055L1.69203 5.4505L3.24208 7.00055L1.69203 8.54951L0.143066 7.00055Z" fill="white"/>
<path d="M4.33813 8.09459L7.0017 10.7582L9.66635 8.09351L11.2164 9.64139L7.00278 13.8561L2.78809 9.64464L4.33813 8.09459Z" fill="white"/>
<path d="M10.7583 7.00055L12.3073 5.4505L13.8573 6.99946L12.3073 8.55059L10.7583 7.00055Z" fill="white"/>
<path d="M8.5736 6.99949L7.00189 5.4267L5.83962 6.58896L5.70531 6.72219L5.43018 6.99732L7.00189 8.56795L8.5736 7.00057V6.99949Z" fill="white"/>
</svg>
