<svg width="13" height="12" viewBox="0 0 13 12" fill="none" xmlns="http://www.w3.org/2000/svg">
<path d="M0 0.77925C0 0.34875 0.354 0 0.7905 0H6.4815C9.8385 0 11.0228 0.396 11.8388 1.20075C12.0911 1.45705 12.2869 1.76342 12.4135 2.10007C12.5401 2.43673 12.5947 2.79619 12.5738 3.15525C12.5738 4.5435 11.826 5.48475 9.8085 5.898C11.757 6.2385 12.7463 7.0305 12.7463 8.6235C12.7647 8.99503 12.7063 9.36639 12.5747 9.71431C12.4431 10.0622 12.241 10.3792 11.9813 10.6455C11.1825 11.433 9.8775 12 6.36525 12H0.7905C0.582366 12.0014 0.382192 11.9201 0.233965 11.774C0.0857382 11.6279 0.00158567 11.4289 0 11.2208V0.77925ZM4.32075 5.25075C4.32075 4.9635 4.557 4.731 4.848 4.731H6.68025C7.72575 4.731 8.508 4.68 8.87025 4.305C8.95463 4.21641 9.01972 4.11128 9.06141 3.99626C9.10311 3.88125 9.1205 3.75883 9.1125 3.63675C9.135 3.39675 9.054 3.15825 8.8875 2.9805C8.52 2.619 7.7385 2.55525 6.68025 2.55525H3.27V9.47925H6.645C7.794 9.47925 8.64525 9.39375 9.04275 8.99775C9.22575 8.81025 9.32025 8.55525 9.30225 8.295C9.31875 8.03025 9.225 7.77 9.04275 7.575C8.64075 7.17975 7.79025 7.14975 6.645 7.14975H4.86C4.78846 7.15152 4.7173 7.13882 4.6508 7.11239C4.5843 7.08597 4.52382 7.04638 4.473 6.996C4.42256 6.9462 4.38294 6.88652 4.35661 6.82071C4.33028 6.75489 4.31782 6.68435 4.32 6.6135L4.32075 5.25075Z" fill="white"/>
</svg>
