<svg width="12" height="16" viewBox="0 0 12 16" fill="none" xmlns="http://www.w3.org/2000/svg">
<path d="M11.7136 6.50468C11.948 4.91093 10.7386 4.04843 9.06982 3.47655L9.61357 1.31093L8.30107 0.9828L7.77608 3.09218C7.4292 3.0078 7.07295 2.92343 6.7167 2.84843L7.2417 0.729675L5.9292 0.40155L5.39482 2.5578C5.1042 2.49218 4.82295 2.42655 4.55107 2.36093V2.35155L2.73232 1.90155L2.38545 3.3078C2.38545 3.3078 3.36045 3.5328 3.3417 3.54218C3.87607 3.67343 3.96982 4.02968 3.95107 4.31093L3.33232 6.77655C3.36982 6.78593 3.4167 6.7953 3.47295 6.82343C3.42607 6.81405 3.3792 6.80468 3.33232 6.78593L2.46982 10.2359C2.4042 10.3953 2.23545 10.6391 1.86982 10.5453C1.8792 10.5641 0.913574 10.3109 0.913574 10.3109L0.257324 11.8203L1.97295 12.2516C2.2917 12.3359 2.60107 12.4109 2.91045 12.4953L2.3667 14.6797L3.6792 15.0078L4.22295 12.8422C4.5792 12.9359 4.93545 13.0297 5.27295 13.1141L4.73857 15.2703L6.05107 15.5984L6.59482 13.4141C8.84482 13.8359 10.5323 13.6672 11.2354 11.6328C11.8073 10.0016 11.2073 9.05468 10.0261 8.43593C10.898 8.23905 11.5448 7.66718 11.7136 6.50468ZM8.7042 10.7234C8.30107 12.3547 5.54482 11.4734 4.6542 11.2484L5.37607 8.35155C6.2667 8.57655 9.13545 9.01718 8.7042 10.7234ZM9.1167 6.47655C8.7417 7.96718 6.4542 7.2078 5.71357 7.0203L6.36983 4.3953C7.11045 4.5828 9.50107 4.92968 9.1167 6.47655Z" fill="white"/>
</svg>
