<svg width="384" height="512" viewBox="0 0 384 512" fill="none" xmlns="http://www.w3.org/2000/svg">
<g clip-path="url(#clip0_108_98)">
<rect width="384" height="512" fill="#F3F3F3"/>
<path d="M199.377 261.051C197.345 263.018 195.582 263.975 192.702 263.975C187.883 263.975 184.559 260.652 184.559 255.973C184.559 251.175 188.327 248.025 192.742 248.025C195.313 248.025 197.762 249.142 199.445 251.069L197.385 253.023C195.999 251.561 194.478 250.803 192.675 250.803C189.781 250.803 187.425 252.996 187.425 255.987C187.425 259.123 189.7 261.21 192.742 261.21C194.653 261.21 195.932 260.453 197.385 259.017L199.377 261.051Z" fill="black"/>
</g>
<defs>
<clipPath id="clip0_108_98">
<rect width="384" height="512" fill="white"/>
</clipPath>
</defs>
</svg>
