<svg width="16" height="14" viewBox="0 0 16 14" fill="none" xmlns="http://www.w3.org/2000/svg">
<path d="M8 13.75H4.598L6.302 10.7822H9.698L11.402 13.75H8ZM6.30275 3.217H6.302L4.598 0.25H11.402L9.698 3.217H6.302H6.30275ZM13.802 10.3713H13.8005H13.802L12.0972 13.3397L10.3993 10.372H10.4L12.0972 7.4035H15.5L13.802 10.3713ZM2.198 3.622L3.902 0.65425L5.6 3.622L3.902 6.589H0.5L2.198 3.622ZM5.59925 10.372H5.6L3.902 13.3397L2.198 10.372L0.5 7.40275H3.902L5.6 10.3705L5.59925 10.372ZM13.802 3.622L15.5 6.58975H12.098L10.3993 3.622L12.0972 0.65425L13.802 3.622Z" fill="white"/>
</svg>
