<svg width="16" height="10" viewBox="0 0 16 10" fill="none" xmlns="http://www.w3.org/2000/svg">
<path d="M15.8317 1.84158C15.8156 1.57268 15.7367 1.31129 15.6013 1.07839C15.4813 0.838392 15.2677 0.651193 15.0181 0.555194C14.7636 0.42834 14.4816 0.366499 14.1973 0.375195H3.54606L2.78286 2.66238H12.4333L10.9093 7.33754H1.26125L0.498047 9.62473H11.1997C11.5186 9.6155 11.8338 9.55471 12.1333 9.44473C12.4333 9.27433 12.7765 9.10153 13.0669 8.86153C13.3504 8.63802 13.6066 8.38185 13.8301 8.09834C14.0149 7.82055 14.1724 7.52559 14.3005 7.21755L15.7141 2.77278C15.8427 2.48033 15.8836 2.15682 15.8317 1.84158Z" fill="white"/>
<path d="M6.58658 3.93921H0.908215L0.14502 6.05361H5.88099L6.58658 3.93921Z" fill="white"/>
</svg>
