<svg width="384" height="512" viewBox="0 0 384 512" fill="none" xmlns="http://www.w3.org/2000/svg">
<g clip-path="url(#clip0_108_134)">
<rect width="384" height="512" fill="#13B5EC"/>
<path fill-rule="evenodd" clip-rule="evenodd" d="M192.9 253.712L195.6 252.137V255.287L192.9 253.712ZM195.6 260.462L192 262.562L188.4 260.462V256.787L192 258.887L195.6 256.787V260.462ZM188.4 252.137L191.1 253.712L188.4 255.287V252.137ZM192.45 254.462L195.15 256.037L192.45 257.612V254.462ZM191.55 257.612L188.85 256.037L191.55 254.462V257.612ZM195.15 251.387L192 253.187L188.85 251.387L192 249.512L195.15 251.387ZM187.5 251.087V260.912L192 263.462L196.5 260.912V251.087L192 248.537L187.5 251.087Z" fill="white"/>
</g>
<defs>
<clipPath id="clip0_108_134">
<rect width="384" height="512" fill="white"/>
</clipPath>
</defs>
</svg>
