<svg width="384" height="512" viewBox="0 0 384 512" fill="none" xmlns="http://www.w3.org/2000/svg">
<g clip-path="url(#clip0_108_137)">
<rect width="384" height="512" fill="#127E9A"/>
<path d="M184.419 250.013C184.176 250.033 183.99 250.073 184 250.102C184.097 250.342 184.695 251.75 184.703 251.758C184.711 251.767 184.85 251.777 185.013 251.784C185.737 251.812 186.31 251.959 186.93 252.278C187.375 252.506 187.704 252.751 188.047 253.106C188.552 253.63 188.882 254.211 189.075 254.923C189.097 255.005 189.114 255.079 189.114 255.09C189.114 255.106 189.004 255.109 188.517 255.109C188.187 255.109 187.904 255.114 187.887 255.122C187.861 255.131 187.793 255.284 187.51 255.959C187.319 256.414 187.161 256.796 187.158 256.809C187.149 256.846 187.263 256.878 187.549 256.922C187.608 256.932 187.959 256.942 188.374 256.947L189.097 256.956L189.053 257.112C188.566 258.83 187.054 260.032 185.201 260.176C185.096 260.183 184.959 260.19 184.895 260.19H184.779L184.422 261.044C184.116 261.773 184.068 261.897 184.089 261.904C184.181 261.94 184.388 261.952 184.867 261.952C185.48 261.952 185.778 261.924 186.283 261.816C188.345 261.376 190.059 260.012 190.835 258.189C190.985 257.838 191.16 257.26 191.191 257.018L191.201 256.949H192.749L192.754 256.98C192.866 257.549 192.987 257.933 193.196 258.385C193.827 259.75 195.008 260.864 196.471 261.475C197.36 261.845 198.312 262.023 199.269 261.998C199.669 261.985 199.987 261.938 199.971 261.894C199.957 261.858 199.279 260.24 199.275 260.235C199.271 260.231 199.131 260.226 198.961 260.218C198.483 260.199 198.124 260.141 197.718 260.02C197.093 259.833 196.475 259.495 196.002 259.082C195.406 258.56 194.974 257.91 194.745 257.189C194.72 257.107 194.694 257.021 194.69 256.996L194.68 256.95L195.263 256.946C195.583 256.943 195.855 256.936 195.866 256.93C195.883 256.921 196.58 255.277 196.58 255.245C196.58 255.223 196.405 255.17 196.245 255.143C196.128 255.123 195.98 255.117 195.388 255.113L194.671 255.106L194.698 255.005C195.095 253.542 196.315 252.38 197.887 251.968C198.234 251.877 198.572 251.831 199.01 251.812C199.271 251.801 199.304 251.797 199.32 251.774C199.331 251.758 199.492 251.383 199.677 250.94C199.904 250.398 200.009 250.131 199.999 250.124C199.97 250.107 199.779 250.071 199.629 250.056C199.411 250.032 198.776 250.036 198.495 250.061C196.892 250.21 195.446 250.882 194.363 251.981C193.701 252.652 193.237 253.405 192.951 254.274C192.878 254.493 192.789 254.838 192.762 255.005L192.746 255.109H191.225L191.219 255.076C191.215 255.059 191.2 254.979 191.184 254.896C190.959 253.736 190.325 252.608 189.429 251.777C188.41 250.83 187.138 250.237 185.739 250.057C185.318 250.003 184.776 249.985 184.419 250.013Z" fill="white"/>
</g>
<defs>
<clipPath id="clip0_108_137">
<rect width="384" height="512" fill="white"/>
</clipPath>
</defs>
</svg>
