<svg width="384" height="512" viewBox="0 0 384 512" fill="none" xmlns="http://www.w3.org/2000/svg">
<g clip-path="url(#clip0_108_140)">
<rect width="384" height="512" fill="#18A0B1"/>
<path d="M198.621 250.759C199.383 250.759 200.001 250.141 200.001 249.379C200.001 248.618 199.383 248 198.621 248C197.86 248 197.242 248.618 197.242 249.379C197.242 250.141 197.86 250.759 198.621 250.759Z" fill="white"/>
<path d="M188.017 258.367C187.498 257.485 187.286 256.455 187.415 255.44C187.544 254.425 188.007 253.481 188.731 252.758C189.454 252.034 190.398 251.571 191.413 251.442C192.429 251.313 193.458 251.525 194.34 252.044L195.443 250.941L195.388 250.896C194.201 250.114 192.78 249.767 191.366 249.915C189.952 250.063 188.634 250.696 187.634 251.707C186.635 252.718 186.017 254.045 185.886 255.46C185.754 256.875 186.118 258.293 186.914 259.47L188.017 258.367Z" fill="white"/>
<path d="M195.985 253.693C196.504 254.575 196.716 255.605 196.587 256.62C196.458 257.635 195.995 258.579 195.271 259.303C194.548 260.026 193.604 260.489 192.589 260.618C191.573 260.747 190.544 260.536 189.662 260.016L188.559 261.12C189.74 261.922 191.165 262.287 192.587 262.152C194.009 262.018 195.34 261.391 196.35 260.381C197.36 259.371 197.986 258.04 198.121 256.618C198.256 255.196 197.891 253.772 197.088 252.59L195.985 253.693Z" fill="white"/>
<path d="M185.379 264C186.141 264 186.759 263.382 186.759 262.621C186.759 261.859 186.141 261.241 185.379 261.241C184.618 261.241 184 261.859 184 262.621C184 263.382 184.618 264 185.379 264Z" fill="white"/>
</g>
<defs>
<clipPath id="clip0_108_140">
<rect width="384" height="512" fill="white"/>
</clipPath>
</defs>
</svg>
