<svg width="15" height="16" viewBox="0 0 15 16" fill="none" xmlns="http://www.w3.org/2000/svg">
<path d="M13.186 10.5125C13.5235 10.6423 13.747 10.9633 13.75 11.3225C13.7502 11.473 13.7109 11.621 13.6362 11.7516C13.5615 11.8823 13.4538 11.9911 13.324 12.0673C13.1937 12.1438 13.0458 12.1854 12.8947 12.1881C12.7436 12.1907 12.5944 12.1542 12.4615 12.0823L7.93902 14.5498C7.9502 14.669 7.9366 14.7893 7.89909 14.9031C7.86157 15.0169 7.80095 15.1216 7.72101 15.2109C7.64108 15.3001 7.54357 15.3718 7.4346 15.4216C7.32563 15.4714 7.20755 15.498 7.08777 15.5C6.85714 15.5056 6.63371 15.4195 6.46662 15.2604C6.29953 15.1013 6.20247 14.8824 6.19677 14.6518L3.99177 13.3895H3.94152V13.3633L1.61802 12.035C1.47293 12.1351 1.30076 12.1884 1.12452 12.188C0.914697 12.1891 0.711546 12.1143 0.552499 11.9775C0.393451 11.8406 0.289223 11.6509 0.259018 11.4433C0.230029 11.2358 0.277295 11.0248 0.392047 10.8495C0.506799 10.6742 0.681246 10.5465 0.883018 10.49V5.52801C0.713255 5.48037 0.562031 5.38215 0.449484 5.24642C0.336936 5.11069 0.268406 4.9439 0.253018 4.76826C0.223018 4.40976 0.418768 4.07001 0.746518 3.91476C0.906396 3.83883 1.0855 3.81303 1.2603 3.84074C1.43511 3.86844 1.59745 3.94837 1.72602 4.07001L6.20352 1.50501C6.18398 1.38061 6.19167 1.25345 6.22608 1.13232C6.26048 1.01118 6.32077 0.898963 6.40277 0.803406C6.48478 0.707848 6.58656 0.631232 6.70107 0.578849C6.81558 0.526466 6.94009 0.499565 7.06602 0.500005C7.1956 0.499794 7.32359 0.528532 7.44064 0.584119C7.5577 0.639707 7.66085 0.720739 7.74258 0.821298C7.82431 0.921857 7.88254 1.0394 7.91302 1.16535C7.9435 1.29129 7.94547 1.42245 7.91877 1.54926L12.2898 4.05276C12.4495 3.90876 12.6573 3.82926 12.874 3.83001C12.9922 3.78584 13.1187 3.76808 13.2445 3.77797C13.3703 3.78786 13.4924 3.82516 13.6022 3.88726C13.7121 3.94936 13.807 4.03475 13.8804 4.13744C13.9537 4.24013 14.0037 4.35762 14.0268 4.48168C14.0499 4.60574 14.0456 4.73335 14.0142 4.85556C13.9827 4.97777 13.9249 5.09162 13.8448 5.18911C13.7647 5.2866 13.6642 5.36538 13.5504 5.4199C13.4366 5.47443 13.3122 5.50339 13.186 5.50476V10.5133V10.5125ZM10.0975 8.55876V12.821L12.1015 11.7283C12.0391 11.6087 12.0052 11.4763 12.0027 11.3415C12.0002 11.2067 12.0291 11.0731 12.0871 10.9513C12.145 10.8296 12.2305 10.723 12.3368 10.6399C12.443 10.5568 12.5671 10.4996 12.6993 10.4728V5.54526C12.5023 5.50631 12.3248 5.40041 12.197 5.24553C12.0692 5.09064 11.9989 4.89632 11.998 4.69551C11.998 4.61601 12.0093 4.53651 12.031 4.45926L10.1313 3.37025V7.33325H10.1283L10.1208 7.59275L10.0135 7.64301L9.32877 8.0525L9.98352 8.4425L10.0878 8.49201L10.0908 8.53851L10.0945 8.55876H10.0975ZM7.06752 2.23176C6.81852 2.23176 6.58152 2.12676 6.41577 1.94151L4.42827 3.08076V7.28976L5.24427 7.77575L6.27477 7.16975C6.25351 7.05828 6.25719 6.94348 6.28556 6.8336C6.31392 6.72372 6.36626 6.62148 6.43882 6.53422C6.51138 6.44697 6.60236 6.37686 6.70522 6.32893C6.80809 6.281 6.92029 6.25644 7.03377 6.25701C7.14451 6.25675 7.25399 6.28043 7.35473 6.32641C7.45547 6.37239 7.54509 6.4396 7.61745 6.52342C7.68981 6.60725 7.7432 6.70572 7.77398 6.8121C7.80476 6.91847 7.81219 7.03024 7.79577 7.13975L8.86002 7.77275L9.64902 7.30026V3.09351L7.68852 1.97076C7.60757 2.05332 7.51093 2.11888 7.40429 2.16357C7.29765 2.20826 7.18315 2.23119 7.06752 2.23101V2.23176ZM7.57752 8.54826L8.38977 8.05926L7.57377 7.5725C7.43201 7.71023 7.24306 7.7887 7.04544 7.7919C6.84782 7.79511 6.65642 7.72281 6.51027 7.58976L5.70777 8.0555L6.50652 8.53175C6.65298 8.3964 6.84592 8.32261 7.04532 8.32568C7.24472 8.32876 7.4353 8.40846 7.57752 8.54826ZM1.93152 11.6585L3.94152 12.8105V8.69151L3.94527 8.55876L3.97902 8.52501L4.14702 8.42525L4.77102 8.05926L4.20702 7.72626L3.94527 7.59275V7.43301H3.94227V3.35676L1.97127 4.48626C2.08752 4.93625 1.82127 5.39676 1.37127 5.52501V10.493C1.60902 10.562 1.80627 10.7293 1.91352 10.9513C2.02077 11.174 2.02752 11.4313 1.93152 11.6585ZM7.06752 13.7533C7.34127 13.7533 7.59852 13.8808 7.76202 14.0998L9.61452 13.0873V8.78526L8.86002 8.33526L7.79502 8.975C7.80252 9.0125 7.80552 9.05001 7.80552 9.08751C7.80552 9.51126 7.46052 9.854 7.03302 9.854C6.92073 9.85407 6.80978 9.82953 6.70799 9.78211C6.6062 9.7347 6.51603 9.66556 6.44383 9.57956C6.37162 9.49356 6.31914 9.39278 6.29006 9.28432C6.26098 9.17586 6.25602 9.06234 6.27552 8.95175L5.23077 8.33226L4.42527 8.80175V13.0873L6.31902 14.1725C6.47652 13.9115 6.76077 13.7525 7.06752 13.7533Z" fill="white"/>
</svg>
