<svg width="384" height="512" viewBox="0 0 384 512" fill="none" xmlns="http://www.w3.org/2000/svg">
<g clip-path="url(#clip0_108_149)">
<rect width="384" height="512" fill="#102044"/>
<path d="M198.041 258.513C198.379 258.642 198.602 258.963 198.605 259.323C198.606 259.473 198.566 259.621 198.492 259.752C198.417 259.882 198.309 259.991 198.179 260.067C198.049 260.144 197.901 260.185 197.75 260.188C197.599 260.191 197.45 260.154 197.317 260.082L192.794 262.55C192.806 262.669 192.792 262.789 192.755 262.903C192.717 263.017 192.656 263.122 192.576 263.211C192.497 263.3 192.399 263.372 192.29 263.422C192.181 263.471 192.063 263.498 191.943 263.5C191.713 263.506 191.489 263.419 191.322 263.26C191.155 263.101 191.058 262.882 191.052 262.652L188.847 261.39H188.797V261.363L186.473 260.035C186.328 260.135 186.156 260.188 185.98 260.188C185.77 260.189 185.567 260.114 185.408 259.978C185.249 259.841 185.145 259.651 185.114 259.443C185.085 259.236 185.133 259.025 185.248 258.85C185.362 258.674 185.537 258.546 185.738 258.49V253.528C185.569 253.48 185.417 253.382 185.305 253.246C185.192 253.111 185.124 252.944 185.108 252.768C185.078 252.41 185.274 252.07 185.602 251.915C185.762 251.839 185.941 251.813 186.116 251.841C186.291 251.868 186.453 251.948 186.581 252.07L191.059 249.505C191.039 249.381 191.047 249.253 191.082 249.132C191.116 249.011 191.176 248.899 191.258 248.803C191.34 248.708 191.442 248.631 191.557 248.579C191.671 248.526 191.796 248.5 191.921 248.5C192.051 248.5 192.179 248.529 192.296 248.584C192.413 248.64 192.516 248.721 192.598 248.821C192.68 248.922 192.738 249.039 192.768 249.165C192.799 249.291 192.801 249.422 192.774 249.549L197.145 252.053C197.305 251.909 197.513 251.829 197.729 251.83C197.848 251.786 197.974 251.768 198.1 251.778C198.226 251.788 198.348 251.825 198.458 251.887C198.568 251.949 198.662 252.035 198.736 252.137C198.809 252.24 198.859 252.358 198.882 252.482C198.905 252.606 198.901 252.733 198.87 252.856C198.838 252.978 198.78 253.092 198.7 253.189C198.62 253.287 198.52 253.365 198.406 253.42C198.292 253.474 198.168 253.503 198.041 253.505V258.513ZM194.953 256.559V260.821L196.957 259.728C196.895 259.609 196.861 259.476 196.858 259.342C196.856 259.207 196.885 259.073 196.943 258.951C197 258.83 197.086 258.723 197.192 258.64C197.298 258.557 197.423 258.5 197.555 258.473V253.545C197.358 253.506 197.18 253.4 197.052 253.246C196.925 253.091 196.854 252.896 196.853 252.696C196.853 252.616 196.865 252.537 196.886 252.459L194.987 251.37V255.333H194.984L194.976 255.593L194.869 255.643L194.184 256.053L194.839 256.443L194.943 256.492L194.946 256.539L194.95 256.559H194.953ZM191.923 250.232C191.674 250.232 191.437 250.127 191.271 249.942L189.284 251.081V255.29L190.1 255.776L191.13 255.17C191.109 255.058 191.113 254.944 191.141 254.834C191.169 254.724 191.222 254.622 191.294 254.534C191.367 254.447 191.458 254.377 191.561 254.329C191.664 254.281 191.776 254.256 191.889 254.257C192 254.257 192.109 254.28 192.21 254.326C192.311 254.372 192.401 254.44 192.473 254.523C192.545 254.607 192.599 254.706 192.629 254.812C192.66 254.919 192.668 255.03 192.651 255.14L193.715 255.773L194.504 255.3V251.094L192.544 249.971C192.463 250.053 192.366 250.119 192.26 250.164C192.153 250.208 192.039 250.232 191.923 250.232ZM192.433 256.548L193.245 256.059L192.429 255.573C192.287 255.71 192.098 255.789 191.901 255.792C191.703 255.795 191.512 255.723 191.366 255.59L190.563 256.056L191.362 256.532C191.508 256.396 191.701 256.323 191.901 256.326C192.1 256.329 192.291 256.408 192.433 256.548ZM186.787 259.659L188.797 260.811V256.692L188.801 256.559L188.834 256.525L189.002 256.425L189.626 256.059L189.062 255.726L188.801 255.593V255.433H188.798V251.357L186.827 252.486C186.943 252.936 186.677 253.397 186.227 253.525V258.493C186.464 258.562 186.662 258.729 186.769 258.951C186.876 259.174 186.883 259.431 186.787 259.659ZM191.923 261.753C192.197 261.753 192.454 261.881 192.617 262.1L194.47 261.087V256.785L193.715 256.335L192.65 256.975C192.658 257.013 192.661 257.05 192.661 257.088C192.661 257.511 192.316 257.854 191.888 257.854C191.776 257.854 191.665 257.83 191.563 257.782C191.462 257.735 191.371 257.666 191.299 257.58C191.227 257.494 191.175 257.393 191.146 257.284C191.116 257.176 191.111 257.062 191.131 256.952L190.086 256.332L189.281 256.802V261.087L191.174 262.173C191.332 261.912 191.616 261.753 191.923 261.753Z" fill="white"/>
</g>
<defs>
<clipPath id="clip0_108_149">
<rect width="384" height="512" fill="white"/>
</clipPath>
</defs>
</svg>
