<svg width="384" height="512" viewBox="0 0 384 512" fill="none" xmlns="http://www.w3.org/2000/svg">
<g clip-path="url(#clip0_108_155)">
<rect width="384" height="512" fill="white"/>
<path d="M192 247L184 251.5V260.5L192 265L200 260.5V251.5L192 247ZM192.164 261.577L186.023 258.165L186.048 256.506L192.16 259.914L195.108 258.259L193.131 257.147L192.391 257.562L191.004 256.786L191.748 256.367L190.777 255.82L190.19 256.152L188.8 255.376L189.39 255.044L186.258 253.281L192.16 249.962L197.728 253.055L196.235 253.901L192.16 251.625L189.212 253.281L190.862 254.209L191.705 253.731L193.095 254.507L192.245 254.985L193.216 255.532L193.906 255.141L195.296 255.917L194.599 256.312L198.055 258.255L192.164 261.577Z" fill="black"/>
</g>
<defs>
<clipPath id="clip0_108_155">
<rect width="384" height="512" fill="white"/>
</clipPath>
</defs>
</svg>
