<svg width="384" height="512" viewBox="0 0 384 512" fill="none" xmlns="http://www.w3.org/2000/svg">
<g clip-path="url(#clip0_108_174)">
<rect width="384" height="512" fill="#82BD39"/>
<path d="M190.802 258.52L192 260.098V263.5L187.5 261.503V252.714C187.5 252.585 187.558 252.461 187.659 252.375L188.171 251.936C188.221 251.893 188.278 251.861 188.34 251.841C188.403 251.822 188.468 251.815 188.533 251.822C188.598 251.829 188.661 251.849 188.718 251.881C188.774 251.913 188.824 251.956 188.863 252.008L192.962 257.382L195.226 258.766V251.356L193.226 250.358L193.128 255.005L192.069 253.6L192.021 248.5L196.5 250.584V259.332L195.482 260.171L192.277 258.381L188.719 253.713L188.67 260.804L190.789 261.889L190.802 258.52Z" fill="white"/>
</g>
<defs>
<clipPath id="clip0_108_174">
<rect width="384" height="512" fill="white"/>
</clipPath>
</defs>
</svg>
