<svg width="384" height="512" viewBox="0 0 384 512" fill="none" xmlns="http://www.w3.org/2000/svg">
<g clip-path="url(#clip0_108_177)">
<rect width="384" height="512" fill="#1A82FF"/>
<path fill-rule="evenodd" clip-rule="evenodd" d="M192.001 262.847C193.884 262.847 195.345 262.211 196.384 260.938C197.423 259.665 197.942 258.019 197.942 256C197.942 254.639 197.706 253.448 197.234 252.426L194.408 255.372C194.418 255.573 194.422 255.782 194.422 256C194.423 256.292 194.411 256.574 194.387 256.846C194.372 257.018 194.352 257.186 194.327 257.35C194.316 257.423 194.304 257.496 194.291 257.57C194.224 257.928 194.127 258.298 193.998 258.681C193.842 259.144 193.591 259.51 193.244 259.781C192.897 260.051 192.475 260.186 191.98 260.186C191.085 260.185 190.44 259.75 190.045 258.879L193.361 255.413L194.316 254.428L196.873 251.752C196.725 251.512 196.562 251.282 196.383 251.063C195.345 249.79 193.884 249.154 192.001 249.153C190.117 249.153 188.655 249.79 187.617 251.063C186.578 252.336 186.059 253.982 186.059 256C186.059 257.127 186.22 258.138 186.544 259.033L189.579 255.87C189.584 255.442 189.616 255.036 189.674 254.65C189.737 254.226 189.847 253.782 190.003 253.319C190.159 252.856 190.41 252.49 190.757 252.22C190.853 252.146 190.953 252.082 191.06 252.028C191.177 251.969 191.302 251.922 191.433 251.887C191.525 251.863 191.62 251.845 191.718 251.833C191.816 251.821 191.918 251.815 192.022 251.815C192.733 251.815 193.287 252.091 193.683 252.643L190.369 256.097L189.609 256.887L186.855 259.759C187.067 260.182 187.321 260.575 187.617 260.938C188.657 262.211 190.118 262.847 192.001 262.847Z" fill="white"/>
</g>
<defs>
<clipPath id="clip0_108_177">
<rect width="384" height="512" fill="white"/>
</clipPath>
</defs>
</svg>
