<svg width="384" height="512" viewBox="0 0 384 512" fill="none" xmlns="http://www.w3.org/2000/svg">
<g clip-path="url(#clip0_108_180)">
<rect width="384" height="512" fill="white"/>
<path d="M190.511 244.062C185.334 244.765 181.167 248.667 180.215 253.706C179.618 256.885 180.272 260.075 182.091 262.801C182.726 263.745 184.314 265.345 185.228 265.952C186.624 266.867 188.048 267.464 189.693 267.821C190.829 268.062 193.177 268.062 194.312 267.821C196.66 267.32 198.556 266.337 200.231 264.757C202.001 263.071 203.175 261.028 203.695 258.726C204.6 254.737 203.493 250.681 200.693 247.704C199.047 245.969 196.66 244.649 194.293 244.197C193.302 244.004 191.406 243.936 190.511 244.062ZM193.206 245.015C196.064 245.343 198.768 246.808 200.529 248.985C201.664 250.401 202.319 251.712 202.752 253.494C202.964 254.342 203.002 254.727 203.012 255.903C203.012 257.579 202.838 258.61 202.29 259.997C199.393 267.445 189.818 269.459 184.208 263.803C181.042 260.624 180.109 255.999 181.793 251.827C182.649 249.679 184.439 247.607 186.421 246.48C188.587 245.237 190.838 244.755 193.206 245.015Z" fill="black"/>
<path d="M184.234 253.167C182.983 253.619 182.184 255.171 182.473 256.616C182.617 257.338 182.781 257.676 183.233 258.148C183.83 258.793 184.215 258.938 185.264 258.938C186.101 258.938 186.226 258.909 186.688 258.658C187.545 258.177 188.016 257.416 188.122 256.336C188.257 254.853 187.4 253.465 186.14 253.109C185.649 252.974 184.706 253.003 184.234 253.167ZM186.342 254.371C186.909 254.785 187.198 255.739 186.996 256.577C186.611 258.196 184.484 258.514 183.753 257.059C183.31 256.192 183.541 254.833 184.215 254.361C184.773 253.957 185.764 253.966 186.342 254.371Z" fill="black"/>
<path d="M197.257 253.206C195.448 253.928 194.938 256.597 196.304 258.216C197.045 259.102 198.797 259.266 199.576 258.514L199.788 258.312L199.817 258.582C199.845 258.823 199.874 258.842 200.327 258.842H200.808L200.837 257.32L200.865 255.807H199.509H198.161V256.289V256.77H198.979C199.865 256.77 199.894 256.79 199.643 257.31C199.47 257.666 198.854 258.023 198.392 258.023C197.286 258.023 196.622 257.242 196.622 255.98C196.631 254.583 197.526 253.784 198.748 254.073C199.22 254.188 199.701 254.603 199.701 254.901C199.701 254.998 199.845 255.036 200.278 255.036H200.846L200.712 254.603C200.413 253.591 199.672 253.08 198.45 253.042C197.911 253.022 197.613 253.061 197.257 253.206Z" fill="black"/>
<path d="M188.922 256V258.89H189.403H189.884L189.903 256.944L189.932 254.988L190.644 256.944L191.356 258.9L191.838 258.871L192.319 258.842L193.021 256.915L193.724 254.988L193.753 256.915L193.782 258.842L194.292 258.871L194.792 258.9L194.773 256.029L194.744 253.158H194.08H193.406L192.636 255.296C192.213 256.481 191.838 257.416 191.809 257.368C191.77 257.329 191.424 256.414 191.039 255.325C190.654 254.237 190.288 253.292 190.24 253.225C190.182 253.158 189.913 253.109 189.538 253.109H188.922V256Z" fill="black"/>
</g>
<defs>
<clipPath id="clip0_108_180">
<rect width="384" height="512" fill="white"/>
</clipPath>
</defs>
</svg>
