<svg width="384" height="512" viewBox="0 0 384 512" fill="none" xmlns="http://www.w3.org/2000/svg">
<g clip-path="url(#clip0_108_186)">
<rect width="384" height="512" fill="black"/>
<path fill-rule="evenodd" clip-rule="evenodd" d="M191.981 263.992C196.286 263.992 199.547 261.107 200.223 257.333H196.55C196.001 259.337 194.297 260.804 192.024 260.804C189.767 260.804 188.042 259.327 187.469 257.333H183.773C184.425 261.121 187.658 263.992 191.981 263.992Z" fill="white"/>
<path d="M192.005 251.799C193.051 251.799 193.9 250.951 193.9 249.904C193.9 248.857 193.051 248.009 192.005 248.009C190.958 248.009 190.109 248.857 190.109 249.904C190.109 250.951 190.958 251.799 192.005 251.799Z" fill="white"/>
<path fill-rule="evenodd" clip-rule="evenodd" d="M187.266 257.333V257.296C187.266 254.601 189.196 252.401 191.979 252.401C194.763 252.401 196.734 254.639 196.739 257.333H187.266Z" fill="white"/>
</g>
<defs>
<clipPath id="clip0_108_186">
<rect width="384" height="512" fill="white"/>
</clipPath>
</defs>
</svg>
