<svg width="384" height="512" viewBox="0 0 384 512" fill="none" xmlns="http://www.w3.org/2000/svg">
<g clip-path="url(#clip0_108_194)">
<rect width="384" height="512" fill="#0C192B"/>
<path d="M188.239 250.081C188.562 249.714 188.859 249.403 189.142 249.139C184.367 248.986 185.758 252.438 184.193 255.943C182.402 259.982 184.405 261.521 187.388 262.002C186.972 261.505 186.632 260.949 186.38 260.352C184.454 257.918 185.234 253.48 188.239 250.081Z" fill="#EFE812"/>
<path d="M199.725 254.385C199.161 255.86 198.345 257.226 197.314 258.422C196.487 259.427 195.497 260.285 194.385 260.96C193.093 261.779 191.592 262.205 190.062 262.188C189.17 262.196 188.278 262.134 187.395 262.002C187.885 262.587 188.493 263.064 189.179 263.399C193.496 265.487 193.767 261.611 198.335 259.643C200.899 258.537 200.908 256.379 199.723 254.385" fill="#EDE70A"/>
<path d="M194.388 250.355C195.013 250.464 195.616 250.678 196.17 250.986C197.622 251.803 198.846 252.972 199.729 254.385C200.506 252.193 200.144 250.473 198.444 250.162C196.573 249.82 195.112 249.709 193.707 248.729C191.977 247.527 190.46 247.918 189.145 249.141L189.43 249.153C191.254 249.261 192.998 249.624 194.379 250.35" fill="#EDE70A"/>
<path d="M188.236 250.082C185.231 253.48 184.451 257.918 186.386 260.352C185.938 259.295 185.743 258.149 185.815 257.004C185.888 255.858 186.226 254.745 186.803 253.753C188.431 251.038 191.7 249.86 194.385 250.355C192.994 249.62 191.25 249.266 189.435 249.158L189.15 249.144C188.858 249.412 188.561 249.714 188.236 250.082Z" fill="#DEC21C"/>
<path d="M196.168 250.981C195.614 250.674 195.012 250.462 194.387 250.354C196.216 251.316 197.429 252.947 197.429 255.525C197.419 256.614 197.135 257.682 196.603 258.632C196.071 259.581 195.309 260.382 194.387 260.96C195.5 260.285 196.49 259.427 197.316 258.422C198.348 257.226 199.163 255.86 199.727 254.385C198.845 252.97 197.621 251.799 196.168 250.981Z" fill="#E5CB22"/>
<path d="M194.385 250.354C191.7 249.86 188.432 251.038 186.803 253.741C186.223 254.734 185.884 255.849 185.812 256.997C185.739 258.145 185.936 259.294 186.386 260.352C186.637 260.949 186.977 261.506 187.395 262.002C188.278 262.134 189.17 262.196 190.062 262.188C191.592 262.205 193.093 261.778 194.385 260.96C195.307 260.382 196.069 259.581 196.601 258.632C197.133 257.682 197.417 256.614 197.427 255.525C197.427 252.947 196.214 251.316 194.385 250.354ZM194.083 259.734C193.09 260.372 191.885 260.591 190.732 260.342C189.578 260.094 188.57 259.399 187.927 258.41C186.593 256.352 187.253 253.696 189.254 252.282C191.493 250.691 194.364 251.318 195.41 253.607C196.43 255.836 196.15 258.412 194.083 259.734Z" fill="#CCA727"/>
</g>
<defs>
<clipPath id="clip0_108_194">
<rect width="384" height="512" fill="white"/>
</clipPath>
</defs>
</svg>
