<svg width="384" height="512" viewBox="0 0 384 512" fill="none" xmlns="http://www.w3.org/2000/svg">
<g clip-path="url(#clip0_108_202)">
<rect width="384" height="512" fill="#2E9AD0"/>
<path d="M193.765 263.504H189.191L185.5 260.624L184.094 255.973L185.497 251.322L189.188 248.442H193.765L197.456 251.322L198.86 255.973L197.456 260.624L197.404 260.679L193.765 263.504ZM189.294 263.169H193.662L197.199 260.402L198.551 255.973L197.199 251.544L193.662 248.777H189.294L185.761 251.544L184.408 255.973L185.761 260.402L189.294 263.169Z" fill="white"/>
<path d="M199.386 262.727L197.253 260.678L195.172 259.847L191.481 260.347L187.739 259.847L185.658 260.678L185.555 260.347L187.684 259.461H187.739L191.481 260.015L195.226 259.461L195.278 259.516L197.462 260.401L199.591 262.505L199.386 262.727Z" fill="white"/>
<path d="M193.666 263.668L191.482 260.457L189.195 263.668L187.531 259.738L187.843 259.571L189.298 263.004L191.482 259.848L193.615 263.004L195.07 259.571L197.045 255.364L197.514 260.511H197.203L196.837 256.582L195.382 259.738L193.666 263.668Z" fill="white"/>
<path d="M184.305 255.806H198.759V256.137H184.305V255.806Z" fill="white"/>
<path d="M197.045 256.582L195.227 252.762L193.666 256.359L191.481 252.208L189.246 256.359L187.685 252.762L185.867 256.582L185.449 251.489L185.764 251.435L186.075 255.419L187.685 252.043L189.246 255.641L191.481 251.544L193.614 255.641L195.227 252.043L196.836 255.364L197.096 251.435H197.411L197.045 256.582Z" fill="white"/>
<path d="M195.069 252.484L193.614 248.996L191.481 252.207L189.297 248.996L187.842 252.484L187.582 252.32L189.194 248.332L191.481 251.598L193.666 248.332L195.381 252.32L195.069 252.484ZM197.202 260.511L196.836 256.581L195.227 260.015L193.614 256.359L191.481 260.511L189.246 256.359L187.685 260.015L186.075 256.581L185.764 260.511H185.449L185.867 255.363L187.685 259.238L189.246 255.64L191.481 259.792L193.666 255.64L195.227 259.293L197.045 255.363L197.514 260.511H197.202Z" fill="white"/>
<path d="M195.226 252.597L191.43 252.043L187.684 252.597L185.555 251.598L185.658 251.267L187.739 252.207L191.43 251.711L195.226 252.207L197.253 251.267L197.41 251.598L195.226 252.597Z" fill="white"/>
<path d="M189.244 263.999C189.588 263.999 189.867 263.702 189.867 263.335C189.867 262.969 189.588 262.672 189.244 262.672C188.9 262.672 188.621 262.969 188.621 263.335C188.621 263.702 188.9 263.999 189.244 263.999Z" fill="white"/>
<path d="M193.611 263.999C193.956 263.999 194.235 263.702 194.235 263.335C194.235 262.969 193.956 262.672 193.611 262.672C193.267 262.672 192.988 262.969 192.988 263.335C192.988 263.702 193.267 263.999 193.611 263.999Z" fill="white"/>
<path d="M189.244 249.328C189.588 249.328 189.867 249.031 189.867 248.665C189.867 248.298 189.588 248.001 189.244 248.001C188.9 248.001 188.621 248.298 188.621 248.665C188.621 249.031 188.9 249.328 189.244 249.328Z" fill="white"/>
<path d="M193.611 249.328C193.956 249.328 194.235 249.031 194.235 248.665C194.235 248.298 193.956 248.001 193.611 248.001C193.267 248.001 192.988 248.298 192.988 248.665C192.988 249.031 193.267 249.328 193.611 249.328Z" fill="white"/>
<path d="M197.252 252.098C197.596 252.098 197.875 251.801 197.875 251.434C197.875 251.068 197.596 250.771 197.252 250.771C196.908 250.771 196.629 251.068 196.629 251.434C196.629 251.801 196.908 252.098 197.252 252.098Z" fill="white"/>
<path d="M185.604 252.098C185.948 252.098 186.227 251.801 186.227 251.434C186.227 251.068 185.948 250.771 185.604 250.771C185.259 250.771 184.98 251.068 184.98 251.434C184.98 251.801 185.259 252.098 185.604 252.098Z" fill="white"/>
<path d="M185.604 261.232C185.948 261.232 186.227 260.935 186.227 260.569C186.227 260.202 185.948 259.905 185.604 259.905C185.259 259.905 184.98 260.202 184.98 260.569C184.98 260.935 185.259 261.232 185.604 261.232Z" fill="white"/>
<path d="M184.303 256.636C184.647 256.636 184.926 256.339 184.926 255.972C184.926 255.606 184.647 255.309 184.303 255.309C183.959 255.309 183.68 255.606 183.68 255.972C183.68 256.339 183.959 256.636 184.303 256.636Z" fill="white"/>
<path d="M198.705 256.636C199.049 256.636 199.328 256.339 199.328 255.972C199.328 255.606 199.049 255.309 198.705 255.309C198.361 255.309 198.082 255.606 198.082 255.972C198.082 256.339 198.361 256.636 198.705 256.636Z" fill="white"/>
<path d="M196.94 256.636C197.284 256.636 197.563 256.339 197.563 255.972C197.563 255.606 197.284 255.309 196.94 255.309C196.595 255.309 196.316 255.606 196.316 255.972C196.316 256.339 196.595 256.636 196.94 256.636Z" fill="white"/>
<path d="M185.967 256.636C186.311 256.636 186.59 256.339 186.59 255.972C186.59 255.606 186.311 255.309 185.967 255.309C185.623 255.309 185.344 255.606 185.344 255.972C185.344 256.339 185.623 256.636 185.967 256.636Z" fill="white"/>
<path d="M189.244 256.636C189.588 256.636 189.867 256.339 189.867 255.972C189.867 255.606 189.588 255.309 189.244 255.309C188.9 255.309 188.621 255.606 188.621 255.972C188.621 256.339 188.9 256.636 189.244 256.636Z" fill="white"/>
<path d="M193.611 256.636C193.956 256.636 194.235 256.339 194.235 255.972C194.235 255.606 193.956 255.309 193.611 255.309C193.267 255.309 192.988 255.606 192.988 255.972C192.988 256.339 193.267 256.636 193.611 256.636Z" fill="white"/>
<path d="M192.094 251.983C192.149 251.621 191.918 251.28 191.579 251.222C191.239 251.163 190.919 251.409 190.864 251.77C190.809 252.132 191.039 252.473 191.379 252.531C191.719 252.59 192.039 252.345 192.094 251.983Z" fill="white"/>
<path d="M187.682 253.093C188.026 253.093 188.305 252.796 188.305 252.429C188.305 252.063 188.026 251.766 187.682 251.766C187.338 251.766 187.059 252.063 187.059 252.429C187.059 252.796 187.338 253.093 187.682 253.093Z" fill="white"/>
<path d="M195.225 253.093C195.569 253.093 195.848 252.796 195.848 252.429C195.848 252.063 195.569 251.766 195.225 251.766C194.881 251.766 194.602 252.063 194.602 252.429C194.602 252.796 194.881 253.093 195.225 253.093Z" fill="white"/>
<path d="M191.479 260.843C191.823 260.843 192.102 260.546 192.102 260.179C192.102 259.813 191.823 259.516 191.479 259.516C191.134 259.516 190.855 259.813 190.855 260.179C190.855 260.546 191.134 260.843 191.479 260.843Z" fill="white"/>
<path d="M187.682 260.289C188.026 260.289 188.305 259.992 188.305 259.625C188.305 259.259 188.026 258.962 187.682 258.962C187.338 258.962 187.059 259.259 187.059 259.625C187.059 259.992 187.338 260.289 187.682 260.289Z" fill="white"/>
<path d="M195.225 260.289C195.569 260.289 195.848 259.992 195.848 259.625C195.848 259.259 195.569 258.962 195.225 258.962C194.881 258.962 194.602 259.259 194.602 259.625C194.602 259.992 194.881 260.289 195.225 260.289Z" fill="white"/>
<path d="M199.488 263.503C199.948 263.503 200.32 263.106 200.32 262.617C200.32 262.128 199.948 261.731 199.488 261.731C199.029 261.731 198.656 262.128 198.656 262.617C198.656 263.106 199.029 263.503 199.488 263.503Z" fill="white"/>
</g>
<defs>
<clipPath id="clip0_108_202">
<rect width="384" height="512" fill="white"/>
</clipPath>
</defs>
</svg>
