<svg width="16" height="14" viewBox="0 0 16 14" fill="none" xmlns="http://www.w3.org/2000/svg">
<path d="M9.6896 4.66203V2.87538H13.7729V0.155396H2.65627V2.87538H6.7396V4.66203C3.42294 4.81536 0.92627 5.47202 0.92627 6.25868C0.92627 7.04534 3.42294 7.70201 6.7396 7.85534V13.572H9.69294V7.85534C13.0063 7.70201 15.4963 7.04534 15.4963 6.25868C15.4929 5.47202 13.0029 4.81536 9.6896 4.66203ZM9.69294 7.37201C9.6096 7.37534 9.18294 7.40201 8.2296 7.40201C7.46627 7.40201 6.93294 7.38201 6.74294 7.37201V7.37534C3.81294 7.24534 1.62294 6.73535 1.62294 6.12535C1.62294 5.51536 3.8096 5.00536 6.74294 4.87536V6.86201C6.93627 6.87535 7.48294 6.90868 8.24294 6.90868C9.15294 6.90868 9.6096 6.87201 9.69627 6.86201V4.86869C12.6229 4.99869 14.8063 5.50869 14.8063 6.11868C14.7996 6.72868 12.6163 7.23868 9.69294 7.37201Z" fill="white"/>
</svg>
