<svg width="384" height="512" viewBox="0 0 384 512" fill="none" xmlns="http://www.w3.org/2000/svg">
<g clip-path="url(#clip0_108_236)">
<rect width="384" height="512" fill="white"/>
<rect width="384" height="512" fill="url(#paint0_linear_108_236)"/>
<path fill-rule="evenodd" clip-rule="evenodd" d="M195.227 255.518L195.223 255.52C194.452 255.671 192.888 255.16 193.543 253.648C195.559 249.369 191.095 246.592 191.095 246.592C191.095 246.592 191.354 248.262 190.591 249.928C190.059 250.908 189.258 251.714 188.453 252.525C187.088 253.9 185.709 255.288 185.599 257.56C185.38 264.522 192.391 265.408 192.391 265.408C192.775 264.419 193.72 263.761 194.647 263.368C196.13 262.763 197.704 261.964 198.127 260.32C198.985 256.836 197.65 255.29 196.799 254.304C196.62 254.097 196.462 253.914 196.351 253.744C196.31 255.155 195.642 255.379 195.227 255.518ZM196.449 252.807C196.48 252.722 196.513 252.631 196.567 252.568C196.623 252.508 196.692 252.456 196.764 252.401C197.008 252.218 197.29 252.006 197.239 251.368C197.184 250.368 196.623 249.662 196.271 249.219C196.186 249.112 196.113 249.02 196.063 248.944C196.096 249.771 195.929 249.975 195.722 250.228C195.662 250.302 195.598 250.381 195.535 250.48C194.495 252.378 196.183 253.024 196.183 253.024C196.34 253.103 196.391 252.964 196.449 252.807ZM188.335 259.096V256.768H195.607V259.096H193.135V261.568H190.807V259.096H188.335Z" fill="white"/>
</g>
<defs>
<linearGradient id="paint0_linear_108_236" x1="0" y1="256" x2="384" y2="256" gradientUnits="userSpaceOnUse">
<stop stop-color="#FFA50D"/>
<stop offset="1" stop-color="#FE5413"/>
</linearGradient>
<clipPath id="clip0_108_236">
<rect width="384" height="512" fill="white"/>
</clipPath>
</defs>
</svg>
