<svg width="384" height="512" viewBox="0 0 384 512" fill="none" xmlns="http://www.w3.org/2000/svg">
<g clip-path="url(#clip0_108_244)">
<rect width="384" height="512" fill="#FF060A"/>
<path d="M199.782 252.621C198.993 251.886 197.902 250.762 197.013 249.965L196.96 249.928C196.872 249.857 196.774 249.801 196.668 249.763C194.524 249.36 184.547 247.476 184.352 247.5C184.298 247.508 184.246 247.528 184.2 247.559L184.15 247.599C184.088 247.662 184.042 247.738 184.013 247.822L184 247.856V248.045V248.074C185.123 251.232 189.558 261.578 190.431 264.006C190.484 264.171 190.584 264.484 190.771 264.5H190.813C190.913 264.5 191.339 263.932 191.339 263.932C191.339 263.932 198.956 254.603 199.727 253.61C199.827 253.487 199.915 253.356 199.99 253.216C200.009 253.108 200 252.996 199.964 252.891C199.927 252.787 199.865 252.694 199.782 252.621ZM193.293 253.708L196.544 250.985L198.451 252.76L193.293 253.708ZM192.031 253.53L186.433 248.897L195.49 250.584L192.031 253.53ZM192.536 254.744L198.265 253.811L191.715 261.78L192.536 254.744ZM185.673 249.36L191.562 254.406L190.71 261.785L185.673 249.36Z" fill="white"/>
</g>
<defs>
<clipPath id="clip0_108_244">
<rect width="384" height="512" fill="white"/>
</clipPath>
</defs>
</svg>
