<svg width="384" height="512" viewBox="0 0 384 512" fill="none" xmlns="http://www.w3.org/2000/svg">
<g clip-path="url(#clip0_108_287)">
<rect width="384" height="512" fill="white"/>
<rect width="384" height="512" fill="url(#paint0_linear_108_287)"/>
<path d="M192 268C185.4 268 180 262.6 180 256C180 249.4 185.4 244 192 244C198.6 244 204 249.4 204 256C204 262.6 198.6 268 192 268ZM192 246.668C186.868 246.668 182.668 250.868 182.668 256C182.668 261.132 186.868 265.332 192 265.332C197.132 265.332 201.332 261.132 201.332 256C201.332 250.868 197.132 246.668 192 246.668Z" fill="black"/>
<path d="M191.724 259.25H196.924V261.85H193.856V264.05H191.188V261.918H187.988C187.988 261.05 187.856 260.186 188.056 259.386C188.124 258.986 188.588 258.586 188.924 258.186C189.924 256.986 190.924 255.786 191.992 254.586C192.392 254.118 192.792 253.718 193.261 253.186H188.261V250.586H191.192V248.387H193.792V250.518H196.992C196.992 251.386 197.124 252.25 196.924 253.05C196.856 253.45 196.392 253.85 196.056 254.25C195.056 255.45 194.056 256.65 192.988 257.85C192.588 258.318 192.188 258.782 191.724 259.25Z" fill="black"/>
</g>
<defs>
<linearGradient id="paint0_linear_108_287" x1="60.1701" y1="431.547" x2="399.436" y2="177.098" gradientUnits="userSpaceOnUse">
<stop stop-color="#CF8724"/>
<stop offset="1" stop-color="#FDCE58"/>
</linearGradient>
<clipPath id="clip0_108_287">
<rect width="384" height="512" fill="white"/>
</clipPath>
</defs>
</svg>
