<svg width="384" height="512" viewBox="0 0 384 512" fill="none" xmlns="http://www.w3.org/2000/svg">
<g clip-path="url(#clip0_108_291)">
<rect width="384" height="512" fill="#49C1BF"/>
<path d="M197.665 254.612L195.355 255.639L189.227 258.75L195.355 261.689V256.832L197.665 255.793V262.969L195.355 263.996L186.332 259.689V257.4L192.578 254.344L186.332 251.351V249.029L188.679 248.002L197.665 252.316V254.612Z" fill="white"/>
<path d="M186.332 249.029L195.355 253.343L197.665 252.316L188.679 248.002L186.332 249.029Z" fill="#80D4D4"/>
<path d="M195.355 253.334L197.666 252.307V254.603L195.355 255.63V253.334Z" fill="#BFE9E8"/>
<path d="M186.332 249.031V251.353L192.578 254.347L186.332 257.402V259.692L195.355 263.998V261.694L189.227 258.752L195.355 255.642V253.345L186.332 249.031Z" fill="white"/>
<path d="M195.355 263.982L197.666 262.955V255.779L195.355 256.817V263.982Z" fill="#BFE9E8"/>
</g>
<defs>
<clipPath id="clip0_108_291">
<rect width="384" height="512" fill="white"/>
</clipPath>
</defs>
</svg>
