<svg width="384" height="512" viewBox="0 0 384 512" fill="none" xmlns="http://www.w3.org/2000/svg">
<g clip-path="url(#clip0_108_2)">
<rect width="384" height="512" fill="#231815"/>
<path d="M196.91 259.114C197.561 259.987 198.232 260.88 198.903 261.773C197.561 263.357 195.894 264.372 193.881 264.798C191.645 265.265 189.53 264.92 187.477 263.783C189.306 262.423 191.096 261.083 192.905 259.743C193.312 260.129 193.698 260.515 194.084 260.88C194.511 261.286 194.349 261.306 194.898 261.002C195.65 260.576 196.28 259.987 196.768 259.276C196.788 259.236 196.829 259.195 196.849 259.154C196.829 259.154 196.849 259.154 196.91 259.114ZM188.92 260.9C188.412 261.286 187.944 261.631 187.477 261.997C187.131 262.261 186.785 262.504 186.44 262.768C186.297 262.89 186.196 262.89 186.033 262.748C184.488 261.367 183.512 259.662 183.146 257.632C182.78 255.581 183.105 253.632 184.081 251.785C184.102 251.744 184.142 251.683 184.163 251.643C184.163 251.623 184.183 251.623 184.224 251.602C185.565 253.369 186.928 255.135 188.27 256.901C188.229 256.962 188.209 257.002 188.168 257.043C187.761 257.469 187.355 257.896 186.928 258.302C186.806 258.424 186.785 258.525 186.867 258.667C187.294 259.479 187.883 260.149 188.615 260.697C188.717 260.758 188.798 260.819 188.92 260.9ZM196.504 248.293C195.853 248.76 195.202 249.227 194.552 249.674C193.434 250.465 192.315 251.277 191.218 252.069C191.075 252.171 190.974 252.191 190.852 252.049C190.486 251.663 190.099 251.318 189.733 250.932C189.632 250.831 189.53 250.811 189.388 250.871C188.514 251.318 187.822 251.947 187.253 252.739C187.212 252.78 187.172 252.841 187.131 252.902C186.806 252.475 186.501 252.09 186.196 251.683C185.87 251.257 185.565 250.831 185.261 250.425C185.159 250.283 185.139 250.181 185.281 250.039C186.846 248.313 188.778 247.298 191.096 247.055C192.925 246.852 194.674 247.217 196.3 248.09C196.361 248.131 196.422 248.151 196.483 248.192C196.483 248.253 196.483 248.273 196.504 248.293ZM199.818 260.474C199.391 259.926 199.004 259.418 198.618 258.911C197.724 257.733 196.829 256.536 195.914 255.358C195.792 255.196 195.792 255.094 195.934 254.952C196.321 254.566 196.687 254.181 197.073 253.795C197.175 253.693 197.215 253.592 197.134 253.45C196.687 252.597 196.077 251.887 195.284 251.318C195.223 251.277 195.162 251.217 195.08 251.176C195.141 251.115 195.202 251.074 195.243 251.034C196.016 250.445 196.788 249.877 197.561 249.288C197.683 249.186 197.785 249.146 197.927 249.288C199.858 251.034 200.895 253.206 200.997 255.825C201.037 257.348 200.692 258.789 200.001 260.149C199.94 260.23 199.879 260.332 199.818 260.474Z" fill="white"/>
</g>
<defs>
<clipPath id="clip0_108_2">
<rect width="384" height="512" fill="white"/>
</clipPath>
</defs>
</svg>
