<svg width="384" height="512" viewBox="0 0 384 512" fill="none" xmlns="http://www.w3.org/2000/svg">
<g clip-path="url(#clip0_108_5)">
<rect width="384" height="512" fill="#767DFF"/>
<mask id="mask0_108_5" style="mask-type:luminance" maskUnits="userSpaceOnUse" x="180" y="244" width="24" height="24">
<path d="M204 244H180V268H204V244Z" fill="white"/>
</mask>
<g mask="url(#mask0_108_5)">
<path d="M192 268C198.627 268 204 262.627 204 256C204 249.373 198.627 244 192 244C185.373 244 180 249.373 180 256C180 262.627 185.373 268 192 268Z" fill="#767DFF"/>
<path fill-rule="evenodd" clip-rule="evenodd" d="M190.328 248.875H193.673C193.789 248.875 193.903 248.906 194.003 248.964C194.103 249.023 194.185 249.107 194.242 249.208L199.422 258.447C199.476 258.545 199.505 258.654 199.505 258.766C199.505 258.878 199.476 258.987 199.422 259.085L197.764 262.041C197.708 262.142 197.625 262.227 197.525 262.285C197.425 262.344 197.312 262.375 197.196 262.375H186.805C186.689 262.375 186.575 262.344 186.475 262.285C186.375 262.227 186.293 262.142 186.236 262.041L184.579 259.085C184.525 258.987 184.496 258.878 184.496 258.766C184.496 258.654 184.525 258.545 184.579 258.447L189.759 249.208C189.815 249.107 189.898 249.023 189.998 248.964C190.098 248.906 190.212 248.875 190.328 248.875ZM192 252.551L188.511 258.766H195.49L192 252.551Z" fill="white"/>
</g>
</g>
<defs>
<clipPath id="clip0_108_5">
<rect width="384" height="512" fill="white"/>
</clipPath>
</defs>
</svg>
