<svg width="100" height="120" viewBox="0 0 100 120" fill="none" xmlns="http://www.w3.org/2000/svg">
<g clip-path="url(#clip0_108_5)">
<rect width="100" height="120" fill="#767DFF"/>
<mask id="mask0_108_5" style="mask-type:luminance" maskUnits="userSpaceOnUse" x="38" y="48" width="24" height="24">
<path d="M62 48H38V72H62V48Z" fill="white"/>
</mask>
<g mask="url(#mask0_108_5)">
<path d="M50 72C56.6274 72 62 66.6274 62 60C62 53.3726 56.6274 48 50 48C43.3726 48 38 53.3726 38 60C38 66.6274 43.3726 72 50 72Z" fill="#767DFF"/>
<path fill-rule="evenodd" clip-rule="evenodd" d="M48.328 52.875H51.673C51.7889 52.8749 51.9028 52.9058 52.0028 52.9643C52.1029 53.0228 52.1855 53.1069 52.2423 53.208L57.4218 62.4473C57.4763 62.5446 57.5049 62.6544 57.5049 62.766C57.5049 62.8776 57.4763 62.9874 57.4218 63.0848L55.7643 66.0413C55.7077 66.1423 55.6252 66.2265 55.5253 66.2852C55.4253 66.3439 55.3116 66.3748 55.1958 66.375H44.8052C44.6893 66.375 44.5754 66.3441 44.4753 66.2854C44.3753 66.2267 44.2927 66.1425 44.236 66.0413L42.5792 63.0848C42.5247 62.9874 42.4961 62.8776 42.4961 62.766C42.4961 62.6544 42.5247 62.5446 42.5792 62.4473L47.7588 53.208C47.8155 53.1069 47.8982 53.0228 47.9982 52.9643C48.0983 52.9058 48.2121 52.8749 48.328 52.875ZM50.0005 56.5508L46.5108 62.766H53.4903L50.0005 56.5508Z" fill="white"/>
</g>
</g>
<defs>
<clipPath id="clip0_108_5">
<rect width="100" height="120" fill="white"/>
</clipPath>
</defs>
</svg>
