<svg width="384" height="512" viewBox="0 0 384 512" fill="none" xmlns="http://www.w3.org/2000/svg">
<g clip-path="url(#clip0_108_13)">
<rect width="384" height="512" fill="#3468D1"/>
<path d="M187.936 255.942C187.897 256.584 188.411 257.134 189.078 257.171C189.102 257.171 189.126 257.171 189.15 257.171C189.822 257.171 190.364 256.649 190.36 256.002C190.36 255.356 189.817 254.834 189.145 254.839C188.502 254.839 187.969 255.324 187.936 255.942Z" fill="white"/>
<path d="M183.413 255.642C183.197 255.629 183.01 255.79 183 255.998C182.991 256.206 183.154 256.386 183.37 256.395C183.586 256.409 183.768 256.247 183.783 256.04C183.797 255.832 183.629 255.656 183.413 255.642Z" fill="white"/>
<path d="M187.858 249.174C188.05 249.081 188.127 248.851 188.031 248.666C187.935 248.481 187.695 248.407 187.503 248.5C187.311 248.592 187.234 248.818 187.33 249.003C187.426 249.192 187.662 249.271 187.858 249.174Z" fill="white"/>
<path d="M189.086 251.237C189.384 251.094 189.504 250.743 189.355 250.457C189.206 250.17 188.841 250.055 188.544 250.198C188.246 250.341 188.126 250.692 188.275 250.978C188.424 251.265 188.788 251.38 189.086 251.237Z" fill="white"/>
<path d="M184.949 252.654C185.18 252.797 185.487 252.737 185.641 252.516C185.789 252.294 185.727 251.999 185.497 251.851C185.266 251.708 184.959 251.768 184.805 251.989C184.652 252.211 184.719 252.511 184.949 252.654Z" fill="white"/>
<path d="M185.682 255.435C185.346 255.416 185.063 255.661 185.044 255.984C185.025 256.307 185.279 256.58 185.615 256.598C185.951 256.617 186.234 256.372 186.254 256.049C186.273 255.73 186.018 255.453 185.682 255.435Z" fill="white"/>
<path d="M185.017 259.346C184.772 259.466 184.671 259.752 184.796 259.992C184.921 260.227 185.218 260.324 185.468 260.204C185.713 260.084 185.813 259.798 185.689 259.558C185.564 259.322 185.261 259.225 185.017 259.346Z" fill="white"/>
<path d="M187.366 254.229C187.698 254.437 188.139 254.349 188.35 254.031C188.566 253.712 188.475 253.287 188.144 253.084C187.813 252.876 187.371 252.964 187.16 253.283C186.944 253.597 187.035 254.021 187.366 254.229Z" fill="white"/>
<path d="M194.834 251.191C195.112 251.367 195.491 251.293 195.674 251.025C195.856 250.757 195.779 250.393 195.501 250.217C195.222 250.042 194.843 250.116 194.661 250.383C194.474 250.656 194.55 251.016 194.834 251.191Z" fill="white"/>
<path d="M196.071 249.136C196.253 249.252 196.493 249.201 196.613 249.025C196.733 248.85 196.68 248.619 196.498 248.504C196.316 248.388 196.076 248.439 195.956 248.61C195.84 248.785 195.893 249.021 196.071 249.136Z" fill="white"/>
<path d="M194.923 254.83C194.256 254.793 193.68 255.287 193.647 255.929C193.608 256.571 194.122 257.125 194.789 257.157C194.813 257.157 194.837 257.157 194.856 257.157C195.523 257.157 196.066 256.635 196.066 255.989C196.07 255.375 195.566 254.862 194.923 254.83Z" fill="white"/>
<path d="M189.486 254.146C189.693 254.538 190.11 254.788 190.571 254.788C191.238 254.788 191.781 254.266 191.781 253.619C191.781 253.439 191.737 253.259 191.651 253.093C191.349 252.516 190.619 252.285 190.024 252.576C189.424 252.871 189.184 253.573 189.486 254.146Z" fill="white"/>
<path d="M198.982 252.655C199.227 252.535 199.323 252.244 199.198 252.008C199.073 251.773 198.771 251.681 198.526 251.801C198.281 251.921 198.185 252.207 198.305 252.442C198.435 252.678 198.733 252.775 198.982 252.655Z" fill="white"/>
<path d="M195.913 253.024C195.562 253.195 195.418 253.606 195.596 253.943C195.773 254.28 196.201 254.419 196.551 254.248C196.901 254.077 197.045 253.666 196.868 253.329C196.69 252.992 196.263 252.858 195.913 253.024Z" fill="white"/>
<path d="M191.952 248.961C192.225 248.975 192.46 248.772 192.48 248.509C192.499 248.245 192.283 248.019 192.009 248.001C191.736 247.987 191.5 248.185 191.481 248.449C191.467 248.716 191.678 248.943 191.952 248.961Z" fill="white"/>
<path d="M191.946 251.976C192.34 251.999 192.676 251.709 192.695 251.33C192.719 250.951 192.417 250.628 192.023 250.61C191.63 250.587 191.294 250.877 191.274 251.256C191.255 251.635 191.553 251.958 191.946 251.976Z" fill="white"/>
<path d="M188.09 258.976C188.44 258.805 188.584 258.394 188.407 258.057C188.229 257.72 187.802 257.581 187.452 257.752C187.101 257.923 186.957 258.334 187.135 258.671C187.312 259.008 187.74 259.146 188.09 258.976Z" fill="white"/>
<path d="M192.409 252.979C192.044 253.519 192.197 254.239 192.759 254.59C193.321 254.941 194.069 254.793 194.434 254.253C194.799 253.713 194.645 252.992 194.084 252.641C193.887 252.517 193.657 252.452 193.421 252.452C193.013 252.452 192.634 252.651 192.409 252.979Z" fill="white"/>
<path d="M194.514 257.854C194.212 257.277 193.482 257.046 192.887 257.337C192.287 257.627 192.047 258.329 192.349 258.902C192.652 259.479 193.381 259.71 193.977 259.419C194.572 259.133 194.817 258.44 194.519 257.863C194.519 257.858 194.519 257.858 194.514 257.854Z" fill="white"/>
<path d="M196.632 257.771C196.301 257.563 195.859 257.651 195.648 257.969C195.432 258.288 195.523 258.713 195.855 258.916C196.186 259.124 196.627 259.036 196.839 258.717C197.055 258.403 196.963 257.979 196.632 257.771Z" fill="white"/>
<path d="M198.957 256.02C198.976 255.697 198.722 255.425 198.386 255.406C198.05 255.388 197.766 255.632 197.747 255.956C197.728 256.279 197.982 256.551 198.318 256.57C198.65 256.588 198.938 256.339 198.957 256.02Z" fill="white"/>
<path d="M200.632 255.605C200.416 255.591 200.229 255.753 200.219 255.961C200.21 256.169 200.373 256.349 200.589 256.358C200.805 256.372 200.987 256.21 201.002 256.002C201.011 255.795 200.848 255.619 200.632 255.605Z" fill="white"/>
<path d="M199.053 259.345C198.823 259.202 198.515 259.262 198.362 259.484C198.213 259.705 198.275 260.001 198.506 260.149C198.736 260.292 199.043 260.232 199.197 260.01C199.351 259.788 199.283 259.488 199.053 259.345Z" fill="white"/>
<path d="M187.923 262.863C187.741 262.748 187.501 262.798 187.381 262.969C187.261 263.145 187.314 263.376 187.491 263.491C187.674 263.606 187.914 263.556 188.034 263.385C188.159 263.214 188.106 262.978 187.923 262.863Z" fill="white"/>
<path d="M196.144 262.827C195.952 262.919 195.875 263.15 195.971 263.335C196.067 263.519 196.307 263.593 196.499 263.501C196.691 263.409 196.768 263.182 196.672 262.998C196.576 262.808 196.341 262.73 196.144 262.827Z" fill="white"/>
<path d="M191.593 259.022C191.958 258.482 191.805 257.762 191.243 257.406C190.681 257.055 189.933 257.203 189.563 257.743C189.193 258.283 189.352 259.004 189.913 259.359C190.11 259.484 190.341 259.548 190.576 259.548C190.989 259.553 191.368 259.354 191.593 259.022Z" fill="white"/>
<path d="M189.169 260.809C188.891 260.634 188.512 260.707 188.329 260.975C188.147 261.243 188.224 261.608 188.502 261.783C188.781 261.959 189.16 261.885 189.342 261.617C189.529 261.349 189.453 260.984 189.169 260.809Z" fill="white"/>
<path d="M191.994 263.039C191.72 263.025 191.485 263.228 191.466 263.491C191.447 263.754 191.663 263.981 191.936 263.999C192.21 264.013 192.445 263.814 192.464 263.551C192.479 263.283 192.268 263.057 191.994 263.039Z" fill="white"/>
<path d="M192 260.024C191.607 260.001 191.271 260.292 191.251 260.67C191.227 261.049 191.53 261.372 191.923 261.39C192.317 261.409 192.653 261.123 192.672 260.744C192.696 260.37 192.394 260.042 192 260.024Z" fill="white"/>
<path d="M194.913 260.763C194.615 260.91 194.495 261.261 194.649 261.548C194.803 261.834 195.167 261.949 195.465 261.802C195.763 261.658 195.883 261.308 195.734 261.021C195.58 260.735 195.215 260.615 194.913 260.763Z" fill="white"/>
</g>
<defs>
<clipPath id="clip0_108_13">
<rect width="384" height="512" fill="white"/>
</clipPath>
</defs>
</svg>
