<svg width="100" height="120" viewBox="0 0 100 120" fill="none" xmlns="http://www.w3.org/2000/svg">
<g clip-path="url(#clip0_108_45)">
<rect width="100" height="120" fill="black"/>
<path d="M46.2549 65.7147L47.9195 62.8525L49.584 60.0004L51.2384 57.1382L51.5124 56.6847L51.6342 57.1382L52.1417 59.0228L51.5733 60.0004L49.9088 62.8525L48.2544 65.7147H50.2437L51.9083 62.8525L52.771 61.371L53.177 62.8525L53.9483 65.7147H55.7347L54.9633 62.8525L54.1919 60.0004L53.9889 59.2647L55.2272 57.1382H53.4205L53.3596 56.9266L52.7304 54.5884L52.6492 54.2861H50.9136L50.873 54.3466L49.2491 57.1382L47.5845 60.0004L45.9302 62.8525L44.2656 65.7147H46.2549Z" fill="white"/>
</g>
<defs>
<clipPath id="clip0_108_45">
<rect width="100" height="120" fill="white"/>
</clipPath>
</defs>
</svg>
