<svg width="100" height="120" viewBox="0 0 100 120" fill="none" xmlns="http://www.w3.org/2000/svg">
<g clip-path="url(#clip0_108_48)">
<rect width="100" height="120" fill="#1B1E36"/>
<path d="M50 72C56.6274 72 62 66.6274 62 60C62 53.3726 56.6274 48 50 48C43.3726 48 38 53.3726 38 60C38 66.6274 43.3726 72 50 72Z" fill="#2E3148"/>
<path d="M50.0021 66.9631C53.8476 66.9631 56.9651 63.8457 56.9651 60.0001C56.9651 56.1546 53.8476 53.0371 50.0021 53.0371C46.1565 53.0371 43.0391 56.1546 43.0391 60.0001C43.0391 63.8457 46.1565 66.9631 50.0021 66.9631Z" fill="#1B1E36"/>
<path d="M50.0002 61.2348C50.682 61.2348 51.2347 60.682 51.2347 60.0002C51.2347 59.3184 50.682 58.7656 50.0002 58.7656C49.3184 58.7656 48.7656 59.3184 48.7656 60.0002C48.7656 60.682 49.3184 61.2348 50.0002 61.2348Z" fill="#B7B9C8"/>
<path d="M59.103 65.2841C59.7529 64.1631 56.214 60.8989 51.2022 57.9931C46.1903 55.0874 41.5934 53.6426 40.944 54.7655C40.2947 55.8884 43.8329 59.1507 48.8477 62.0564C53.8624 64.9622 58.4536 66.4071 59.103 65.2841ZM41.3747 55.1987C41.2787 54.9711 41.4813 54.9162 41.4813 54.9162C42.3785 54.7468 43.6388 55.1329 43.6388 55.1329C47.0675 55.9137 53.1812 59.7433 53.1812 59.7433C57.8884 63.0372 58.6103 64.488 58.7185 64.8999C58.7295 64.9421 58.7252 64.9869 58.7064 65.0263C58.6876 65.0657 58.6555 65.0972 58.6158 65.1152C58.1249 65.3399 56.8103 65.0051 56.8103 65.0051C52.7584 63.9186 49.5179 61.9281 49.5179 61.9281C46.6064 60.3577 43.7273 57.9414 43.7273 57.9414C41.5397 56.0994 41.3753 55.2012 41.3753 55.2012L41.3747 55.1987Z" fill="#6F7390"/>
<path d="M59.1281 54.803C58.4832 53.679 53.8857 55.1061 48.8561 57.9902C43.8266 60.8742 40.2788 64.1235 40.9232 65.247C41.5677 66.3705 46.1657 64.9438 51.1953 62.0598C56.2248 59.1758 59.7726 55.9265 59.1281 54.803ZM41.5182 65.0928C41.2713 65.0617 41.3271 64.8588 41.3271 64.8588C41.63 63.9976 42.5938 63.0998 42.5938 63.0998C44.9884 60.5235 51.3662 57.1511 51.3662 57.1511C56.5746 54.7279 58.1924 54.8301 58.6028 54.9431C58.6449 54.9549 58.6815 54.9812 58.7061 55.0173C58.7307 55.0535 58.7417 55.0972 58.7372 55.1407C58.6879 55.6783 57.7372 56.6479 57.7372 56.6479C54.7696 59.6104 51.422 61.4173 51.422 61.4173C48.6012 63.1501 45.0675 64.4325 45.0675 64.4325C42.3786 65.4015 41.5182 65.0928 41.5182 65.0928Z" fill="#6F7390"/>
<path d="M50.0254 49.5312C48.73 49.5312 47.6797 54.2295 47.6797 60.0251C47.6797 65.8208 48.73 70.519 50.0254 70.519C51.3207 70.519 52.371 65.8208 52.371 60.0251C52.371 54.2295 51.3207 49.5312 50.0254 49.5312ZM50.1873 69.9268C50.0392 70.1243 49.8911 69.9761 49.8911 69.9761C49.2945 69.2849 48.9962 68.0008 48.9962 68.0008C47.9528 64.6428 48.2012 57.4329 48.2012 57.4329C48.6915 51.709 49.5836 50.3569 49.8871 50.0567C49.9181 50.0261 49.9589 50.0073 50.0024 50.0038C50.0458 50.0003 50.0891 50.0122 50.1246 50.0375C50.5651 50.3496 50.9345 51.6548 50.9345 51.6548C52.0253 55.7042 51.9265 59.5066 51.9265 59.5066C52.0253 62.8153 51.3799 66.519 51.3799 66.519C50.8831 69.3337 50.1873 69.9268 50.1873 69.9268Z" fill="#6F7390"/>
<path d="M48.5442 67.6044C48.9397 67.6044 49.2603 67.2728 49.2603 66.8637C49.2603 66.4546 48.9397 66.123 48.5442 66.123C48.1487 66.123 47.8281 66.4546 47.8281 66.8637C47.8281 67.2728 48.1487 67.6044 48.5442 67.6044Z" fill="#B7B9C8"/>
<path d="M43.3098 58.5186C43.7053 58.5186 44.0259 58.187 44.0259 57.7779C44.0259 57.3688 43.7053 57.0371 43.3098 57.0371C42.9143 57.0371 42.5938 57.3688 42.5938 57.7779C42.5938 58.187 42.9143 58.5186 43.3098 58.5186Z" fill="#B7B9C8"/>
<path d="M55.0599 56.0001C55.4553 56.0001 55.7759 55.6684 55.7759 55.2593C55.7759 54.8502 55.4553 54.5186 55.0599 54.5186C54.6644 54.5186 54.3438 54.8502 54.3438 55.2593C54.3438 55.6684 54.6644 56.0001 55.0599 56.0001Z" fill="#B7B9C8"/>
</g>
<defs>
<clipPath id="clip0_108_48">
<rect width="100" height="120" fill="white"/>
</clipPath>
</defs>
</svg>
