<svg width="384" height="512" viewBox="0 0 384 512" fill="none" xmlns="http://www.w3.org/2000/svg">
<g clip-path="url(#clip0_108_48)">
<rect width="384" height="512" fill="#1B1E36"/>
<path d="M192 268C198.627 268 204 262.627 204 256C204 249.373 198.627 244 192 244C185.373 244 180 249.373 180 256C180 262.627 185.373 268 192 268Z" fill="#2E3148"/>
<path d="M192.002 262.963C195.848 262.963 198.965 259.846 198.965 256C198.965 252.155 195.848 249.037 192.002 249.037C188.156 249.037 185.039 252.155 185.039 256C185.039 259.846 188.156 262.963 192.002 262.963Z" fill="#1B1E36"/>
<path d="M192 257.235C192.682 257.235 193.235 256.682 193.235 256C193.235 255.318 192.682 254.766 192 254.766C191.318 254.766 190.766 255.318 190.766 256C190.766 256.682 191.318 257.235 192 257.235Z" fill="#B7B9C8"/>
<path d="M201.103 261.284C201.753 260.163 198.214 256.899 193.202 253.993C188.19 251.087 183.593 249.643 182.944 250.766C182.295 251.888 185.833 255.151 190.848 258.056C195.862 260.962 200.454 262.407 201.103 261.284ZM183.375 251.199C183.279 250.971 183.481 250.916 183.481 250.916C184.379 250.747 185.639 251.133 185.639 251.133C189.068 251.914 195.181 255.743 195.181 255.743C199.888 259.037 200.61 260.488 200.719 260.9C200.73 260.942 200.725 260.987 200.706 261.026C200.688 261.066 200.656 261.097 200.616 261.115C200.125 261.34 198.81 261.005 198.81 261.005C194.758 259.919 191.518 257.928 191.518 257.928C188.606 256.358 185.727 253.941 185.727 253.941C183.54 252.099 183.375 251.201 183.375 251.201L183.375 251.199Z" fill="#6F7390"/>
<path d="M201.128 250.803C200.483 249.679 195.886 251.106 190.856 253.99C185.827 256.874 182.279 260.123 182.923 261.247C183.568 262.37 188.166 260.944 193.195 258.06C198.225 255.176 201.773 251.926 201.128 250.803ZM183.518 261.093C183.271 261.062 183.327 260.859 183.327 260.859C183.63 259.998 184.594 259.1 184.594 259.1C186.988 256.523 193.366 253.151 193.366 253.151C198.575 250.728 200.192 250.83 200.603 250.943C200.645 250.955 200.681 250.981 200.706 251.017C200.731 251.053 200.742 251.097 200.737 251.141C200.688 251.678 199.737 252.648 199.737 252.648C196.77 255.61 193.422 257.417 193.422 257.417C190.601 259.15 187.067 260.432 187.067 260.432C184.379 261.401 183.518 261.093 183.518 261.093Z" fill="#6F7390"/>
<path d="M192.025 245.531C190.73 245.531 189.68 250.229 189.68 256.025C189.68 261.821 190.73 266.519 192.025 266.519C193.321 266.519 194.371 261.821 194.371 256.025C194.371 250.229 193.321 245.531 192.025 245.531ZM192.187 265.927C192.039 266.124 191.891 265.976 191.891 265.976C191.294 265.285 190.996 264.001 190.996 264.001C189.953 260.643 190.201 253.433 190.201 253.433C190.691 247.709 191.584 246.357 191.887 246.057C191.918 246.026 191.959 246.007 192.002 246.004C192.046 246 192.089 246.012 192.125 246.037C192.565 246.35 192.934 247.655 192.934 247.655C194.025 251.704 193.926 255.507 193.926 255.507C194.025 258.815 193.38 262.519 193.38 262.519C192.883 265.334 192.187 265.927 192.187 265.927Z" fill="#6F7390"/>
<path d="M190.544 263.604C190.94 263.604 191.26 263.273 191.26 262.864C191.26 262.455 190.94 262.123 190.544 262.123C190.149 262.123 189.828 262.455 189.828 262.864C189.828 263.273 190.149 263.604 190.544 263.604Z" fill="#B7B9C8"/>
<path d="M185.31 254.519C185.705 254.519 186.026 254.187 186.026 253.778C186.026 253.369 185.705 253.037 185.31 253.037C184.914 253.037 184.594 253.369 184.594 253.778C184.594 254.187 184.914 254.519 185.31 254.519Z" fill="#B7B9C8"/>
<path d="M197.06 252C197.455 252 197.776 251.668 197.776 251.259C197.776 250.85 197.455 250.519 197.06 250.519C196.664 250.519 196.344 250.85 196.344 251.259C196.344 251.668 196.664 252 197.06 252Z" fill="#B7B9C8"/>
</g>
<defs>
<clipPath id="clip0_108_48">
<rect width="384" height="512" fill="white"/>
</clipPath>
</defs>
</svg>
