<svg width="384" height="512" viewBox="0 0 384 512" fill="none" xmlns="http://www.w3.org/2000/svg">
<g clip-path="url(#clip0_108_65)">
<rect width="384" height="512" fill="#EAB300"/>
<path d="M188.817 248.409L190.531 248.165L190.45 248.001L190.205 247.92C190.45 247.675 192.082 248.246 191.674 247.838L191.755 247.675C192.327 247.675 192.816 247.838 193.225 248.246C193.306 248.083 193.061 248.083 193.061 247.92C193.388 247.838 194.857 249.226 194.367 248.246C194.939 248.409 195.347 248.736 195.755 249.144C195.918 248.899 195.673 248.817 195.591 248.654C196.244 248.654 196.163 249.389 196.653 249.552C196.734 249.389 196.571 249.307 196.571 249.144C198.448 249.797 196.408 253.715 195.428 254.776C196.979 252.98 195.347 249.389 194.939 251.919C194.939 252.001 194.775 251.429 193.551 250.94C192.735 250.695 192.653 251.348 191.674 251.348C189.878 251.348 187.185 249.307 187.675 249.307C187.348 248.981 188.98 248.736 189.062 248.573C188.98 248.491 188.817 248.654 188.817 248.409ZM192.735 255.347C193.306 255.51 193.388 255.429 193.388 254.939C193.796 255.184 193.878 255.184 193.959 254.776L194.449 255.265C194.53 255.347 194.775 255.592 194.367 255.592L194.286 255.673C194.367 256.163 194.041 255.837 193.878 255.837C193.796 256 193.878 256.245 193.714 256.326C193.633 256.081 193.469 255.918 193.143 256.081C193.061 256.163 192.98 256 192.98 255.918L192.735 255.347ZM183.594 253.796C183.757 253.796 183.92 253.878 184.002 253.633C184.002 253.47 184.247 253.47 184.328 253.551C184.573 253.715 184.655 253.878 184.573 254.123C184.573 254.367 184.41 254.204 184.247 254.204C184.002 254.123 183.675 254.286 183.594 253.796Z" fill="white"/>
<path d="M185.553 252.654L185.309 253.306C185.25 253.546 185.139 253.769 184.982 253.959C184.656 254.531 183.921 254.694 183.513 254.286C183.431 254.204 183.431 254.041 183.268 254.041C183.105 254.123 183.105 254.286 183.023 254.449C183.023 254.776 183.105 254.939 183.35 255.102C183.676 255.347 184.003 255.347 184.329 255.265L184.411 255.347C184.084 255.592 183.758 255.592 183.35 255.51C182.778 255.265 182.615 254.776 182.697 254.204C182.37 254.367 182.37 254.694 182.207 254.939V255.265C182.452 255.51 182.452 255.837 182.778 256.081C183.023 256.245 183.35 256.326 183.758 256.326C183.35 256.734 183.023 256.49 182.697 256.326C182.86 256.816 183.186 256.979 183.758 256.898C184.492 256.816 184.737 256.245 184.982 255.673C185.39 254.449 185.798 253.306 186.696 252.409C185.88 251.919 185.88 251.919 185.553 252.654Z" fill="white"/>
<path d="M201.221 254.041C201.385 254.123 201.548 253.878 201.793 254.041C201.711 253.633 201.548 253.388 201.14 253.388C200.976 253.388 201.14 253.306 201.14 253.306C201.14 252.898 201.303 252.735 200.65 252.817C200.568 252.98 200.568 253.143 200.405 253.225C200.324 253.062 200.487 252.898 200.568 252.735L200.487 252.245C199.915 252.327 199.915 252.735 199.997 253.306C199.181 252.49 198.12 252.001 197.875 250.776C197.63 251.184 197.793 253.551 197.304 253.796C197.222 253.796 197.304 253.551 197.14 253.551C196.977 254.204 197.304 255.184 196.569 254.776C196.651 255.429 196.488 255.918 195.998 256.326C195.835 256.326 195.835 256.081 195.835 256H195.753C195.671 256.734 195.345 257.306 194.774 257.714C194.529 257.551 194.692 257.387 194.61 257.143L194.529 257.061C192.733 260.652 189.876 258.53 189.958 257.061C188.897 256.898 187.346 255.265 188.326 252.898C187.836 252.735 186.122 252.735 186.367 253.796C185.551 254.776 185.469 258.04 186.449 259.02L186.612 259.101C187.428 258.285 186.857 260.652 187.999 260.407C187.836 260.081 187.918 259.999 188.244 260.081C190.448 261.631 190.366 260.326 189.876 262.203C189.387 261.223 188.897 260.897 188.244 261.305C188.734 261.55 188.979 261.958 189.06 262.529C188.979 262.529 187.673 261.06 187.346 262.04C187.754 262.448 188.326 262.448 188.652 262.856C187.428 262.774 187.02 263.182 187.346 264.08C187.51 263.345 188.815 263.509 189.224 263.509L188.979 263.835C186.693 264.978 191.264 263.101 191.101 264.325C191.59 263.59 191.427 263.101 190.693 262.693H191.59C191.754 262.611 191.754 262.448 191.835 262.284C196.569 262.774 200.324 258.53 198.936 254.123C199.099 254.531 199.426 254.857 199.671 255.265C199.507 254.939 199.915 254.857 199.834 254.612C201.221 255.51 201.221 254.612 200.405 254.449C200.813 254.041 200.976 254.041 201.221 254.041Z" fill="white"/>
<path d="M191.023 256.326L191.186 256.408C191.104 256.489 190.941 256.571 190.859 256.408L191.023 256.326Z" fill="white"/>
<path d="M195.511 251.511C195.348 251.675 195.348 251.838 195.348 251.919C195.348 252.409 195.184 252.572 194.695 252.572H194.286C193.878 252.491 193.634 252.654 193.389 252.98C193.225 253.225 192.981 253.47 192.654 253.307C192.409 253.225 192.246 253.144 192.001 253.225C191.838 253.307 191.756 253.144 191.756 252.98V252.572C191.756 252.083 191.675 252.001 191.185 252.001L190.94 251.919C190.362 251.509 189.687 251.255 188.981 251.185C188.002 251.103 186.941 250.858 186.288 249.961L186.125 249.879V250.124C186.288 250.614 186.696 250.858 187.186 251.103C187.675 251.348 188.247 251.348 188.737 251.43C189.389 251.511 190.042 251.593 190.614 252.083C190.369 252.164 190.287 252.246 190.042 252.164C189.471 251.838 188.737 251.756 188.084 251.675C187.131 251.608 186.233 251.203 185.553 250.532C185.472 250.45 185.472 250.369 185.309 250.45C185.39 250.858 185.635 251.103 185.88 251.348C186.451 251.919 187.186 252.083 187.92 252.246C188.573 252.409 189.145 252.572 189.716 252.899C189.471 253.225 188.981 253.062 188.737 253.389C189.308 253.552 189.798 253.552 190.042 254.286C189.634 253.878 189.308 253.715 188.818 253.797C188.655 253.878 188.41 253.96 188.328 254.123C188.328 254.286 188.492 254.368 188.655 254.45L188.818 254.613C188.573 254.776 188.573 254.776 188.492 255.102C188.737 255.021 189.063 255.184 188.981 255.347C188.818 255.674 189.063 255.755 189.226 256C189.389 256.408 189.798 256.408 190.124 256.245L190.532 256H190.94C191.103 256.082 190.94 256.245 190.859 256.327C190.859 256.49 190.94 256.49 191.022 256.408C191.43 256.164 191.593 255.511 191.267 255.184L191.103 255.102C190.931 255.131 190.755 255.097 190.605 255.008C190.456 254.918 190.343 254.778 190.287 254.613L190.369 254.368C190.45 254.286 190.614 254.368 190.614 254.45C190.777 254.858 191.103 254.776 191.348 254.858C191.43 254.858 191.593 254.858 191.593 255.021C191.593 255.674 192.001 256.245 192.246 256.816C192.409 257.061 192.491 257.306 192.491 257.633C192.491 258.041 192.083 258.286 191.756 258.041C191.499 257.866 191.278 257.645 191.103 257.388C191.022 257.306 191.022 257.143 190.777 257.061C190.859 257.633 191.267 258.041 191.593 258.367C191.838 258.53 192.083 258.612 192.409 258.53C192.736 258.367 192.817 258.122 192.899 257.796C192.899 257.388 192.736 256.98 192.573 256.572L192.083 255.347C192.001 255.021 192.001 254.776 192.246 254.531C192.409 254.613 192.246 254.776 192.328 254.858C192.573 254.858 192.573 254.368 192.899 254.613C193.062 254.45 193.144 254.368 193.307 254.613C193.307 254.694 193.389 254.613 193.47 254.613C193.634 254.205 193.797 254.368 194.123 254.613C193.96 254.041 194.45 254.286 194.613 254.041C194.45 253.96 194.286 254.041 194.205 253.878L193.715 253.307C193.552 253.225 193.634 252.98 193.797 252.899L194.368 252.817C194.613 252.817 194.939 252.899 195.103 252.654C195.674 252.246 195.592 251.919 195.511 251.511ZM191.185 253.633C190.859 253.878 190.614 253.797 190.369 253.389L190.94 253.225L191.267 253.307C191.43 253.552 191.267 253.633 191.185 253.633ZM193.96 253.878C193.96 254.041 193.715 254.041 193.634 254.041L193.062 253.797C193.307 253.633 193.47 253.633 193.715 253.715L193.96 253.878Z" fill="white"/>
</g>
<defs>
<clipPath id="clip0_108_65">
<rect width="384" height="512" fill="white"/>
</clipPath>
</defs>
</svg>
