<svg width="100" height="120" viewBox="0 0 100 120" fill="none" xmlns="http://www.w3.org/2000/svg">
<g clip-path="url(#clip0_108_65)">
<rect width="100" height="120" fill="#EAB300"/>
<path d="M46.8173 52.4093L48.5313 52.1645L48.4496 52.0013L48.2048 51.9196C48.4496 51.6748 50.082 52.2461 49.6739 51.838L49.7555 51.6748C50.3268 51.6748 50.8165 51.838 51.2246 52.2461C51.3063 52.0829 51.0614 52.0829 51.0614 51.9196C51.3879 51.838 52.857 53.2255 52.3673 52.2461C52.9386 52.4093 53.3467 52.7358 53.7548 53.1439C53.918 52.8991 53.6732 52.8174 53.5915 52.6542C54.2445 52.6542 54.1629 53.3888 54.6526 53.552C54.7342 53.3888 54.571 53.3071 54.571 53.1439C56.4482 53.7968 54.4077 57.7145 53.4283 58.7755C54.979 56.9799 53.3467 53.3888 52.9386 55.9189C52.9386 56.0005 52.7754 55.4292 51.5511 54.9395C50.7349 54.6946 50.6533 55.3476 49.6739 55.3476C47.8783 55.3476 45.1849 53.3071 45.6746 53.3071C45.3482 52.9807 46.9805 52.7358 47.0621 52.5726C46.9805 52.491 46.8173 52.6542 46.8173 52.4093ZM50.7349 59.3468C51.3063 59.5101 51.3879 59.4285 51.3879 58.9388C51.796 59.1836 51.8776 59.1836 51.9592 58.7755L52.4489 59.2652C52.5305 59.3468 52.7754 59.5917 52.3673 59.5917L52.2857 59.6733C52.3673 60.163 52.0408 59.8365 51.8776 59.8365C51.796 59.9998 51.8776 60.2446 51.7143 60.3262C51.6327 60.0814 51.4695 59.9182 51.143 60.0814C51.0614 60.163 50.9798 59.9998 50.9798 59.9182L50.7349 59.3468ZM41.5938 57.7961C41.757 57.7961 41.9202 57.8777 42.0018 57.6329C42.0018 57.4696 42.2467 57.4696 42.3283 57.5513C42.5732 57.7145 42.6548 57.8777 42.5732 58.1226C42.5732 58.3674 42.4099 58.2042 42.2467 58.2042C42.0018 58.1226 41.6754 58.2858 41.5938 57.7961Z" fill="white"/>
<path d="M43.5534 56.6536L43.3085 57.3065C43.2504 57.546 43.1388 57.7692 42.982 57.9594C42.6556 58.5308 41.921 58.694 41.5129 58.2859C41.4313 58.2043 41.4313 58.0411 41.2681 58.0411C41.1048 58.1227 41.1048 58.2859 41.0232 58.4491C41.0232 58.7756 41.1048 58.9388 41.3497 59.1021C41.6762 59.3469 42.0026 59.3469 42.3291 59.2653L42.4107 59.3469C42.0842 59.5918 41.7578 59.5918 41.3497 59.5102C40.7784 59.2653 40.6151 58.7756 40.6967 58.2043C40.3703 58.3675 40.3703 58.694 40.207 58.9388V59.2653C40.4519 59.5102 40.4519 59.8366 40.7784 60.0815C41.0232 60.2447 41.3497 60.3263 41.7578 60.3263C41.3497 60.7344 41.0232 60.4896 40.6967 60.3263C40.86 60.816 41.1865 60.9793 41.7578 60.8977C42.4923 60.816 42.7372 60.2447 42.982 59.6734C43.3901 58.4491 43.7982 57.3065 44.696 56.4087C43.8798 55.919 43.8798 55.919 43.5534 56.6536Z" fill="white"/>
<path d="M59.2213 58.0411C59.3845 58.1227 59.5477 57.8779 59.7926 58.0411C59.711 57.633 59.5477 57.3882 59.1397 57.3882C58.9764 57.3882 59.1397 57.3065 59.1397 57.3065C59.1397 56.8984 59.3029 56.7352 58.65 56.8168C58.5683 56.9801 58.5683 57.1433 58.4051 57.2249C58.3235 57.0617 58.4867 56.8984 58.5683 56.7352L58.4867 56.2455C57.9154 56.3271 57.9154 56.7352 57.997 57.3065C57.1808 56.4904 56.1198 56.0007 55.875 54.7764C55.6301 55.1845 55.7933 57.5514 55.3036 57.7962C55.222 57.7962 55.3036 57.5514 55.1404 57.5514C54.9772 58.2043 55.3036 59.1837 54.5691 58.7756C54.6507 59.4286 54.4875 59.9183 53.9977 60.3264C53.8345 60.3264 53.8345 60.0815 53.8345 59.9999H53.7529C53.6713 60.7345 53.3448 61.3058 52.7735 61.7139C52.5286 61.5506 52.6919 61.3874 52.6103 61.1426L52.5286 61.0609C50.733 64.6521 47.8764 62.5301 47.958 61.0609C46.897 60.8977 45.3463 59.2654 46.3257 56.8984C45.836 56.7352 44.1221 56.7352 44.3669 57.7962C43.5507 58.7757 43.4691 62.0404 44.4485 63.0198L44.6118 63.1014C45.4279 62.2852 44.8566 64.6521 45.9992 64.4073C45.836 64.0808 45.9176 63.9992 46.2441 64.0808C48.4478 65.6315 48.3661 64.3256 47.8764 66.2028C47.3867 65.2234 46.897 64.897 46.2441 65.3051C46.7338 65.5499 46.9786 65.958 47.0603 66.5293C46.9786 66.5293 45.6728 65.0602 45.3463 66.0396C45.7544 66.4477 46.3257 66.4477 46.6522 66.8558C45.4279 66.7742 45.0198 67.1823 45.3463 68.0801C45.5095 67.3455 46.8154 67.5087 47.2235 67.5087L46.9786 67.8352C44.6934 68.9778 49.2639 67.1006 49.1007 68.3249C49.5904 67.5903 49.4272 67.1006 48.6926 66.6926H49.5904C49.7536 66.6109 49.7536 66.4477 49.8353 66.2845C54.5691 66.7742 58.3235 62.5301 56.936 58.1227C57.0992 58.5308 57.4257 58.8573 57.6705 59.2654C57.5073 58.9389 57.9154 58.8573 57.8338 58.6124C59.2213 59.5102 59.2213 58.6124 58.4051 58.4492C58.8132 58.0411 58.9764 58.0411 59.2213 58.0411Z" fill="white"/>
<path d="M49.0226 60.3262L49.1859 60.4078C49.1043 60.4894 48.941 60.571 48.8594 60.4078L49.0226 60.3262Z" fill="white"/>
<path d="M53.5108 55.5113C53.3476 55.6745 53.3476 55.8377 53.3476 55.9194C53.3476 56.4091 53.1843 56.5723 52.6946 56.5723H52.2865C51.8785 56.4907 51.6336 56.6539 51.3888 56.9804C51.2255 57.2252 50.9807 57.4701 50.6542 57.3069C50.4093 57.2252 50.2461 57.1436 50.0013 57.2252C49.838 57.3069 49.7564 57.1436 49.7564 56.9804V56.5723C49.7564 56.0826 49.6748 56.001 49.1851 56.001L48.9402 55.9194C48.3622 55.5085 47.6871 55.2553 46.9814 55.1848C46.002 55.1032 44.9409 54.8583 44.288 53.9605L44.1248 53.8789V54.1238C44.288 54.6135 44.6961 54.8583 45.1858 55.1032C45.6755 55.348 46.2468 55.348 46.7366 55.4297C47.3895 55.5113 48.0424 55.5929 48.6138 56.0826C48.3689 56.1642 48.2873 56.2458 48.0424 56.1642C47.4711 55.8377 46.7366 55.7561 46.0836 55.6745C45.1308 55.608 44.2333 55.2026 43.5534 54.5319C43.4718 54.4502 43.4718 54.3686 43.3086 54.4502C43.3902 54.8583 43.6351 55.1032 43.8799 55.348C44.4512 55.9194 45.1858 56.0826 45.9204 56.2458C46.5733 56.4091 47.1446 56.5723 47.716 56.8988C47.4711 57.2252 46.9814 57.062 46.7366 57.3885C47.3079 57.5517 47.7976 57.5517 48.0424 58.2863C47.6343 57.8782 47.3079 57.7149 46.8182 57.7966C46.6549 57.8782 46.4101 57.9598 46.3285 58.123C46.3285 58.2863 46.4917 58.3679 46.6549 58.4495L46.8182 58.6127C46.5733 58.776 46.5733 58.776 46.4917 59.1024C46.7366 59.0208 47.063 59.1841 46.9814 59.3473C46.8182 59.6738 47.063 59.7554 47.2263 60.0002C47.3895 60.4083 47.7976 60.4083 48.1241 60.2451L48.5321 60.0002H48.9402C49.1035 60.0819 48.9402 60.2451 48.8586 60.3267C48.8586 60.4899 48.9402 60.4899 49.0218 60.4083C49.4299 60.1635 49.5932 59.5105 49.2667 59.1841L49.1035 59.1024C48.9314 59.131 48.7549 59.0974 48.6053 59.0077C48.4558 58.918 48.3431 58.778 48.2873 58.6127L48.3689 58.3679C48.4505 58.2863 48.6138 58.3679 48.6138 58.4495C48.777 58.8576 49.1035 58.776 49.3483 58.8576C49.4299 58.8576 49.5932 58.8576 49.5932 59.0208C49.5932 59.6738 50.0013 60.2451 50.2461 60.8164C50.4093 61.0613 50.491 61.3061 50.491 61.6326C50.491 62.0407 50.0829 62.2855 49.7564 62.0407C49.4993 61.8664 49.2777 61.6448 49.1035 61.3877C49.0218 61.3061 49.0218 61.1429 48.777 61.0613C48.8586 61.6326 49.2667 62.0407 49.5932 62.3672C49.838 62.5304 50.0829 62.612 50.4093 62.5304C50.7358 62.3672 50.8174 62.1223 50.8991 61.7958C50.8991 61.3877 50.7358 60.9797 50.5726 60.5716L50.0829 59.3473C50.0013 59.0208 50.0013 58.776 50.2461 58.5311C50.4093 58.6127 50.2461 58.776 50.3277 58.8576C50.5726 58.8576 50.5726 58.3679 50.8991 58.6127C51.0623 58.4495 51.1439 58.3679 51.3071 58.6127C51.3071 58.6944 51.3888 58.6127 51.4704 58.6127C51.6336 58.2047 51.7968 58.3679 52.1233 58.6127C51.9601 58.0414 52.4498 58.2863 52.613 58.0414C52.4498 57.9598 52.2865 58.0414 52.2049 57.8782L51.7152 57.3069C51.552 57.2252 51.6336 56.9804 51.7968 56.8988L52.3682 56.8172C52.613 56.8172 52.9395 56.8988 53.1027 56.6539C53.674 56.2458 53.5924 55.9194 53.5108 55.5113ZM49.1851 57.6333C48.8586 57.8782 48.6138 57.7966 48.3689 57.3885L48.9402 57.2252L49.2667 57.3069C49.4299 57.5517 49.2667 57.6333 49.1851 57.6333ZM51.9601 57.8782C51.9601 58.0414 51.7152 58.0414 51.6336 58.0414L51.0623 57.7966C51.3071 57.6333 51.4704 57.6333 51.7152 57.7149L51.9601 57.8782Z" fill="white"/>
</g>
<defs>
<clipPath id="clip0_108_65">
<rect width="100" height="120" fill="white"/>
</clipPath>
</defs>
</svg>
