<svg width="384" height="512" viewBox="0 0 384 512" fill="none" xmlns="http://www.w3.org/2000/svg">
<g clip-path="url(#clip0_108_72)">
<rect width="384" height="512" fill="#F49D35"/>
<path d="M197.714 254.504C197.948 252.911 196.739 252.048 195.07 251.476L195.614 249.311L194.302 248.983L193.777 251.092C193.43 251.008 193.073 250.923 192.717 250.848L193.242 248.729L191.93 248.401L191.395 250.558C191.105 250.492 190.823 250.426 190.552 250.361V250.351L188.733 249.901L188.386 251.308C188.386 251.308 189.361 251.533 189.342 251.542C189.877 251.673 189.97 252.029 189.952 252.311L189.333 254.776C189.37 254.786 189.417 254.795 189.473 254.823C189.427 254.814 189.38 254.804 189.333 254.786L188.47 258.236C188.405 258.395 188.236 258.639 187.87 258.545C187.88 258.564 186.914 258.311 186.914 258.311L186.258 259.82L187.973 260.251C188.292 260.336 188.602 260.411 188.911 260.495L188.367 262.679L189.68 263.008L190.223 260.842C190.58 260.936 190.936 261.029 191.273 261.114L190.739 263.27L192.052 263.598L192.595 261.414C194.845 261.836 196.533 261.667 197.236 259.633C197.808 258.001 197.208 257.054 196.027 256.436C196.898 256.239 197.545 255.667 197.714 254.504ZM194.705 258.723C194.302 260.354 191.545 259.473 190.655 259.248L191.377 256.351C192.267 256.576 195.136 257.017 194.705 258.723ZM195.117 254.476C194.742 255.967 192.455 255.208 191.714 255.02L192.37 252.395C193.111 252.583 195.502 252.929 195.117 254.476Z" fill="white"/>
</g>
<defs>
<clipPath id="clip0_108_72">
<rect width="384" height="512" fill="white"/>
</clipPath>
</defs>
</svg>
