<svg width="384" height="512" viewBox="0 0 384 512" fill="none" xmlns="http://www.w3.org/2000/svg">
<g clip-path="url(#clip0_108_89)">
<rect width="384" height="512" fill="#FE5D86"/>
<path d="M185.625 250.779C185.625 250.349 185.979 250 186.415 250H192.107C195.464 250 196.648 250.396 197.464 251.201C197.716 251.457 197.912 251.763 198.039 252.1C198.165 252.437 198.22 252.796 198.199 253.155C198.199 254.543 197.451 255.485 195.434 255.898C197.382 256.239 198.371 257.031 198.371 258.624C198.39 258.995 198.331 259.366 198.2 259.714C198.068 260.062 197.866 260.379 197.606 260.646C196.808 261.433 195.503 262 191.99 262H186.415C186.207 262.001 186.007 261.92 185.859 261.774C185.711 261.628 185.627 261.429 185.625 261.221V250.779ZM189.946 255.251C189.946 254.963 190.182 254.731 190.473 254.731H192.305C193.351 254.731 194.133 254.68 194.495 254.305C194.58 254.216 194.645 254.111 194.686 253.996C194.728 253.881 194.746 253.759 194.738 253.637C194.76 253.397 194.679 253.158 194.513 252.98C194.145 252.619 193.364 252.555 192.305 252.555H188.895V259.479H192.27C193.419 259.479 194.27 259.394 194.668 258.998C194.851 258.81 194.945 258.555 194.927 258.295C194.944 258.03 194.85 257.77 194.668 257.575C194.266 257.18 193.415 257.15 192.27 257.15H190.485C190.414 257.151 190.342 257.139 190.276 257.112C190.209 257.086 190.149 257.046 190.098 256.996C190.048 256.946 190.008 256.886 189.982 256.821C189.955 256.755 189.943 256.684 189.945 256.614L189.946 255.251Z" fill="white"/>
</g>
<defs>
<clipPath id="clip0_108_89">
<rect width="384" height="512" fill="white"/>
</clipPath>
</defs>
</svg>
