<svg width="100" height="120" viewBox="0 0 100 120" fill="none" xmlns="http://www.w3.org/2000/svg">
<g clip-path="url(#clip0_108_72)">
<rect width="100" height="120" fill="#F49D35"/>
<path d="M55.7141 58.5045C55.9485 56.9107 54.7391 56.0482 53.0703 55.4764L53.6141 53.3107L52.3016 52.9826L51.7766 55.092C51.4297 55.0076 51.0734 54.9232 50.7172 54.8482L51.2422 52.7295L49.9297 52.4014L49.3953 54.5576C49.1047 54.492 48.8234 54.4264 48.5516 54.3607V54.3514L46.7328 53.9014L46.3859 55.3076C46.3859 55.3076 47.3609 55.5326 47.3422 55.542C47.8766 55.6732 47.9703 56.0295 47.9516 56.3107L47.3328 58.7764C47.3703 58.7857 47.4172 58.7951 47.4734 58.8232C47.4266 58.8139 47.3797 58.8045 47.3328 58.7857L46.4703 62.2357C46.4047 62.3951 46.2359 62.6389 45.8703 62.5451C45.8797 62.5639 44.9141 62.3107 44.9141 62.3107L44.2578 63.8201L45.9734 64.2514C46.2922 64.3357 46.6016 64.4107 46.9109 64.4951L46.3672 66.6795L47.6797 67.0076L48.2234 64.842C48.5797 64.9357 48.9359 65.0295 49.2734 65.1139L48.7391 67.2701L50.0516 67.5982L50.5953 65.4139C52.8453 65.8357 54.5328 65.667 55.2359 63.6326C55.8078 62.0014 55.2078 61.0545 54.0266 60.4357C54.8985 60.2389 55.5453 59.667 55.7141 58.5045ZM52.7047 62.7232C52.3016 64.3545 49.5453 63.4732 48.6547 63.2482L49.3766 60.3514C50.2672 60.5764 53.1359 61.017 52.7047 62.7232ZM53.1172 58.4764C52.7422 59.967 50.4547 59.2076 49.7141 59.0201L50.3703 56.3951C51.111 56.5826 53.5016 56.9295 53.1172 58.4764Z" fill="white"/>
</g>
<defs>
<clipPath id="clip0_108_72">
<rect width="100" height="120" fill="white"/>
</clipPath>
</defs>
</svg>
