<svg width="100" height="120" viewBox="0 0 100 120" fill="none" xmlns="http://www.w3.org/2000/svg">
<g clip-path="url(#clip0_108_92)">
<rect width="100" height="120" fill="black"/>
<path d="M58.772 58.1996C58.6534 57.6234 58.4781 57.0604 58.2485 56.5188C58.0223 55.9854 57.7456 55.4748 57.422 54.9941C57.1012 54.5192 56.7353 54.0764 56.3293 53.6718C55.9245 53.2658 55.4815 52.8999 55.0063 52.5791C54.5249 52.2572 54.0147 51.9805 53.4823 51.7526C52.3813 51.2856 51.1975 51.0449 50.0015 51.0449C48.8056 51.0449 47.6218 51.2856 46.5208 51.7526C45.4561 52.2017 44.4891 52.8538 43.6738 53.6726C43.2678 54.0769 42.9019 54.5194 42.581 54.9941C42.2591 55.4757 41.9824 55.9862 41.7545 56.5188C41.2875 57.6199 41.0469 58.8036 41.0469 59.9996C41.0469 61.1956 41.2875 62.3793 41.7545 63.4803C41.975 64.0128 42.26 64.5176 42.581 65.0043C42.9018 65.4795 43.2678 65.9225 43.6738 66.3273C44.0785 66.7334 44.5216 67.0993 44.9968 67.4201C45.4738 67.7411 45.9883 68.0171 46.5208 68.2466C47.6218 68.7136 48.8056 68.9542 50.0015 68.9542C51.1975 68.9542 52.3813 68.7136 53.4823 68.2466C54.0148 68.0261 54.5195 67.7411 55.0063 67.4201C55.4815 67.0993 55.9245 66.7334 56.3293 66.3273C56.7353 65.9226 57.1013 65.4795 57.422 65.0043C57.743 64.5273 58.019 64.0128 58.2485 63.4803C58.9551 61.814 59.1377 59.9722 58.772 58.1996ZM50.0098 67.8333C45.6845 67.8333 42.1858 64.3248 42.1858 60.0086C42.1858 55.6923 45.6943 52.1838 50.0098 52.1838C54.326 52.1838 57.8345 55.6923 57.8345 60.0086C57.8345 64.3248 54.3268 67.8333 50.0098 67.8333Z" fill="white"/>
<path d="M50.1462 67.1538H50.3577C50.3944 67.1538 50.4304 67.1538 50.4672 67.1441H50.4769C50.5137 67.1441 50.5407 67.1441 50.5774 67.1351H50.6052C50.6329 67.1351 50.6607 67.1351 50.6877 67.1261H50.7154C50.7432 67.1261 50.7709 67.1171 50.8077 67.1171H50.8257C50.8624 67.1171 50.8992 67.1073 50.9359 67.1073C50.9727 67.1073 51.0004 67.0983 51.0372 67.0893H51.0552C51.0829 67.0893 51.1107 67.0803 51.1377 67.0803H51.1564C51.1932 67.0706 51.2209 67.0706 51.2577 67.0616C51.3304 67.0526 51.4039 67.0338 51.4684 67.0158H51.4872C51.5142 67.0068 51.5509 67.0068 51.5787 66.9971H51.5877C51.6612 66.9791 51.7257 66.9603 51.7992 66.9423C51.1113 66.9642 50.4234 66.8994 49.7517 66.7496C48.7407 66.5291 47.7769 66.1346 46.9594 65.4543C46.315 64.918 45.7977 64.2451 45.4452 63.4844C45.0926 62.7236 44.9136 61.894 44.921 61.0556C44.9276 59.8048 45.3726 58.5959 46.1787 57.6393C47.2257 56.3996 48.7137 55.7471 50.2377 55.7103H50.4492V54.4893H50.2107C49.7471 54.4978 49.2855 54.5531 48.8329 54.6543C48.3776 54.7573 47.9344 54.9082 47.5107 55.1043C47.0787 55.3068 46.6744 55.5543 46.2979 55.8393C45.9089 56.1351 45.5546 56.474 45.2419 56.8496C44.9476 57.1972 44.692 57.576 44.48 57.9791C44.2701 58.3677 44.1008 58.7769 43.9745 59.2001C43.8506 59.6168 43.7677 60.0446 43.727 60.4773L43.6992 60.8808V61.1193C43.7082 61.5881 43.7637 62.0471 43.8642 62.4971C43.9655 62.9568 44.1215 63.3971 44.3142 63.8201C44.5445 64.3248 44.9577 65.0688 45.5727 65.6291C46.8284 66.619 48.3814 67.1562 49.9804 67.1538H50.1462Z" fill="white"/>
<path d="M52.1475 65.9783C51.6945 65.9621 51.2433 65.913 50.7975 65.8313C48.906 65.4916 47.28 64.3343 46.6837 62.5898C45.9577 60.4681 47.0692 58.1723 49.1812 57.4748C49.5837 57.3399 50.0055 57.2715 50.43 57.2723C50.9722 57.2723 51.5137 57.3826 52.0102 57.5843L52.524 56.4916C52.3695 56.4296 52.2134 56.3716 52.056 56.3176C51.5298 56.1524 50.9814 56.0687 50.43 56.0693C49.8774 56.0704 49.3287 56.1603 48.8047 56.3356C48.136 56.5561 47.5201 56.9126 46.9957 57.3826C46.7428 57.6078 46.5122 57.857 46.3072 58.1266C46.1045 58.3931 45.9291 58.6792 45.7837 58.9808C45.4876 59.5871 45.3128 60.2455 45.2692 60.9188C45.2235 61.6163 45.315 62.3138 45.5445 62.9753C45.7783 63.6558 46.1541 64.2788 46.647 64.8031C47.097 65.2898 47.6205 65.6573 48.2535 65.9971C48.915 66.3458 49.7325 66.5296 50.586 66.6496C51.1372 66.7223 51.8722 66.7411 52.3035 66.7411C52.68 66.6031 52.836 66.5386 53.0385 66.4561C53.2132 66.3736 53.3872 66.2911 53.562 66.1898C53.7367 66.0886 53.7645 66.0698 54.0577 65.8778C54.0838 65.8616 54.1084 65.843 54.1312 65.8223C53.121 65.9971 52.8637 65.9873 52.1475 65.9783Z" fill="white"/>
<path d="M54.4097 64.6104C54.1247 64.6284 53.7205 64.6553 53.2615 64.6553C52.444 64.6553 51.4427 64.5827 50.5892 64.2977C49.2662 63.8574 48.0175 62.7279 48.0175 61.3314C48.0172 61.0009 48.082 60.6735 48.2084 60.3681C48.3347 60.0627 48.5201 59.7852 48.7538 59.5515C48.9875 59.3178 49.265 59.1324 49.5704 59.0061C49.8759 58.8797 50.2032 58.8149 50.5337 58.8152C51.4795 58.8152 52.297 59.3387 52.729 60.1007L53.8217 59.5592C53.6504 59.2366 53.4303 58.9424 53.1692 58.6869C52.8233 58.3404 52.4124 58.0655 51.9601 57.8779C51.5078 57.6903 51.023 57.5938 50.5333 57.5938C50.0437 57.5938 49.5589 57.6903 49.1066 57.8779C48.6543 58.0655 48.2434 58.3404 47.8975 58.6869C47.551 59.0328 47.2762 59.4436 47.0887 59.8959C46.9012 60.3481 46.8047 60.8329 46.8047 61.3224C46.8072 61.8355 46.917 62.3424 47.1272 62.8104C47.3192 63.2327 47.5862 63.6278 47.926 63.9953C48.523 64.6373 49.3397 65.1519 50.2127 65.4459C51.0482 65.7212 52.279 65.8224 53.473 65.7399C53.803 65.7122 54.0512 65.6843 54.4735 65.5928C54.8809 65.2712 55.2508 64.9048 55.576 64.5002C55.291 64.5279 54.7675 64.5827 54.4097 64.6104Z" fill="white"/>
</g>
<defs>
<clipPath id="clip0_108_92">
<rect width="100" height="120" fill="white"/>
</clipPath>
</defs>
</svg>
