<svg width="384" height="512" viewBox="0 0 384 512" fill="none" xmlns="http://www.w3.org/2000/svg">
<g clip-path="url(#clip0_108_92)">
<rect width="384" height="512" fill="black"/>
<path d="M200.772 254.2C200.653 253.623 200.478 253.06 200.248 252.519C200.022 251.985 199.746 251.475 199.422 250.994C199.101 250.519 198.735 250.076 198.329 249.672C197.924 249.266 197.481 248.9 197.006 248.579C196.525 248.257 196.015 247.981 195.482 247.753C194.381 247.286 193.197 247.045 192.001 247.045C190.806 247.045 189.622 247.286 188.521 247.753C187.456 248.202 186.489 248.854 185.674 249.673C185.268 250.077 184.902 250.519 184.581 250.994C184.259 251.476 183.982 251.986 183.755 252.519C183.288 253.62 183.047 254.804 183.047 256C183.047 257.196 183.288 258.379 183.755 259.48C183.975 260.013 184.26 260.518 184.581 261.004C184.902 261.48 185.268 261.923 185.674 262.327C186.079 262.733 186.522 263.099 186.997 263.42C187.474 263.741 187.988 264.017 188.521 264.247C189.622 264.714 190.806 264.954 192.001 264.954C193.197 264.954 194.381 264.714 195.482 264.247C196.015 264.026 196.519 263.741 197.006 263.42C197.481 263.099 197.924 262.733 198.329 262.327C198.735 261.923 199.101 261.48 199.422 261.004C199.743 260.527 200.019 260.013 200.248 259.48C200.955 257.814 201.138 255.972 200.772 254.2ZM192.01 263.833C187.684 263.833 184.186 260.325 184.186 256.009C184.186 251.692 187.694 248.184 192.01 248.184C196.326 248.184 199.834 251.692 199.834 256.009C199.834 260.325 196.327 263.833 192.01 263.833Z" fill="white"/>
<path d="M192.146 263.154H192.358C192.394 263.154 192.43 263.154 192.467 263.144H192.477C192.514 263.144 192.541 263.144 192.577 263.135H192.605C192.633 263.135 192.661 263.135 192.688 263.126H192.715C192.743 263.126 192.771 263.117 192.808 263.117H192.826C192.862 263.117 192.899 263.107 192.936 263.107C192.973 263.107 193 263.098 193.037 263.089H193.055C193.083 263.089 193.111 263.08 193.138 263.08H193.156C193.193 263.071 193.221 263.071 193.258 263.062C193.33 263.053 193.404 263.034 193.468 263.016H193.487C193.514 263.007 193.551 263.007 193.579 262.997H193.588C193.661 262.979 193.726 262.96 193.799 262.942C193.111 262.964 192.423 262.899 191.752 262.75C190.741 262.529 189.777 262.135 188.959 261.454C188.315 260.918 187.798 260.245 187.445 259.484C187.093 258.724 186.914 257.894 186.921 257.056C186.928 255.805 187.373 254.596 188.179 253.639C189.226 252.4 190.714 251.747 192.238 251.71H192.449V250.489H192.211C191.747 250.498 191.286 250.553 190.833 250.654C190.378 250.757 189.934 250.908 189.511 251.104C189.079 251.307 188.674 251.554 188.298 251.839C187.909 252.135 187.555 252.474 187.242 252.85C186.948 253.197 186.692 253.576 186.48 253.979C186.27 254.368 186.101 254.777 185.974 255.2C185.851 255.617 185.768 256.045 185.727 256.477L185.699 256.881V257.119C185.708 257.588 185.764 258.047 185.864 258.497C185.965 258.957 186.121 259.397 186.314 259.82C186.544 260.325 186.958 261.069 187.573 261.629C188.828 262.619 190.381 263.156 191.98 263.154H192.146Z" fill="white"/>
<path d="M194.148 261.978C193.695 261.962 193.243 261.913 192.798 261.831C190.906 261.492 189.28 260.334 188.684 258.59C187.958 256.468 189.069 254.172 191.181 253.475C191.584 253.34 192.006 253.272 192.43 253.272C192.972 253.272 193.514 253.383 194.01 253.584L194.524 252.492C194.37 252.43 194.213 252.372 194.056 252.318C193.53 252.152 192.981 252.069 192.43 252.069C191.877 252.07 191.329 252.16 190.805 252.336C190.136 252.556 189.52 252.913 188.996 253.383C188.743 253.608 188.512 253.857 188.307 254.127C188.105 254.393 187.929 254.679 187.784 254.981C187.488 255.587 187.313 256.246 187.269 256.919C187.224 257.616 187.315 258.314 187.545 258.975C187.778 259.656 188.154 260.279 188.647 260.803C189.097 261.29 189.621 261.657 190.254 261.997C190.915 262.346 191.733 262.53 192.586 262.65C193.137 262.722 193.872 262.741 194.304 262.741C194.68 262.603 194.836 262.539 195.039 262.456C195.213 262.374 195.387 262.291 195.562 262.19C195.737 262.089 195.765 262.07 196.058 261.878C196.084 261.862 196.108 261.843 196.131 261.822C195.121 261.997 194.864 261.987 194.148 261.978Z" fill="white"/>
<path d="M196.41 260.61C196.125 260.628 195.72 260.655 195.261 260.655C194.444 260.655 193.443 260.583 192.589 260.298C191.266 259.857 190.017 258.728 190.017 257.331C190.017 257.001 190.082 256.673 190.208 256.368C190.335 256.063 190.52 255.785 190.754 255.551C190.987 255.318 191.265 255.132 191.57 255.006C191.876 254.88 192.203 254.815 192.534 254.815C193.479 254.815 194.297 255.339 194.729 256.101L195.822 255.559C195.65 255.237 195.43 254.942 195.169 254.687C194.823 254.34 194.412 254.065 193.96 253.878C193.508 253.69 193.023 253.594 192.533 253.594C192.044 253.594 191.559 253.69 191.107 253.878C190.654 254.065 190.243 254.34 189.897 254.687C189.551 255.033 189.276 255.444 189.089 255.896C188.901 256.348 188.805 256.833 188.805 257.322C188.807 257.835 188.917 258.342 189.127 258.81C189.319 259.233 189.586 259.628 189.926 259.995C190.523 260.637 191.34 261.152 192.213 261.446C193.048 261.721 194.279 261.822 195.473 261.74C195.803 261.712 196.051 261.684 196.473 261.593C196.881 261.271 197.251 260.905 197.576 260.5C197.291 260.528 196.767 260.583 196.41 260.61Z" fill="white"/>
</g>
<defs>
<clipPath id="clip0_108_92">
<rect width="384" height="512" fill="white"/>
</clipPath>
</defs>
</svg>
