<svg width="384" height="512" viewBox="0 0 384 512" fill="none" xmlns="http://www.w3.org/2000/svg">
<g clip-path="url(#clip0_108_101)">
<rect width="384" height="512" fill="#13BF99"/>
<path d="M192 262.75H188.598L190.302 259.782H193.698L195.402 262.75H192ZM190.303 252.217L188.598 249.25H195.402L193.698 252.217H190.303ZM197.802 259.371L196.097 262.34L194.399 259.372L196.097 256.403H199.5L197.802 259.371ZM186.198 252.622L187.902 249.654L189.6 252.622L187.902 255.589H184.5L186.198 252.622ZM189.599 259.372L187.902 262.34L186.198 259.372L184.5 256.403H187.902L189.6 259.371L189.599 259.372ZM197.802 252.622L199.5 255.59H196.098L194.399 252.622L196.097 249.654L197.802 252.622Z" fill="white"/>
</g>
<defs>
<clipPath id="clip0_108_101">
<rect width="384" height="512" fill="white"/>
</clipPath>
</defs>
</svg>
