<svg width="384" height="512" viewBox="0 0 384 512" fill="none" xmlns="http://www.w3.org/2000/svg">
<g clip-path="url(#clip0_108_104)">
<rect width="384" height="512" fill="#2573C2"/>
<path d="M199.834 252.842C199.818 252.573 199.739 252.312 199.603 252.079C199.483 251.839 199.27 251.652 199.02 251.556C198.765 251.429 198.484 251.367 198.199 251.376H187.548L186.785 253.663H196.435L194.911 258.338H185.263L184.5 260.625H195.202C195.52 260.616 195.836 260.555 196.135 260.445C196.435 260.275 196.778 260.102 197.069 259.862C197.352 259.639 197.609 259.383 197.832 259.099C198.017 258.821 198.174 258.526 198.302 258.218L199.716 253.773C199.845 253.481 199.885 253.157 199.834 252.842Z" fill="white"/>
<path d="M190.586 254.939H184.908L184.145 257.054H189.881L190.586 254.939Z" fill="white"/>
</g>
<defs>
<clipPath id="clip0_108_104">
<rect width="384" height="512" fill="white"/>
</clipPath>
</defs>
</svg>
