<svg width="384" height="512" viewBox="0 0 384 512" fill="none" xmlns="http://www.w3.org/2000/svg">
<g clip-path="url(#clip0_108_108)">
<rect width="384" height="512" fill="#7866D5"/>
<path d="M197.23 249.945C197.637 249.996 198.06 250.029 198.467 250.097C199.263 250.25 199.534 250.656 199.398 251.469C199.364 251.774 199.127 252.011 198.822 252.062C198.636 252.096 198.433 252.113 198.247 252.096C195.604 252.096 192.979 252.113 190.337 252.113C189.947 252.113 189.541 252.147 189.151 252.214C187.847 252.418 187.339 252.96 187.237 254.281C187.187 254.89 187.187 254.89 187.813 254.89H198.314C198.416 254.89 198.518 254.89 198.619 254.89C198.788 254.89 198.941 254.941 199.093 255.026C199.568 255.331 199.449 255.822 199.432 256.262C199.415 256.618 199.195 256.821 198.822 256.889C198.67 256.923 198.518 256.923 198.348 256.923C194.757 256.923 191.167 256.923 187.576 256.923C187.187 256.923 187.187 256.923 187.22 257.312C187.237 257.668 187.271 258.024 187.356 258.379C187.525 259.023 187.915 259.43 188.575 259.616C189.287 259.819 190.032 259.853 190.76 259.87C193.318 259.87 195.892 259.87 198.467 259.87C198.788 259.87 199.093 259.904 199.297 260.209C199.618 260.717 199.449 261.377 198.941 261.699C198.873 261.75 198.805 261.784 198.721 261.801C198.162 261.987 197.586 262.021 196.993 262.038C194.571 262.089 192.166 262.089 189.761 262.038C189.016 262.021 188.271 261.936 187.542 261.784C185.832 261.428 184.968 260.547 184.68 258.82C184.612 258.43 184.578 258.024 184.527 257.617V254.467C184.561 254.162 184.595 253.84 184.629 253.535C184.849 251.588 185.73 250.622 187.644 250.182C188.321 250.029 189.033 249.996 189.71 249.928L197.23 249.945Z" fill="white"/>
<path d="M193.369 262.377C192.149 262.377 190.947 262.36 189.744 262.343C188.982 262.326 188.22 262.241 187.475 262.072C185.628 261.682 184.68 260.7 184.375 258.871C184.324 258.583 184.29 258.295 184.273 258.024C184.257 257.905 184.24 257.787 184.223 257.651V257.617V254.433L184.257 254.128C184.273 253.908 184.307 253.705 184.324 253.502C184.561 251.418 185.544 250.351 187.593 249.894C188.135 249.775 188.66 249.725 189.185 249.674C189.355 249.657 189.524 249.64 189.693 249.623H189.727H197.264H197.281C197.4 249.64 197.535 249.657 197.654 249.657C197.942 249.691 198.23 249.708 198.535 249.775C199.5 249.962 199.873 250.504 199.703 251.486C199.652 251.91 199.314 252.265 198.856 252.333C198.653 252.367 198.45 252.384 198.23 252.384C195.604 252.401 192.962 252.418 190.337 252.418C189.964 252.418 189.575 252.452 189.202 252.519C188.034 252.706 187.644 253.129 187.542 254.315C187.542 254.416 187.525 254.518 187.525 254.603C187.593 254.603 187.712 254.603 187.813 254.603H198.619C198.839 254.603 199.06 254.67 199.246 254.772C199.822 255.145 199.771 255.703 199.737 256.11C199.737 256.161 199.72 256.229 199.72 256.279C199.686 256.754 199.398 257.075 198.873 257.177C198.687 257.211 198.518 257.211 198.348 257.211H187.593C187.576 257.211 187.542 257.211 187.525 257.211C187.525 257.228 187.525 257.245 187.525 257.262V257.279C187.542 257.634 187.576 257.973 187.661 258.312C187.796 258.837 188.118 259.159 188.66 259.311C189.389 259.514 190.134 259.548 190.777 259.548C192.776 259.565 194.808 259.565 196.79 259.565H198.484C198.738 259.565 199.263 259.565 199.568 260.056C199.771 260.378 199.822 260.751 199.737 261.106C199.652 261.462 199.432 261.767 199.11 261.97C199.026 262.021 198.924 262.072 198.823 262.106C198.196 262.309 197.552 262.343 197.01 262.36C195.808 262.36 194.588 262.377 193.369 262.377ZM184.832 257.6C184.849 257.719 184.866 257.838 184.866 257.956C184.9 258.227 184.934 258.498 184.968 258.769C185.239 260.361 186.001 261.14 187.593 261.479C188.305 261.631 189.033 261.716 189.761 261.733C192.149 261.784 194.588 261.784 196.993 261.733C197.485 261.716 198.077 261.682 198.619 261.513C198.67 261.496 198.721 261.462 198.772 261.445C198.941 261.327 199.077 261.157 199.127 260.954C199.178 260.751 199.144 260.548 199.026 260.361C198.924 260.209 198.789 260.158 198.467 260.158H196.773C194.808 260.158 192.759 260.158 190.76 260.141C190.083 260.141 189.287 260.107 188.491 259.87C187.729 259.667 187.254 259.176 187.068 258.413C186.983 258.041 186.933 257.651 186.933 257.279V257.262C186.916 257.025 186.899 256.855 187.034 256.703C187.17 256.55 187.356 256.55 187.593 256.55H198.365C198.501 256.55 198.653 256.55 198.789 256.516C199.06 256.466 199.127 256.347 199.144 256.178C199.144 256.11 199.161 256.059 199.161 255.991C199.195 255.568 199.195 255.365 198.958 255.212C198.873 255.161 198.755 255.128 198.653 255.128H187.813C187.441 255.128 187.221 255.128 187.051 254.958C186.882 254.789 186.916 254.552 186.933 254.196C187.051 252.739 187.661 252.079 189.101 251.859C189.507 251.791 189.914 251.757 190.337 251.74C192.979 251.74 195.604 251.723 198.247 251.723C198.433 251.723 198.602 251.723 198.772 251.689C198.941 251.672 199.077 251.537 199.094 251.368C199.212 250.69 199.043 250.47 198.399 250.334C198.128 250.284 197.857 250.25 197.586 250.233C197.468 250.216 197.332 250.199 197.214 250.199H189.727C189.558 250.216 189.389 250.233 189.219 250.25C188.694 250.301 188.203 250.334 187.695 250.453C185.916 250.893 185.137 251.757 184.934 253.586C184.917 253.79 184.883 253.993 184.866 254.213L184.832 254.501V257.6Z" fill="white"/>
</g>
<defs>
<clipPath id="clip0_108_108">
<rect width="384" height="512" fill="white"/>
</clipPath>
</defs>
</svg>
