<svg width="384" height="512" viewBox="0 0 384 512" fill="none" xmlns="http://www.w3.org/2000/svg">
<g clip-path="url(#clip0_108_131)">
<rect width="384" height="512" fill="#202944"/>
<path d="M185 249V263H199V249H185ZM189.894 250.624H191.203V251.968H189.894V250.624ZM186.594 250.624H187.959V251.968H186.594V250.624ZM187.902 253.872V255.216H186.537V253.872H187.902ZM187.561 261.264H186.992V260.76H187.504V261.264H187.561ZM187.959 258.576H186.594V257.288H187.959V258.576ZM190.862 261.264H190.35V260.76H190.862V261.264ZM190.862 258.128H190.35V257.624H190.862V258.128ZM191.26 255.272H189.894V253.928H191.26V255.272ZM194.163 261.264H193.65V260.76H194.163V261.264ZM194.163 258.128H193.65V257.624H194.163V258.128ZM194.163 254.824H193.65V254.32H194.163V254.824ZM194.618 251.968H193.252V250.624H194.618V251.968ZM197.52 261.264H197.008V260.76H197.52V261.264ZM197.52 258.128H197.008V257.624H197.52V258.128ZM197.52 254.824H197.008V254.32H197.52V254.824ZM197.52 251.576H197.008V251.072H197.52V251.576Z" fill="white"/>
</g>
<defs>
<clipPath id="clip0_108_131">
<rect width="384" height="512" fill="white"/>
</clipPath>
</defs>
</svg>
