<svg width="100" height="120" viewBox="0 0 100 120" fill="none" xmlns="http://www.w3.org/2000/svg">
<g clip-path="url(#clip0_108_134)">
<rect width="100" height="120" fill="#13B5EC"/>
<path fill-rule="evenodd" clip-rule="evenodd" d="M50.9 58.175L53.6 56.6V59.75L50.9 58.175ZM53.6 64.925L50 67.025L46.4 64.925V61.25L50 63.35L53.6 61.25V64.925ZM46.4 56.6L49.1 58.175L46.4 59.75V56.6ZM50.45 58.925L53.15 60.5L50.45 62.075V58.925ZM49.55 62.075L46.85 60.5L49.55 58.925V62.075ZM53.15 55.85L50 57.65L46.85 55.85L50 53.975L53.15 55.85ZM45.5 55.55V65.375L50 67.925L54.5 65.375V55.55L50 53L45.5 55.55Z" fill="white"/>
</g>
<defs>
<clipPath id="clip0_108_134">
<rect width="100" height="120" fill="white"/>
</clipPath>
</defs>
</svg>
