<svg width="100" height="120" viewBox="0 0 100 120" fill="none" xmlns="http://www.w3.org/2000/svg">
<g clip-path="url(#clip0_108_137)">
<rect width="100" height="120" fill="#127E9A"/>
<path d="M42.4187 54.0132C42.1764 54.033 41.9899 54.0727 42.0004 54.1024C42.0971 54.3416 42.6946 55.7499 42.7028 55.7584C42.7109 55.7669 42.8498 55.7768 43.0131 55.7839C43.7373 55.8122 44.3103 55.9594 44.9296 56.2779C45.3747 56.5058 45.7041 56.7506 46.0471 57.1059C46.5521 57.6296 46.8815 58.2114 47.0748 58.9233C47.0966 59.0054 47.1143 59.079 47.1143 59.0903C47.1143 59.1059 47.004 59.1087 46.5167 59.1087C46.1873 59.1087 45.9042 59.1144 45.8865 59.1215C45.8606 59.1314 45.7926 59.2843 45.5095 59.9594C45.3189 60.4138 45.161 60.7959 45.1583 60.8087C45.1488 60.8455 45.2631 60.878 45.5489 60.9219C45.6075 60.9318 45.9587 60.9417 46.3738 60.9474L47.0966 60.9559L47.053 61.1116C46.5657 62.8299 45.0535 64.0316 43.201 64.176C43.0962 64.183 42.9587 64.1901 42.8947 64.1901H42.779L42.4224 65.0436C42.1161 65.7726 42.0685 65.8971 42.0889 65.9042C42.1815 65.9396 42.3884 65.9523 42.8675 65.9523C43.48 65.9523 43.7781 65.924 44.2831 65.8164C46.3452 65.3762 48.0589 64.0118 48.8348 62.1887C48.9845 61.8377 49.1601 61.2602 49.1914 61.0181L49.2009 60.9488H50.7485L50.754 60.9799C50.8656 61.5489 50.9867 61.9325 51.1964 62.3854C51.8266 63.7499 53.0081 64.8638 54.4713 65.4753C55.3598 65.8454 56.3116 66.0231 57.2685 65.9976C57.6686 65.9849 57.9872 65.9382 57.9708 65.8943C57.9572 65.8575 57.2794 64.2396 57.2753 64.2354C57.2712 64.2312 57.131 64.2255 56.9608 64.2184C56.4831 64.1986 56.1237 64.1406 55.7181 64.0203C55.0933 63.8334 54.4754 63.4951 54.0017 63.0818C53.4055 62.5595 52.974 61.9099 52.7454 61.1894C52.7195 61.1073 52.6936 61.021 52.6896 60.9955L52.68 60.9502L53.2626 60.946C53.5825 60.9431 53.8547 60.936 53.8656 60.9304C53.8833 60.9205 54.5802 59.2772 54.5802 59.2446C54.5802 59.2234 54.4046 59.1696 54.2453 59.1427C54.1283 59.1229 53.9799 59.1172 53.3878 59.113L52.6705 59.1059L52.6977 59.0054C53.0952 57.5419 54.3148 56.3798 55.8869 55.9679C56.234 55.8773 56.5716 55.8306 57.0098 55.8122C57.2712 55.8009 57.3039 55.7966 57.3202 55.774C57.3311 55.7584 57.4917 55.3833 57.6768 54.9403C57.9041 54.3982 58.0089 54.1307 57.9994 54.1236C57.9695 54.1066 57.7789 54.0712 57.6292 54.0557C57.4114 54.0316 56.7757 54.0359 56.4953 54.0613C54.8919 54.21 53.4464 54.8823 52.3629 55.9807C51.7014 56.6516 51.2372 57.4046 50.9514 58.2736C50.8779 58.493 50.7894 58.8384 50.7622 59.0054L50.7458 59.1087H49.2245L49.219 59.0762C49.2149 59.0592 49.2 58.9785 49.1836 58.8964C48.959 57.7358 48.3247 56.6077 47.4291 55.7768C46.4096 54.8299 45.1383 54.2369 43.739 54.0567C43.3184 54.0033 42.7763 53.9849 42.4187 54.0132Z" fill="white"/>
</g>
<defs>
<clipPath id="clip0_108_137">
<rect width="100" height="120" fill="white"/>
</clipPath>
</defs>
</svg>
