<svg width="384" height="512" viewBox="0 0 384 512" fill="none" xmlns="http://www.w3.org/2000/svg">
<g clip-path="url(#clip0_108_146)">
<rect width="384" height="512" fill="#242424"/>
<path d="M195.636 249.856C196.125 249.856 196.521 249.439 196.521 248.928C196.521 248.416 196.125 248 195.636 248C195.148 248.003 194.751 248.418 194.751 248.93C194.751 249.442 195.148 249.856 195.636 249.856ZM195.897 252.268C196.098 252.266 196.289 252.183 196.43 252.035C196.57 251.888 196.648 251.689 196.647 251.482C196.647 251.049 196.312 250.696 195.897 250.696C195.483 250.696 195.148 251.047 195.148 251.482C195.148 251.917 195.483 252.268 195.897 252.268ZM197.955 252.575C198.368 252.575 198.703 252.224 198.703 251.791C198.703 251.358 198.368 251.007 197.955 251.007C197.543 251.007 197.208 251.358 197.208 251.791C197.208 252.224 197.544 252.575 197.955 252.575ZM197.708 254.639C198.062 254.639 198.348 254.339 198.348 253.969C198.348 253.6 198.062 253.299 197.708 253.299C197.355 253.299 197.069 253.6 197.069 253.969C197.069 254.339 197.355 254.639 197.708 254.639ZM199.356 255.308C199.712 255.308 200 255.006 200 254.634C200 254.261 199.712 253.959 199.356 253.959C199.271 253.96 199.187 253.978 199.108 254.012C199.03 254.046 198.959 254.096 198.899 254.159C198.839 254.221 198.792 254.296 198.76 254.377C198.728 254.459 198.711 254.546 198.712 254.634C198.712 255.006 199.001 255.308 199.356 255.308ZM195.638 254.36C195.724 254.359 195.81 254.341 195.89 254.307C195.969 254.272 196.042 254.221 196.103 254.158C196.164 254.094 196.212 254.019 196.244 253.936C196.277 253.853 196.293 253.764 196.293 253.675V253.674C196.293 253.295 196.001 252.987 195.638 252.987C195.275 252.987 194.982 253.294 194.982 253.674C194.982 254.05 195.275 254.36 195.638 254.36ZM195.044 256.002C195.348 256.002 195.593 255.744 195.593 255.427C195.594 255.276 195.537 255.13 195.434 255.023C195.332 254.915 195.192 254.854 195.045 254.853H195.044C194.739 254.853 194.494 255.11 194.494 255.427C194.494 255.744 194.739 256.002 195.044 256.002ZM197.105 256.292C197.177 256.291 197.248 256.276 197.314 256.247C197.381 256.218 197.441 256.176 197.492 256.123C197.542 256.07 197.582 256.008 197.609 255.939C197.636 255.87 197.65 255.796 197.649 255.721V255.72C197.649 255.404 197.406 255.148 197.105 255.148C196.803 255.148 196.56 255.404 196.56 255.72C196.559 255.794 196.572 255.868 196.599 255.937C196.626 256.006 196.665 256.068 196.715 256.121C196.765 256.175 196.825 256.217 196.891 256.246C196.957 256.275 197.028 256.291 197.1 256.292H197.105ZM198.748 256.958C199.052 256.958 199.297 256.7 199.297 256.382C199.297 256.063 199.052 255.805 198.748 255.805C198.444 255.805 198.199 256.063 198.199 256.382C198.197 256.533 198.254 256.679 198.356 256.787C198.459 256.895 198.599 256.957 198.745 256.958H198.748ZM197.936 258.204C198.193 258.204 198.4 257.985 198.4 257.718C198.4 257.451 198.193 257.232 197.936 257.232C197.679 257.232 197.472 257.451 197.472 257.718C197.472 257.985 197.679 258.204 197.936 258.204ZM196.285 257.548C196.546 257.548 196.76 257.325 196.76 257.05C196.76 256.776 196.548 256.552 196.285 256.552C196.022 256.552 195.81 256.776 195.81 257.05C195.81 257.325 196.024 257.548 196.285 257.548ZM194.227 257.244C194.352 257.242 194.472 257.189 194.559 257.097C194.647 257.005 194.697 256.881 194.697 256.751C194.697 256.622 194.648 256.497 194.56 256.405C194.472 256.313 194.353 256.26 194.227 256.257C194.102 256.26 193.982 256.312 193.894 256.405C193.806 256.497 193.757 256.621 193.757 256.75C193.756 256.88 193.806 257.004 193.893 257.097C193.981 257.189 194.101 257.242 194.227 257.244ZM195.371 258.414C195.599 258.414 195.781 258.221 195.781 257.986C195.782 257.874 195.74 257.766 195.663 257.686C195.587 257.605 195.483 257.56 195.375 257.559H195.371C195.144 257.559 194.962 257.752 194.962 257.986C194.96 258.099 195.002 258.207 195.078 258.287C195.154 258.367 195.258 258.413 195.367 258.414H195.371ZM197.021 259.081C197.249 259.081 197.436 258.888 197.436 258.649C197.436 258.41 197.251 258.217 197.021 258.217C196.91 258.217 196.804 258.262 196.726 258.343C196.647 258.424 196.603 258.534 196.603 258.649C196.603 258.764 196.647 258.874 196.726 258.955C196.804 259.036 196.91 259.081 197.021 259.081ZM196.092 259.582C196.272 259.582 196.419 259.429 196.419 259.24C196.419 259.15 196.385 259.064 196.324 259C196.262 258.935 196.179 258.899 196.092 258.898C195.912 258.898 195.766 259.052 195.766 259.24C195.765 259.33 195.8 259.416 195.861 259.48C195.922 259.544 196.005 259.581 196.092 259.582ZM195.211 259.85C195.25 259.85 195.289 259.842 195.325 259.826C195.361 259.811 195.393 259.788 195.421 259.759C195.448 259.731 195.47 259.697 195.484 259.659C195.499 259.622 195.506 259.582 195.506 259.542C195.506 259.37 195.373 259.232 195.211 259.232C195.172 259.232 195.134 259.24 195.098 259.256C195.062 259.271 195.029 259.294 195.002 259.323C194.974 259.351 194.953 259.385 194.938 259.423C194.923 259.46 194.916 259.5 194.916 259.54C194.915 259.621 194.944 259.699 194.999 259.757C195.053 259.815 195.127 259.849 195.205 259.85L195.211 259.85ZM194.44 258.961C194.634 258.961 194.791 258.795 194.791 258.593C194.791 258.391 194.634 258.225 194.44 258.225C194.246 258.225 194.088 258.391 194.088 258.593C194.088 258.69 194.125 258.783 194.191 258.851C194.257 258.92 194.346 258.959 194.44 258.961ZM193.308 258.117C193.533 258.117 193.718 257.927 193.718 257.69C193.718 257.452 193.535 257.262 193.308 257.262C193.083 257.262 192.898 257.452 192.898 257.69C192.898 257.802 192.941 257.911 193.018 257.991C193.095 258.071 193.199 258.116 193.308 258.117ZM196.664 263.477C197.151 263.477 197.545 263.063 197.545 262.553C197.545 262.044 197.151 261.63 196.664 261.63C196.178 261.63 195.784 262.044 195.784 262.553C195.784 263.063 196.178 263.477 196.664 263.477ZM194.427 262.308C194.832 262.308 195.161 261.964 195.161 261.538C195.161 261.113 194.832 260.769 194.427 260.769C194.022 260.769 193.693 261.113 193.693 261.538C193.693 261.964 194.021 262.308 194.427 262.308ZM193.149 264C193.558 264 193.889 263.654 193.889 263.223C193.889 262.795 193.558 262.446 193.149 262.446C192.739 262.446 192.408 262.793 192.408 263.223C192.407 263.428 192.484 263.624 192.623 263.77C192.761 263.916 192.951 263.998 193.149 264ZM192.764 260.882C192.849 260.882 192.933 260.864 193.011 260.83C193.089 260.796 193.16 260.746 193.22 260.684C193.28 260.621 193.327 260.547 193.358 260.466C193.39 260.385 193.407 260.298 193.406 260.21C193.407 260.122 193.39 260.035 193.358 259.954C193.327 259.873 193.28 259.799 193.22 259.736C193.16 259.674 193.089 259.624 193.011 259.59C192.933 259.556 192.849 259.538 192.764 259.538C192.679 259.538 192.595 259.556 192.517 259.59C192.439 259.624 192.368 259.674 192.308 259.736C192.248 259.799 192.201 259.873 192.169 259.954C192.138 260.035 192.121 260.122 192.122 260.21C192.123 260.58 192.411 260.882 192.764 260.882ZM191.489 262.598C191.842 262.598 192.128 262.297 192.128 261.928C192.128 261.558 191.842 261.258 191.489 261.258C191.136 261.258 190.849 261.558 190.849 261.928C190.848 262.104 190.914 262.273 191.033 262.399C191.152 262.524 191.315 262.596 191.485 262.598H191.489ZM190.115 263.761C190.468 263.761 190.752 263.461 190.752 263.094C190.752 262.724 190.466 262.426 190.115 262.426C189.761 262.426 189.477 262.726 189.477 263.094C189.477 263.461 189.763 263.761 190.115 263.761ZM188.971 262.247C189.116 262.245 189.255 262.184 189.357 262.078C189.459 261.971 189.516 261.827 189.515 261.677C189.515 261.362 189.272 261.107 188.971 261.107C188.826 261.109 188.688 261.17 188.586 261.277C188.484 261.383 188.427 261.527 188.427 261.677C188.427 261.826 188.484 261.97 188.586 262.077C188.688 262.183 188.826 262.244 188.971 262.247ZM190.347 261.078C190.493 261.077 190.632 261.016 190.734 260.909C190.836 260.802 190.893 260.658 190.892 260.508C190.892 260.192 190.649 259.938 190.347 259.938C190.203 259.94 190.064 260 189.962 260.107C189.861 260.213 189.803 260.357 189.803 260.507C189.803 260.656 189.86 260.8 189.961 260.907C190.063 261.014 190.201 261.075 190.346 261.078H190.347ZM191.632 259.363C191.704 259.363 191.775 259.347 191.842 259.319C191.908 259.29 191.968 259.247 192.019 259.194C192.07 259.141 192.11 259.079 192.137 259.01C192.164 258.941 192.178 258.867 192.177 258.793V258.791C192.177 258.475 191.934 258.219 191.632 258.219C191.56 258.22 191.489 258.235 191.423 258.264C191.356 258.293 191.296 258.335 191.245 258.388C191.195 258.441 191.155 258.504 191.128 258.573C191.101 258.642 191.087 258.715 191.087 258.79V258.791C191.087 259.107 191.331 259.363 191.632 259.363ZM189.667 259.599C189.928 259.599 190.14 259.378 190.14 259.104C190.14 258.83 189.928 258.609 189.667 258.609C189.406 258.609 189.194 258.83 189.194 259.104C189.194 259.378 189.406 259.599 189.667 259.599ZM188.297 260.764C188.359 260.763 188.42 260.75 188.477 260.726C188.534 260.701 188.586 260.665 188.63 260.619C188.673 260.574 188.707 260.52 188.731 260.461C188.754 260.401 188.766 260.338 188.766 260.274V260.273C188.767 260.144 188.718 260.02 188.631 259.928C188.544 259.836 188.425 259.784 188.3 259.782H188.297C188.235 259.783 188.174 259.796 188.117 259.82C188.06 259.845 188.008 259.881 187.965 259.927C187.921 259.972 187.887 260.026 187.863 260.085C187.84 260.144 187.828 260.208 187.829 260.272V260.273C187.828 260.337 187.84 260.4 187.863 260.46C187.887 260.519 187.921 260.573 187.965 260.618C188.008 260.664 188.06 260.7 188.117 260.725C188.174 260.75 188.235 260.763 188.297 260.764ZM187.982 259.399C188.09 259.398 188.193 259.353 188.269 259.274C188.345 259.194 188.388 259.087 188.387 258.976C188.387 258.741 188.205 258.552 187.982 258.552C187.759 258.552 187.577 258.743 187.577 258.976C187.577 259.21 187.759 259.399 187.982 259.399ZM187.971 258.201C188.017 258.201 188.062 258.191 188.104 258.173C188.147 258.154 188.185 258.127 188.217 258.093C188.25 258.059 188.275 258.019 188.292 257.975C188.309 257.931 188.318 257.884 188.318 257.836C188.318 257.636 188.162 257.472 187.971 257.472C187.779 257.472 187.624 257.634 187.624 257.836C187.624 258.039 187.779 258.201 187.971 258.201ZM188.161 257.206C188.326 257.206 188.457 257.066 188.457 256.896C188.457 256.726 188.323 256.587 188.161 256.587C187.997 256.587 187.866 256.726 187.866 256.896C187.866 257.066 187.997 257.206 188.161 257.206ZM189.342 257.039C189.536 257.039 189.694 256.874 189.694 256.671C189.694 256.469 189.536 256.304 189.342 256.304C189.148 256.304 188.991 256.469 188.991 256.671C188.991 256.768 189.028 256.861 189.093 256.93C189.159 256.999 189.249 257.038 189.342 257.039ZM190.639 256.517C190.864 256.517 191.048 256.324 191.048 256.09C191.049 255.977 191.007 255.869 190.931 255.789C190.855 255.708 190.751 255.663 190.642 255.662H190.639C190.413 255.662 190.229 255.855 190.229 256.09C190.229 256.145 190.239 256.201 190.259 256.252C190.279 256.304 190.309 256.351 190.347 256.391C190.385 256.43 190.43 256.462 190.48 256.484C190.53 256.506 190.583 256.517 190.637 256.517H190.639ZM190.947 257.875C191.071 257.875 191.189 257.824 191.276 257.734C191.363 257.644 191.412 257.522 191.411 257.395C191.411 257.267 191.362 257.145 191.275 257.055C191.188 256.965 191.07 256.915 190.946 256.915C190.823 256.915 190.705 256.965 190.618 257.055C190.53 257.145 190.481 257.267 190.481 257.395C190.481 257.522 190.53 257.644 190.617 257.734C190.704 257.824 190.822 257.875 190.945 257.875H190.947ZM189.359 258.237C189.584 258.237 189.764 258.047 189.764 257.811C189.764 257.576 189.582 257.385 189.359 257.385C189.306 257.386 189.253 257.397 189.203 257.419C189.154 257.44 189.109 257.471 189.072 257.511C189.034 257.55 189.004 257.597 188.984 257.648C188.964 257.699 188.954 257.754 188.954 257.809V257.811C188.953 257.866 188.963 257.921 188.983 257.972C189.002 258.024 189.032 258.07 189.069 258.11C189.106 258.149 189.151 258.181 189.2 258.203C189.249 258.225 189.301 258.236 189.354 258.237H189.359ZM184.878 257.606C185.362 257.606 185.757 257.194 185.757 256.687C185.757 256.179 185.362 255.768 184.878 255.768C184.394 255.768 184 256.18 184 256.687C184 257.194 184.394 257.606 184.878 257.606ZM186.872 255.965C187.288 255.965 187.624 255.611 187.624 255.176C187.624 254.741 187.286 254.387 186.872 254.387C186.671 254.388 186.479 254.472 186.338 254.62C186.197 254.768 186.118 254.967 186.119 255.174V255.176C186.119 255.614 186.457 255.965 186.872 255.965ZM186.094 253.941C186.508 253.941 186.842 253.59 186.842 253.157C186.842 252.724 186.506 252.373 186.094 252.373C185.995 252.374 185.897 252.394 185.806 252.434C185.715 252.474 185.632 252.532 185.563 252.604C185.494 252.677 185.439 252.763 185.402 252.858C185.364 252.953 185.346 253.054 185.346 253.156V253.157C185.344 253.363 185.421 253.561 185.561 253.708C185.7 253.856 185.891 253.939 186.09 253.941H186.094ZM188.016 252.983C188.369 252.983 188.658 252.683 188.658 252.31C188.658 251.938 188.37 251.638 188.016 251.638C187.662 251.638 187.373 251.938 187.373 252.31C187.373 252.683 187.662 252.983 188.016 252.983ZM188.801 255.001C189.157 255.001 189.445 254.699 189.445 254.327C189.445 253.955 189.157 253.653 188.801 253.653C188.445 253.653 188.157 253.955 188.157 254.327C188.157 254.699 188.445 255.001 188.801 255.001ZM190.55 254.582C190.696 254.581 190.836 254.52 190.939 254.412C191.041 254.304 191.098 254.159 191.097 254.008C191.098 253.933 191.085 253.86 191.059 253.791C191.032 253.722 190.993 253.659 190.943 253.605C190.893 253.552 190.833 253.509 190.767 253.48C190.701 253.45 190.63 253.435 190.558 253.434C190.486 253.432 190.415 253.446 190.348 253.473C190.281 253.501 190.22 253.541 190.169 253.593C190.117 253.645 190.076 253.706 190.047 253.775C190.019 253.843 190.004 253.916 190.002 253.99C190.002 253.996 190.002 254.002 190.002 254.008C190.001 254.158 190.057 254.303 190.159 254.411C190.261 254.519 190.4 254.58 190.546 254.582L190.55 254.582ZM192.061 254.587C192.322 254.587 192.533 254.367 192.533 254.094C192.533 253.822 192.322 253.601 192.061 253.601C191.934 253.601 191.812 253.653 191.723 253.745C191.633 253.838 191.583 253.963 191.583 254.094C191.583 254.225 191.633 254.35 191.723 254.443C191.812 254.535 191.934 254.587 192.061 254.587ZM193.309 254.884C193.527 254.884 193.708 254.698 193.708 254.468C193.708 254.237 193.53 254.051 193.309 254.051C193.203 254.052 193.101 254.096 193.026 254.174C192.951 254.253 192.91 254.358 192.91 254.468C192.912 254.696 193.09 254.884 193.309 254.884ZM193.471 253.365C193.564 253.364 193.653 253.326 193.718 253.257C193.783 253.189 193.819 253.097 193.818 253.002C193.818 252.801 193.663 252.639 193.471 252.639C193.28 252.639 193.124 252.801 193.124 253.002C193.124 253.097 193.16 253.189 193.225 253.257C193.29 253.326 193.379 253.364 193.471 253.365ZM192.511 252.868C192.617 252.867 192.719 252.824 192.793 252.746C192.868 252.669 192.91 252.564 192.91 252.454C192.91 252.345 192.868 252.24 192.793 252.163C192.718 252.085 192.616 252.042 192.51 252.042C192.404 252.042 192.303 252.085 192.228 252.163C192.153 252.24 192.111 252.345 192.11 252.454C192.11 252.564 192.152 252.669 192.227 252.746C192.302 252.824 192.403 252.867 192.509 252.868H192.511ZM191.278 252.566C191.403 252.565 191.522 252.513 191.61 252.421C191.698 252.329 191.747 252.205 191.746 252.076C191.746 251.803 191.537 251.585 191.278 251.585C191.018 251.585 190.809 251.806 190.809 252.076C190.809 252.139 190.82 252.203 190.843 252.262C190.867 252.321 190.901 252.375 190.944 252.421C190.988 252.466 191.039 252.503 191.096 252.528C191.153 252.552 191.215 252.566 191.276 252.566H191.278ZM189.769 252.568C190.073 252.568 190.319 252.31 190.319 251.994C190.319 251.677 190.073 251.419 189.769 251.419C189.465 251.419 189.22 251.677 189.22 251.994C189.22 252.145 189.277 252.29 189.38 252.398C189.483 252.505 189.623 252.567 189.769 252.568ZM187.738 251.131C188.083 251.131 188.36 250.84 188.36 250.48C188.36 250.12 188.081 249.829 187.738 249.829C187.394 249.829 187.117 250.12 187.117 250.48C187.117 250.84 187.396 251.131 187.738 251.131ZM189.486 250.737C189.791 250.737 190.036 250.479 190.036 250.162C190.036 249.845 189.791 249.587 189.486 249.587C189.182 249.587 188.937 249.845 188.937 250.162C188.937 250.479 189.182 250.737 189.486 250.737ZM190.997 250.744C191.258 250.744 191.47 250.523 191.47 250.249C191.47 249.974 191.258 249.753 190.997 249.753C190.934 249.754 190.872 249.767 190.815 249.792C190.757 249.817 190.705 249.853 190.661 249.899C190.617 249.945 190.582 249.999 190.559 250.059C190.535 250.119 190.523 250.183 190.524 250.247V250.249C190.523 250.379 190.573 250.504 190.661 250.597C190.75 250.69 190.87 250.743 190.997 250.744ZM192.236 251.039C192.457 251.039 192.635 250.853 192.635 250.622C192.635 250.392 192.457 250.206 192.236 250.206C192.129 250.206 192.026 250.25 191.951 250.328C191.875 250.406 191.833 250.512 191.833 250.622C191.833 250.733 191.875 250.839 191.951 250.917C192.026 250.995 192.129 251.039 192.236 251.039ZM193.188 251.549C193.283 251.549 193.373 251.509 193.44 251.439C193.507 251.369 193.544 251.275 193.544 251.177C193.544 250.97 193.384 250.805 193.188 250.805C192.992 250.805 192.832 250.972 192.832 251.177C192.832 251.382 192.992 251.549 193.188 251.549ZM193.886 252.135C193.925 252.135 193.963 252.127 193.999 252.111C194.034 252.096 194.067 252.073 194.094 252.045C194.121 252.016 194.142 251.983 194.157 251.946C194.172 251.909 194.179 251.869 194.179 251.829C194.179 251.789 194.172 251.749 194.157 251.712C194.143 251.675 194.121 251.641 194.094 251.612C194.067 251.584 194.035 251.561 193.999 251.546C193.964 251.53 193.925 251.522 193.887 251.521C193.848 251.522 193.809 251.53 193.774 251.545C193.738 251.561 193.706 251.584 193.678 251.612C193.651 251.64 193.63 251.674 193.615 251.711C193.601 251.748 193.593 251.788 193.594 251.828C193.593 251.867 193.6 251.907 193.614 251.944C193.628 251.981 193.649 252.015 193.676 252.043C193.703 252.072 193.735 252.095 193.77 252.11C193.805 252.126 193.843 252.134 193.882 252.135H193.886Z" fill="white"/>
</g>
<defs>
<clipPath id="clip0_108_146">
<rect width="384" height="512" fill="white"/>
</clipPath>
</defs>
</svg>
