<svg width="384" height="512" viewBox="0 0 384 512" fill="none" xmlns="http://www.w3.org/2000/svg">
<g clip-path="url(#clip0_108_161)">
<rect width="384" height="512" fill="#8247E5"/>
<path d="M195.601 253.473C195.345 253.319 195.016 253.319 194.723 253.473L192.676 254.746L191.287 255.556L189.277 256.829C189.021 256.984 188.692 256.984 188.399 256.829L186.828 255.826C186.572 255.672 186.389 255.364 186.389 255.016V253.088C186.389 252.779 186.535 252.47 186.828 252.277L188.399 251.313C188.655 251.159 188.984 251.159 189.277 251.313L190.849 252.316C191.104 252.47 191.287 252.779 191.287 253.126V254.399L192.676 253.55V252.239C192.676 251.93 192.53 251.622 192.238 251.429L189.313 249.616C189.057 249.461 188.728 249.461 188.436 249.616L185.439 251.467C185.146 251.622 185 251.93 185 252.239V255.865C185 256.174 185.146 256.482 185.439 256.675L188.399 258.488C188.655 258.642 188.984 258.642 189.277 258.488L191.287 257.254L192.676 256.405L194.687 255.171C194.943 255.016 195.271 255.016 195.564 255.171L197.136 256.135C197.392 256.289 197.574 256.598 197.574 256.945V258.874C197.574 259.183 197.428 259.491 197.136 259.684L195.601 260.648C195.345 260.803 195.016 260.803 194.723 260.648L193.151 259.684C192.896 259.53 192.713 259.221 192.713 258.874V257.64L191.324 258.488V259.761C191.324 260.07 191.47 260.378 191.762 260.571L194.723 262.384C194.979 262.539 195.308 262.539 195.601 262.384L198.561 260.571C198.817 260.417 199 260.108 199 259.761V256.096C199 255.788 198.854 255.479 198.561 255.286L195.601 253.473Z" fill="white"/>
</g>
<defs>
<clipPath id="clip0_108_161">
<rect width="384" height="512" fill="white"/>
</clipPath>
</defs>
</svg>
