<svg width="384" height="512" viewBox="0 0 384 512" fill="none" xmlns="http://www.w3.org/2000/svg">
<g clip-path="url(#clip0_108_164)">
<rect width="384" height="512" fill="#00316D"/>
<path d="M193.617 260.04C193.607 260.022 193.606 260.015 193.602 260.012C193.137 259.793 192.672 259.572 192.205 259.355C192.181 259.343 192.13 259.346 192.115 259.364C191.912 259.581 191.714 259.804 191.513 260.027C191.659 260.134 193.495 260.135 193.617 260.04ZM189.361 254.668L189.315 254.57C189.276 254.598 189.225 254.618 189.199 254.656C188.77 255.295 188.343 255.936 187.918 256.579C187.892 256.619 187.894 256.679 187.881 256.729C187.933 256.718 187.992 256.721 188.035 256.694C188.399 256.475 188.76 256.251 189.118 256.021C189.18 255.976 189.224 255.91 189.238 255.834C189.286 255.459 189.319 255.082 189.361 254.668ZM198.359 260.105H198.979C199.098 260.105 199.144 260.06 199.068 259.946C198.674 259.344 198.282 258.742 197.887 258.143C197.866 258.11 197.818 258.095 197.782 258.073C197.763 258.11 197.731 258.148 197.727 258.188C197.681 258.774 197.64 259.361 197.595 259.947C197.587 260.059 197.626 260.109 197.74 260.107C197.946 260.102 198.152 260.105 198.359 260.105ZM185.059 260.06C185.153 260.083 185.2 260.104 185.245 260.105C185.915 260.106 186.585 260.105 187.254 260.106C187.384 260.106 187.417 260.06 187.362 259.935C187.152 259.458 186.946 258.98 186.745 258.5C186.687 258.359 186.633 258.366 186.541 258.465C186.184 258.851 185.824 259.232 185.465 259.616C185.34 259.751 185.218 259.886 185.059 260.06ZM194.955 256.601C194.998 256.685 195.013 256.722 195.034 256.754L195.94 258.069C196.315 258.613 196.688 259.157 197.065 259.698C197.091 259.736 197.14 259.756 197.178 259.784C197.197 259.739 197.229 259.696 197.235 259.649C197.25 259.522 197.253 259.394 197.261 259.267C197.302 258.686 197.347 258.105 197.381 257.525C197.396 257.277 197.289 257.15 197.054 257.091C196.428 256.934 195.802 256.777 195.175 256.622C195.118 256.608 195.059 256.61 194.955 256.601ZM194.796 252.749L194.739 252.759C194.731 252.874 194.72 252.989 194.716 253.106L194.633 255.934C194.629 256.037 194.66 256.091 194.767 256.117C195.417 256.274 196.065 256.44 196.714 256.6C196.771 256.613 196.833 256.601 196.892 256.6C196.877 256.542 196.874 256.477 196.846 256.426C196.199 255.248 195.55 254.071 194.9 252.895C194.872 252.843 194.831 252.797 194.796 252.749ZM191.882 258.53C191.9 258.43 191.917 258.37 191.92 258.31C191.929 257.996 191.93 257.681 191.944 257.367C191.958 257.128 191.887 256.891 191.743 256.699C191.148 255.873 190.554 255.045 189.962 254.216C189.935 254.179 189.924 254.13 189.905 254.087L189.835 254.129C189.817 254.192 189.79 254.254 189.784 254.318C189.731 254.828 189.686 255.338 189.63 255.846C189.621 255.9 189.625 255.954 189.642 256.006C189.659 256.057 189.687 256.104 189.725 256.143C190.396 256.891 191.063 257.643 191.733 258.393C191.769 258.434 191.812 258.467 191.882 258.53ZM192.315 258.373L192.36 258.403C192.401 258.371 192.45 258.345 192.483 258.305C193.053 257.613 193.621 256.919 194.188 256.223C194.222 256.179 194.243 256.126 194.246 256.07C194.273 255.143 194.296 254.217 194.317 253.291C194.319 253.24 194.29 253.188 194.274 253.137C194.233 253.177 194.175 253.209 194.152 253.257C193.627 254.369 193.125 255.491 192.574 256.589C192.283 257.169 192.33 257.767 192.315 258.373ZM189.688 260.106C190.048 260.106 190.41 260.111 190.771 260.102C190.853 260.098 190.931 260.064 190.991 260.008C191.242 259.745 191.478 259.466 191.728 259.202C191.822 259.104 191.801 259.044 191.722 258.957C191.298 258.498 190.879 258.035 190.463 257.57C190.363 257.457 190.305 257.458 190.215 257.581C189.644 258.362 189.067 259.137 188.494 259.916C188.465 259.955 188.455 260.007 188.435 260.053C188.485 260.071 188.536 260.103 188.587 260.103C188.954 260.108 189.32 260.106 189.688 260.106ZM190.061 257.132C189.862 256.9 189.666 256.682 189.481 256.453C189.403 256.358 189.343 256.348 189.238 256.413C188.611 256.808 187.977 257.192 187.351 257.588C187.238 257.66 187.149 257.772 187.053 257.87C186.964 257.962 186.976 258.062 187.024 258.175C187.268 258.732 187.506 259.292 187.747 259.85C187.838 260.06 187.873 260.064 188.013 259.877C188.384 259.382 188.754 258.884 189.124 258.389L190.061 257.132ZM194.407 256.541C194.359 256.619 194.335 256.667 194.302 256.706C193.708 257.431 193.114 258.155 192.515 258.877C192.418 258.995 192.468 259.041 192.578 259.091C193.266 259.406 193.951 259.727 194.64 260.04C194.728 260.08 194.824 260.101 194.92 260.103C195.487 260.108 196.055 260.107 196.623 260.104C196.675 260.104 196.729 260.08 196.782 260.066C196.763 260.011 196.755 259.947 196.722 259.9C196.199 259.136 195.674 258.373 195.148 257.611C194.915 257.273 194.681 256.936 194.407 256.541ZM191.995 260.873C189.413 260.873 186.832 260.873 184.25 260.875C184.049 260.875 183.868 260.852 183.781 260.636C183.698 260.432 183.794 260.28 183.928 260.137C184.699 259.313 185.481 258.499 186.231 257.657C186.517 257.336 186.739 256.955 186.981 256.594C187.757 255.433 188.527 254.267 189.307 253.109C189.384 252.996 189.501 252.881 189.624 252.836C189.793 252.773 189.938 252.871 190.046 253.025C190.674 253.922 191.306 254.816 191.937 255.712C192.067 255.895 192.113 255.889 192.209 255.68L194.155 251.443C194.231 251.276 194.332 251.135 194.53 251.126C194.736 251.116 194.861 251.241 194.958 251.418C195.934 253.19 196.888 254.976 197.903 256.725C198.517 257.783 199.227 258.781 199.894 259.806C199.976 259.932 200.059 260.057 200.14 260.185C200.238 260.339 200.296 260.507 200.204 260.678C200.114 260.843 199.948 260.874 199.773 260.874C197.18 260.873 194.587 260.873 191.995 260.873Z" fill="white"/>
</g>
<defs>
<clipPath id="clip0_108_164">
<rect width="384" height="512" fill="white"/>
</clipPath>
</defs>
</svg>
