<svg width="100" height="120" viewBox="0 0 100 120" fill="none" xmlns="http://www.w3.org/2000/svg">
<g clip-path="url(#clip0_108_164)">
<rect width="100" height="120" fill="#00316D"/>
<path d="M51.5679 63.2295C51.5584 63.2129 51.5569 63.2059 51.5533 63.2038C51.1024 63.001 50.6515 62.7975 50.1992 62.5973C50.1751 62.5863 50.1264 62.589 50.1111 62.605C49.9147 62.8058 49.7227 63.0114 49.5278 63.217C49.6689 63.316 51.4501 63.3167 51.5679 63.2295ZM47.4413 58.2703L47.3963 58.1803C47.3584 58.206 47.309 58.2246 47.2843 58.2592C46.8676 58.8493 46.4535 59.441 46.0421 60.0344C46.0166 60.0717 46.018 60.1265 46.0057 60.1728C46.0566 60.1631 46.1133 60.1653 46.1548 60.141C46.508 59.9387 46.8582 59.7315 47.2049 59.5193C47.2659 59.4784 47.3078 59.4166 47.3221 59.3469C47.3686 59.0008 47.4006 58.6525 47.4413 58.2703ZM56.1664 63.2897H56.7671C56.8828 63.2897 56.9271 63.2481 56.8537 63.1423C56.4718 62.587 56.0915 62.031 55.7082 61.4779C55.6878 61.4474 55.6413 61.4342 55.6064 61.4135C55.5882 61.4481 55.5569 61.4827 55.5533 61.5194C55.5089 62.0608 55.469 62.6022 55.4253 63.1436C55.4173 63.2467 55.4551 63.2932 55.5656 63.2911C55.7657 63.2869 55.9656 63.2897 56.1664 63.2897ZM43.269 63.2481C43.3606 63.2689 43.4057 63.2883 43.4501 63.289C44.0995 63.2904 44.749 63.289 45.3977 63.2904C45.5235 63.2904 45.5555 63.2481 45.5024 63.1326C45.2987 62.6926 45.0994 62.2509 44.9046 61.8074C44.8479 61.6779 44.7955 61.6842 44.706 61.7756C44.3599 62.1315 44.0108 62.4838 43.6631 62.8376C43.5417 62.9622 43.4231 63.0869 43.269 63.2481ZM52.8653 60.0545C52.9075 60.1327 52.9213 60.1666 52.9424 60.1957L53.821 61.4101C54.1838 61.9119 54.546 62.4139 54.9119 62.9138C54.9366 62.9484 54.9846 62.967 55.021 62.9927C55.0399 62.9512 55.0704 62.9117 55.0762 62.8687C55.0908 62.751 55.0937 62.6333 55.1016 62.5157C55.1409 61.9791 55.1846 61.4433 55.218 60.9074C55.2326 60.679 55.1286 60.5613 54.9009 60.5073C54.2937 60.3625 53.6864 60.2171 53.0784 60.0739C53.0239 60.0614 52.9664 60.0634 52.8653 60.0545ZM52.7112 56.4993L52.6559 56.5084C52.6486 56.6143 52.6377 56.7209 52.6341 56.8282L52.5533 59.439C52.5497 59.5345 52.5795 59.5843 52.6835 59.6079C53.3133 59.7533 53.9417 59.9063 54.5715 60.0537C54.626 60.0662 54.6864 60.0545 54.7438 60.0537C54.7293 60.0005 54.7264 59.9402 54.6995 59.8931C54.0718 58.8062 53.4428 57.7192 52.8122 56.6336C52.7846 56.5859 52.7453 56.5436 52.7112 56.4993ZM49.8857 61.8351C49.9031 61.743 49.9199 61.6876 49.922 61.6322C49.9315 61.3422 49.9322 61.0521 49.9461 60.762C49.9591 60.541 49.8901 60.3226 49.7512 60.1451C49.1737 59.3825 48.5979 58.6185 48.0238 57.8535C47.9977 57.8189 47.9868 57.774 47.9686 57.7338L47.9002 57.7726C47.8835 57.8307 47.8573 57.8881 47.8508 57.947C47.7998 58.4178 47.7562 58.8886 47.7017 59.358C47.6934 59.4074 47.6974 59.4579 47.7134 59.5055C47.7295 59.5531 47.7571 59.5965 47.794 59.6322C48.445 60.3224 49.0915 61.0168 49.741 61.7091C49.7759 61.7465 49.8181 61.777 49.8857 61.8351ZM50.3053 61.6904L50.349 61.7181C50.3889 61.6884 50.4362 61.6648 50.4682 61.6281C51.0212 60.9889 51.5722 60.3483 52.1213 59.7062C52.1549 59.6655 52.1747 59.616 52.178 59.5643C52.2042 58.7092 52.2268 57.8543 52.2472 56.9992C52.2486 56.9521 52.2202 56.9044 52.205 56.8573C52.1649 56.894 52.109 56.9238 52.0864 56.9681C51.5773 57.9941 51.0908 59.0305 50.557 60.0434C50.2748 60.5793 50.3199 61.1316 50.3053 61.6904ZM47.7577 63.2904C48.1075 63.2904 48.4581 63.2952 48.8078 63.2863C48.8877 63.2826 48.9636 63.2519 49.0217 63.1997C49.2653 62.9567 49.4937 62.6992 49.7366 62.4555C49.8275 62.3655 49.8071 62.3101 49.73 62.2298C49.3196 61.806 48.9128 61.379 48.5097 60.949C48.4122 60.8451 48.3563 60.8458 48.269 60.9593C47.7155 61.6801 47.1563 62.3959 46.5998 63.1152C46.5722 63.1512 46.562 63.199 46.5431 63.2412C46.5919 63.2578 46.6406 63.2876 46.69 63.2876C47.0464 63.2918 47.4013 63.2904 47.7577 63.2904ZM48.1198 60.5446C47.9264 60.3307 47.7366 60.1292 47.5569 59.918C47.4813 59.8302 47.4231 59.8211 47.3213 59.8814C46.7133 60.2456 46.0988 60.6 45.4923 60.9662C45.3824 61.0327 45.2959 61.1359 45.2028 61.2265C45.1162 61.311 45.1279 61.4038 45.1752 61.5076C45.4115 62.0221 45.6421 62.5385 45.8755 63.0543C45.9642 63.2481 45.9977 63.2516 46.1337 63.0786C46.4937 62.6216 46.8523 62.1626 47.2108 61.705L48.1198 60.5446ZM52.3344 59.9991C52.2871 60.0717 52.2646 60.116 52.2326 60.1521C51.6566 60.8208 51.0798 61.4896 50.4995 62.1556C50.4049 62.2644 50.4537 62.3073 50.5606 62.3536C51.2275 62.6444 51.8915 62.9401 52.5599 63.2295C52.6454 63.2661 52.738 63.2859 52.8319 63.2876C53.3817 63.2924 53.9322 63.2911 54.4828 63.2883C54.5337 63.2883 54.5853 63.2661 54.637 63.2537C54.6187 63.2024 54.6108 63.1436 54.5788 63.1C54.0714 62.3946 53.5625 61.6903 53.0522 60.987C52.8267 60.6754 52.5998 60.3639 52.3344 59.9991ZM49.9947 63.9986C47.4915 63.9986 44.9882 63.998 42.485 64C42.2901 64 42.1141 63.9792 42.0297 63.7798C41.9497 63.5909 42.0428 63.451 42.173 63.3188C42.9206 62.5586 43.6784 61.8067 44.4057 61.0299C44.6835 60.7336 44.898 60.3813 45.133 60.0482C45.8857 58.9765 46.6326 57.9006 47.389 56.8317C47.4632 56.7272 47.5766 56.6212 47.6959 56.5796C47.8603 56.5215 48.0006 56.6115 48.1053 56.7541C48.7141 57.5821 49.3271 58.4074 49.9388 59.234C50.0646 59.403 50.1097 59.3974 50.2027 59.2049L52.0893 55.2933C52.1635 55.1396 52.2617 55.0088 52.4529 55.0005C52.653 54.9914 52.7744 55.1071 52.8682 55.2705C53.8151 56.9058 54.7402 58.5549 55.7242 60.1694C56.3191 61.1456 57.0079 62.067 57.6544 63.0135C57.7344 63.1298 57.8151 63.2454 57.8937 63.3631C57.9882 63.505 58.0442 63.6608 57.9555 63.818C57.8682 63.9703 57.7067 63.9994 57.5373 63.9994C55.0231 63.998 52.509 63.9986 49.9947 63.9986Z" fill="white"/>
</g>
<defs>
<clipPath id="clip0_108_164">
<rect width="100" height="120" fill="white"/>
</clipPath>
</defs>
</svg>
