<svg width="100" height="120" viewBox="0 0 100 120" fill="none" xmlns="http://www.w3.org/2000/svg">
<g clip-path="url(#clip0_108_177)">
<rect width="100" height="120" fill="#1A82FF"/>
<path fill-rule="evenodd" clip-rule="evenodd" d="M50.001 66.6938C51.8843 66.6938 53.3452 66.0574 54.3843 64.7847C55.4229 63.5116 55.9424 61.8656 55.9419 59.8469C55.9419 58.4861 55.7061 57.2948 55.2339 56.273L52.4077 59.2191C52.4175 59.4198 52.4224 59.6291 52.4224 59.8469C52.4229 60.1386 52.4106 60.4206 52.3872 60.693C52.3721 60.8648 52.3521 61.0329 52.3271 61.1971C52.3164 61.2698 52.3042 61.3431 52.2905 61.417C52.2241 61.7742 52.127 62.1446 51.998 62.5281C51.8423 62.9907 51.5908 63.3571 51.2437 63.6272C50.8965 63.8974 50.4751 64.0325 49.9795 64.0325C49.0845 64.0321 48.4399 63.5964 48.0449 62.7256L51.3608 59.26L52.3164 58.2746L54.873 55.599C54.7251 55.3583 54.562 55.1285 54.3833 54.9098C53.3452 53.6368 51.8838 53.0003 50.0005 53C48.1167 52.9998 46.6553 53.6364 45.6167 54.9098C44.5781 56.1827 44.0591 57.8284 44.0586 59.8469C44.0586 60.9741 44.2202 61.9851 44.5444 62.88L47.5791 59.7165C47.584 59.2887 47.6157 58.8822 47.6738 58.4967C47.7368 58.0722 47.8467 57.6286 48.0029 57.1657C48.1587 56.7031 48.4102 56.3367 48.7573 56.0666C48.8525 55.9925 48.9531 55.9286 49.0596 55.8749C49.1772 55.8153 49.3018 55.7683 49.4331 55.7337C49.5249 55.7095 49.6196 55.6914 49.7178 55.6793C49.8159 55.6673 49.9175 55.6613 50.022 55.6613C50.7334 55.6615 51.2871 55.9376 51.6826 56.4896L48.3687 59.9436L47.6089 60.7341L44.8555 63.6057C45.0674 64.0289 45.3208 64.422 45.6172 64.7847C46.6567 66.0574 48.1177 66.6938 50.001 66.6938Z" fill="white"/>
</g>
<defs>
<clipPath id="clip0_108_177">
<rect width="100" height="120" fill="white"/>
</clipPath>
</defs>
</svg>
