<svg width="100" height="120" viewBox="0 0 100 120" fill="none" xmlns="http://www.w3.org/2000/svg">
<g clip-path="url(#clip0_119_458)">
<rect width="100" height="120" fill="#49C1BF"/>
<rect width="100" height="120" fill="url(#paint0_linear_119_458)"/>
<path d="M55.0521 52C54.0367 51.9993 53.0625 52.3622 52.3433 53.0091C51.6241 53.656 51.2187 54.534 51.216 55.4503V59.2759C50.821 59.3 50.417 59.3152 49.9983 59.3152C49.5795 59.3152 49.1775 59.3303 48.7805 59.3517V55.4503C48.7643 54.5419 48.3531 53.6756 47.6356 53.0384C46.918 52.4011 45.9517 52.044 44.9449 52.044C43.9382 52.044 42.9718 52.4011 42.2543 53.0384C41.5367 53.6756 41.1255 54.5419 41.1094 55.4503V64.5936C41.1255 65.502 41.5367 66.3683 42.2543 67.0056C42.9718 67.6428 43.9382 68 44.9449 68C45.9517 68 46.918 67.6428 47.6356 67.0056C48.3531 66.3683 48.7643 65.502 48.7805 64.5936V60.768C49.1755 60.744 49.5795 60.7288 49.9983 60.7288C50.417 60.7288 50.819 60.7137 51.216 60.6923V64.5936C51.2322 65.502 51.6434 66.3683 52.361 67.0056C53.0785 67.6428 54.0449 68 55.0516 68C56.0583 68 57.0247 67.6428 57.7422 67.0056C58.4598 66.3683 58.871 65.502 58.8872 64.5936V55.4503C58.8845 54.5341 58.4793 53.6563 57.7603 53.0094C57.0413 52.3625 56.0673 51.9995 55.0521 52ZM44.9444 53.4137C45.5437 53.4134 46.1186 53.6277 46.543 54.0095C46.9674 54.3914 47.2066 54.9095 47.2081 55.4503V59.5014C46.086 59.6482 44.9901 59.9278 43.9489 60.3331C43.4978 60.5117 43.0731 60.7405 42.6847 61.014V55.4503C42.6863 54.9102 42.9249 54.3925 43.3485 54.0108C43.772 53.6291 44.3459 53.4144 44.9444 53.4137ZM47.2081 64.5936C47.2081 65.1354 46.9696 65.6551 46.5451 66.0382C46.1206 66.4213 45.5448 66.6365 44.9444 66.6365C44.3441 66.6365 43.7683 66.4213 43.3438 66.0382C42.9192 65.6551 42.6807 65.1354 42.6807 64.5936V63.6764C42.6807 62.8662 43.3918 62.0988 44.5839 61.621C45.4239 61.294 46.3053 61.0614 47.2081 60.9285V64.5936ZM55.0521 66.6303C54.4528 66.6305 53.8779 66.4162 53.4536 66.0344C53.0292 65.6526 52.79 65.1344 52.7884 64.5936V60.5425C53.9106 60.3958 55.0064 60.1162 56.0476 59.7109C56.4988 59.5322 56.9235 59.3035 57.3118 59.0299V64.5936C57.3103 65.1338 57.0716 65.6514 56.6481 66.0332C56.2245 66.4149 55.6507 66.6296 55.0521 66.6303ZM55.4126 58.4176C54.5726 58.7446 53.6913 58.9772 52.7884 59.1101V55.4503C52.7884 54.9085 53.0269 54.3889 53.4514 54.0058C53.8759 53.6226 54.4517 53.4074 55.0521 53.4074C55.6525 53.4074 56.2282 53.6226 56.6528 54.0058C57.0773 54.3889 57.3158 54.9085 57.3158 55.4503V56.3675C57.3158 57.1742 56.6047 57.9416 55.4126 58.4176Z" fill="white"/>
</g>
<defs>
<linearGradient id="paint0_linear_119_458" x1="6.33333" y1="111.06" x2="109.023" y2="25.4861" gradientUnits="userSpaceOnUse">
<stop stop-color="#00AEE9"/>
<stop offset="1" stop-color="#69FABD"/>
</linearGradient>
<clipPath id="clip0_119_458">
<rect width="100" height="120" fill="white"/>
</clipPath>
</defs>
</svg>
