<svg width="100" height="120" viewBox="0 0 100 120" fill="none" xmlns="http://www.w3.org/2000/svg">
<g clip-path="url(#clip0_108_194)">
<rect width="100" height="120" fill="#0C192B"/>
<path d="M46.7236 54.0814C47.0465 53.7137 47.3434 53.4026 47.6262 53.1387C42.8515 52.9855 44.2419 56.4381 42.6771 59.9426C40.8859 63.9821 42.8892 65.5211 45.8728 66.0019C45.4562 65.5054 45.1162 64.9493 44.8641 64.3521C42.9387 61.9176 43.7187 57.4798 46.7236 54.0814Z" fill="#EFE812"/>
<path d="M58.2095 58.3848C57.6456 59.86 56.8298 61.226 55.7985 62.422C54.9717 63.4268 53.9813 64.2849 52.8691 64.9602C51.5773 65.7788 50.0759 66.2053 48.5468 66.1881C47.654 66.1961 46.7619 66.1339 45.8789 66.0019C46.3692 66.5875 46.977 67.0637 47.663 67.3995C51.9806 69.4875 52.2516 65.6107 56.819 63.6428C59.3831 62.5375 59.3926 60.3787 58.2071 58.3848" fill="#EDE70A"/>
<path d="M52.8727 54.3549C53.4977 54.4643 54.1 54.6778 54.6544 54.9865C56.1067 55.8031 57.3305 56.9717 58.2131 58.3849C58.9908 56.1932 58.6279 54.4727 56.9287 54.1616C55.0574 53.8199 53.5962 53.7091 52.1916 52.7287C50.4617 51.5268 48.944 51.918 47.6289 53.1412L47.914 53.1529C49.7382 53.2613 51.4822 53.6243 52.8632 54.3502" fill="#EDE70A"/>
<path d="M46.7201 54.0816C43.7152 57.48 42.9351 61.9178 44.87 64.3523C44.4224 63.2955 44.2271 62.149 44.2995 61.0036C44.3719 59.8582 44.7101 58.7454 45.2872 57.7534C46.9157 55.0384 50.1845 53.86 52.8689 54.355C51.4784 53.6197 49.7344 53.2661 47.9197 53.1577L47.6345 53.1436C47.3423 53.4123 47.0453 53.7139 46.7201 54.0816Z" fill="#DEC21C"/>
<path d="M54.6528 54.9814C54.0981 54.6743 53.4959 54.4624 52.8711 54.3545C54.7 55.3161 55.9137 56.947 55.9137 59.5252C55.9031 60.6136 55.6189 61.6818 55.0872 62.6316C54.5555 63.5813 53.7934 64.382 52.8711 64.9599C53.9839 64.2854 54.9744 63.4271 55.8006 62.4217C56.8319 61.2257 57.6477 59.8597 58.2116 58.3846C57.3296 56.9696 56.1058 55.7993 54.6528 54.9814Z" fill="#E5CB22"/>
<path d="M52.8691 54.3544C50.1847 53.8595 46.9159 55.0379 45.2874 57.7411C44.7078 58.7344 44.3683 59.8493 44.2959 60.997C44.2235 62.1447 44.4201 63.2935 44.8702 64.3518C45.1214 64.9494 45.4614 65.5056 45.8789 66.0015C46.7619 66.1335 47.654 66.1957 48.5468 66.1877C50.0759 66.2049 51.5773 65.7784 52.8691 64.9598C53.7915 64.382 54.5537 63.5814 55.0854 62.6316C55.6171 61.6818 55.9013 60.6135 55.9117 59.5251C55.9117 56.9468 54.6979 55.316 52.8691 54.3544ZM52.5674 63.7343C51.5746 64.372 50.3697 64.5906 49.2161 64.3424C48.0626 64.0942 47.0542 63.3994 46.4115 62.4098C45.0776 60.3524 45.7375 57.6963 47.7384 56.2822C49.9773 54.6914 52.8479 55.3183 53.8943 57.6067C54.9147 59.8362 54.6343 62.4122 52.5674 63.7343Z" fill="#CCA727"/>
</g>
<defs>
<clipPath id="clip0_108_194">
<rect width="100" height="120" fill="white"/>
</clipPath>
</defs>
</svg>
