<svg width="384" height="512" viewBox="0 0 384 512" fill="none" xmlns="http://www.w3.org/2000/svg">
<g clip-path="url(#clip0_108_231)">
<rect width="384" height="512" fill="white"/>
<path d="M191.297 261.293L186.691 264.499L189.615 251.453L191.297 261.293ZM191.391 261.263L194.196 261.298L189.724 251.503L191.391 261.263ZM194.46 261.047L196.607 253.33L195.795 252.366L194.46 261.047ZM193.425 248.949L189.89 251.257L195.055 249.637L193.425 248.949ZM192.979 248.949L190.785 249.02L190.464 249.908L192.979 248.949Z" fill="#384182"/>
<path d="M195.637 252.072L189.98 251.319L195.078 249.763L195.637 252.072ZM194.297 249.171L194.607 248.353L192.977 247.666L194.297 249.171ZM194.768 248.273L195.135 249.558L197.309 249.001L194.768 248.273Z" fill="#F79534"/>
<path d="M194.319 261.249L189.785 251.414L195.695 252.217L194.319 261.249ZM193.253 248.95L190.458 250.009L189.785 251.213L193.253 248.95ZM191.519 248.147L190.82 248.895L193.139 248.84L191.519 248.147ZM192.74 247.565L191.633 248.062L194.158 249.141L192.74 247.565ZM194.003 247.5H192.813L194.655 248.192L194.003 247.5ZM194.691 248.418L194.407 249.241L194.976 249.507L194.691 248.418Z" fill="#F0513A"/>
</g>
<defs>
<clipPath id="clip0_108_231">
<rect width="384" height="512" fill="white"/>
</clipPath>
</defs>
</svg>
