<svg width="100" height="120" viewBox="0 0 100 120" fill="none" xmlns="http://www.w3.org/2000/svg">
<g clip-path="url(#clip0_108_231)">
<rect width="100" height="120" fill="white"/>
<path d="M49.2975 65.7938L44.6914 69.0001L47.6155 55.9541L49.2975 65.7938ZM49.3907 65.7637L52.1957 65.7988L47.7242 56.0042L49.3907 65.7637ZM52.4596 65.5479L54.6074 57.8307L53.7949 56.8673L52.4596 65.5479ZM51.4246 53.4502L47.8898 55.7584L53.0548 54.1377L51.4246 53.4502ZM50.9795 53.4502L48.7851 53.5205L48.4643 54.4086L50.9795 53.4502Z" fill="#384182"/>
<path d="M53.6372 56.5715L47.9805 55.8189L53.0783 54.2634L53.6372 56.5715ZM52.2968 53.6713L52.6073 52.8534L50.9771 52.166L52.2968 53.6713ZM52.7677 52.7731L53.1352 54.0577L55.3088 53.5007L52.7677 52.7731Z" fill="#F79534"/>
<path d="M52.3188 65.7485L47.7852 55.9138L53.6954 56.7166L52.3188 65.7485ZM51.2527 53.4501L48.458 54.5089L47.7852 55.7131L51.2527 53.4501ZM49.5189 52.6473L48.8202 53.3949L51.1388 53.3397L49.5189 52.6473ZM50.7403 52.0652L49.6328 52.562L52.1583 53.6408L50.7403 52.0652ZM52.0031 52H50.8127L52.6552 52.6924L52.0031 52ZM52.6914 52.9182L52.4068 53.7411L52.976 54.0071L52.6914 52.9182Z" fill="#F0513A"/>
</g>
<defs>
<clipPath id="clip0_108_231">
<rect width="100" height="120" fill="white"/>
</clipPath>
</defs>
</svg>
