<svg width="100" height="120" viewBox="0 0 100 120" fill="none" xmlns="http://www.w3.org/2000/svg">
<g clip-path="url(#clip0_108_236)">
<rect width="100" height="120" fill="white"/>
<rect width="100" height="120" fill="url(#paint0_linear_108_236)"/>
<path fill-rule="evenodd" clip-rule="evenodd" d="M53.2267 59.9267L53.2227 59.928C52.4523 60.0792 50.8875 59.568 51.5427 58.056C53.5587 53.7768 49.0947 51 49.0947 51C49.0947 51 49.3539 52.6704 48.5907 54.336C48.0589 55.3159 47.2582 56.1222 46.4526 56.9335C45.0879 58.308 43.7089 59.6967 43.5987 61.968C43.3803 68.9304 50.3907 69.816 50.3907 69.816C50.7747 68.8272 51.7203 68.1696 52.6467 67.776C54.1299 67.1712 55.7043 66.372 56.1267 64.728C56.9853 61.2439 55.6501 59.698 54.7988 58.7124C54.6198 58.5051 54.4621 58.3225 54.3507 58.152C54.31 59.5635 53.6422 59.7874 53.2267 59.9267ZM54.4485 57.2151C54.4799 57.1298 54.5132 57.0394 54.5665 56.976C54.6226 56.916 54.6918 56.864 54.7643 56.8095C55.0084 56.6261 55.2903 56.4142 55.2385 55.776C55.1844 54.7766 54.6227 54.0699 54.2707 53.6271C54.1857 53.5201 54.1129 53.4286 54.0625 53.352C54.0959 54.1789 53.9294 54.3828 53.7222 54.6366C53.6618 54.7106 53.5979 54.7888 53.5345 54.888C52.4953 56.7864 54.1825 57.432 54.1825 57.432C54.3395 57.5113 54.3908 57.372 54.4485 57.2151ZM46.3351 63.504V61.176H53.6071V63.504H51.1351V65.976H48.8071V63.504H46.3351Z" fill="white"/>
</g>
<defs>
<linearGradient id="paint0_linear_108_236" x1="0" y1="60" x2="100" y2="60" gradientUnits="userSpaceOnUse">
<stop stop-color="#FFA50D"/>
<stop offset="1" stop-color="#FE5413"/>
</linearGradient>
<clipPath id="clip0_108_236">
<rect width="100" height="120" fill="white"/>
</clipPath>
</defs>
</svg>
