<svg width="384" height="512" viewBox="0 0 384 512" fill="none" xmlns="http://www.w3.org/2000/svg">
<g clip-path="url(#clip0_108_239)">
<rect width="384" height="512" fill="#1B1F2B"/>
<path d="M187.316 249.141V249.889V262.111V262.332V262.859L188.009 263.579H195.991L196.684 262.859V262.332V262.111V249.889V249.362V249.141L195.991 248.42H188.009L187.316 249.141Z" fill="url(#paint0_linear_108_239)"/>
<path d="M188.758 262.112H195.243V249.891H188.758V262.112Z" fill="#1B1F2B"/>
<path d="M194.401 258.146H192.761V259.864H191.281V258.146H189.641V256.666H194.401V258.146ZM194.401 253.906H192.761V252.188H191.281V253.906H189.641V255.386H194.401V253.906Z" fill="url(#paint1_linear_108_239)"/>
</g>
<defs>
<linearGradient id="paint0_linear_108_239" x1="185.167" y1="249.597" x2="197.944" y2="263.234" gradientUnits="userSpaceOnUse">
<stop stop-color="#2AB8E6"/>
<stop offset="0.53" stop-color="#29CAD2"/>
<stop offset="1" stop-color="#2EE4BE"/>
</linearGradient>
<linearGradient id="paint1_linear_108_239" x1="189.731" y1="253.736" x2="194.311" y2="258.316" gradientUnits="userSpaceOnUse">
<stop stop-color="#2AB8E6"/>
<stop offset="0.53" stop-color="#29CAD2"/>
<stop offset="1" stop-color="#2EE4BE"/>
</linearGradient>
<clipPath id="clip0_108_239">
<rect width="384" height="512" fill="white"/>
</clipPath>
</defs>
</svg>
