<svg width="100" height="120" viewBox="0 0 100 120" fill="none" xmlns="http://www.w3.org/2000/svg">
<g clip-path="url(#clip0_108_244)">
<rect width="100" height="120" fill="#FF060A"/>
<path d="M57.7824 57.1214C56.9933 56.3856 55.9016 55.2621 55.0126 54.4652L54.96 54.428C54.8724 54.357 54.7737 54.3014 54.668 54.2633C52.5242 53.8596 42.5471 51.9763 42.3525 52.0002C42.2979 52.0079 42.2458 52.0279 42.1999 52.0587L42.1499 52.0985C42.0884 52.1616 42.0417 52.2379 42.0132 52.3216L42 52.3562V52.5447V52.574C43.1232 55.7322 47.558 66.0782 48.4313 68.506C48.4839 68.6706 48.5839 68.9841 48.7706 69H48.8127C48.9127 69 49.3388 68.4316 49.3388 68.4316C49.3388 68.4316 56.9564 59.1029 57.7271 58.1095C57.8269 57.9872 57.915 57.8555 57.9902 57.7164C58.0094 57.6076 58.0003 57.4955 57.9639 57.3913C57.9275 57.287 57.865 57.194 57.7824 57.1214ZM51.2932 58.2078L54.5444 55.4852L56.4514 57.2595L51.2932 58.2078ZM50.0306 58.0298L44.4331 53.3974L53.4896 55.0841L50.0306 58.0298ZM50.5356 59.2437L56.2646 58.3114L49.715 66.28L50.5356 59.2437ZM43.6729 53.8596L49.5624 58.9064L48.7101 66.2854L43.6729 53.8596Z" fill="white"/>
</g>
<defs>
<clipPath id="clip0_108_244">
<rect width="100" height="120" fill="white"/>
</clipPath>
</defs>
</svg>
