<svg width="100" height="120" viewBox="0 0 100 120" fill="none" xmlns="http://www.w3.org/2000/svg">
<g clip-path="url(#clip0_108_247)">
<rect width="100" height="120" fill="#002868"/>
<path d="M56.0488 67.4H43.9528C43.3192 67.4 42.8008 66.8816 42.8008 66.248V54.152C42.8008 53.5184 43.3192 53 43.9528 53H56.0488C56.6824 53 57.2008 53.5184 57.2008 54.152V66.248C57.2008 66.8816 56.6824 67.4 56.0488 67.4Z" fill="white"/>
<path d="M45.6116 65.9504C45.5737 65.9504 45.5429 65.9158 45.5429 65.8779V63.943C45.5429 63.9051 45.5122 63.8706 45.4743 63.8706H44.7912C44.7528 63.8706 44.7188 63.8398 44.7188 63.8019V63.428C44.7188 63.3901 44.7533 63.3555 44.7912 63.3555H46.8937C46.9316 63.3555 46.9661 63.3896 46.9661 63.428V63.8019C46.9661 63.8398 46.9316 63.8706 46.8937 63.8706H46.2145C46.1765 63.8706 46.142 63.9046 46.142 63.943V65.8779C46.142 65.9158 46.1113 65.9504 46.0733 65.9504H45.6116Z" fill="#002868"/>
<path d="M49.0618 63.428C49.0618 63.3901 49.0925 63.3555 49.1304 63.3555H49.5883C49.6262 63.3555 49.6608 63.3896 49.6608 63.428V64.7485C49.6608 65.5309 49.2182 65.985 48.516 65.985C47.8176 65.985 47.3789 65.5309 47.3789 64.7485V63.428C47.3789 63.3901 47.4096 63.3555 47.4475 63.3555H47.9054C47.9434 63.3555 47.9779 63.3896 47.9779 63.428V64.7672C47.9779 65.1526 48.1762 65.4272 48.5198 65.4272C48.8635 65.4272 49.0618 65.1526 49.0618 64.7672V63.428Z" fill="#002868"/>
<path d="M51.7662 64.2026C51.7052 64.2026 51.686 64.1796 51.663 64.134C51.5828 63.9468 51.4072 63.8287 51.1403 63.8287C50.8998 63.8287 50.6977 63.9127 50.6977 64.073C50.6977 64.2487 50.8849 64.3212 51.2968 64.3706C51.9227 64.4431 52.2812 64.6342 52.2812 65.13C52.2812 65.6873 51.7926 65.981 51.1672 65.981C50.6252 65.981 50.1596 65.7175 50.0872 65.1646C50.0795 65.1113 50.1064 65.0921 50.1596 65.0921H50.5796C50.6329 65.0921 50.6636 65.1151 50.679 65.1569C50.7361 65.3402 50.931 65.4814 51.2132 65.4814C51.4614 65.4814 51.6788 65.3897 51.6788 65.1953C51.6788 64.9625 51.4499 64.9207 50.992 64.8631C50.4654 64.7945 50.0992 64.6418 50.0992 64.157C50.0992 63.6722 50.5153 63.3252 51.1676 63.3252C51.7552 63.3252 52.1636 63.642 52.2476 64.1153C52.2592 64.1686 52.2438 64.2031 52.1867 64.2031L51.7662 64.2026Z" fill="#002868"/>
<path d="M52.7991 65.9504C52.7612 65.9504 52.7305 65.9158 52.7305 65.8779V63.428C52.7305 63.3901 52.7612 63.3555 52.7991 63.3555H53.8369C54.6077 63.3555 55.2068 63.8859 55.2068 64.6606C55.2068 65.4238 54.6154 65.9504 53.8369 65.9504H52.7991ZM53.8369 65.4349C54.253 65.4349 54.577 65.1066 54.577 64.6525C54.577 64.1984 54.2525 63.8701 53.833 63.8701H53.402C53.3641 63.8701 53.3333 63.9042 53.3333 63.9426V65.3658C53.3333 65.4037 53.3641 65.4344 53.402 65.4344L53.8369 65.4349Z" fill="#002868"/>
<path d="M56.8162 61.9284H43.1842C43.0786 61.9284 42.9922 61.842 42.9922 61.7364V54.1524C42.9922 53.6244 43.4242 53.1924 43.9522 53.1924H56.0482C56.5762 53.1924 57.0082 53.6244 57.0082 54.1524V61.7364C57.0082 61.842 56.9218 61.9284 56.8162 61.9284Z" fill="#002868"/>
<path d="M50.7084 60.3707H49.4604C49.3812 60.3707 49.3164 60.3059 49.3164 60.2267V54.9467C49.3164 54.8675 49.3812 54.8027 49.4604 54.8027H50.7084C50.7876 54.8027 50.8524 54.8675 50.8524 54.9467V60.2267C50.8524 60.3059 50.7876 60.3707 50.7084 60.3707Z" fill="white"/>
<path d="M52.8314 56.3387H47.1674C47.0882 56.3387 47.0234 56.2739 47.0234 56.1947V54.9467C47.0234 54.8675 47.0882 54.8027 47.1674 54.8027H52.8314C52.9106 54.8027 52.9754 54.8675 52.9754 54.9467V56.1947C52.9754 56.2739 52.9106 56.3387 52.8314 56.3387Z" fill="white"/>
</g>
<defs>
<clipPath id="clip0_108_247">
<rect width="100" height="120" fill="white"/>
</clipPath>
</defs>
</svg>
