<svg width="384" height="512" viewBox="0 0 384 512" fill="none" xmlns="http://www.w3.org/2000/svg">
<g clip-path="url(#clip0_108_247)">
<rect width="384" height="512" fill="#002868"/>
<path d="M198.049 263.201H185.953C185.319 263.201 184.801 262.682 184.801 262.049V249.953C184.801 249.319 185.319 248.801 185.953 248.801H198.049C198.682 248.801 199.201 249.319 199.201 249.953V262.049C199.201 262.682 198.682 263.201 198.049 263.201Z" fill="white"/>
<path d="M187.612 261.751C187.574 261.751 187.543 261.717 187.543 261.679V259.744C187.543 259.706 187.512 259.671 187.474 259.671H186.791C186.753 259.671 186.719 259.641 186.719 259.603V259.229C186.719 259.191 186.753 259.156 186.791 259.156H188.894C188.932 259.156 188.966 259.19 188.966 259.229V259.603C188.966 259.641 188.932 259.671 188.894 259.671H188.214C188.176 259.671 188.142 259.705 188.142 259.744V261.679C188.142 261.717 188.111 261.751 188.073 261.751H187.612Z" fill="#002868"/>
<path d="M191.062 259.229C191.062 259.191 191.093 259.156 191.13 259.156H191.588C191.626 259.156 191.661 259.19 191.661 259.229V260.549C191.661 261.332 191.218 261.786 190.516 261.786C189.818 261.786 189.379 261.332 189.379 260.549V259.229C189.379 259.191 189.41 259.156 189.448 259.156H189.905C189.943 259.156 189.978 259.19 189.978 259.229V260.568C189.978 260.953 190.176 261.228 190.52 261.228C190.864 261.228 191.062 260.953 191.062 260.568V259.229Z" fill="#002868"/>
<path d="M193.766 260.002C193.705 260.002 193.686 259.979 193.663 259.934C193.583 259.747 193.407 259.628 193.14 259.628C192.9 259.628 192.698 259.713 192.698 259.873C192.698 260.049 192.885 260.121 193.297 260.17C193.923 260.243 194.281 260.434 194.281 260.93C194.281 261.487 193.793 261.781 193.167 261.781C192.625 261.781 192.16 261.517 192.087 260.964C192.08 260.911 192.106 260.892 192.16 260.892H192.58C192.633 260.892 192.664 260.915 192.679 260.957C192.736 261.14 192.931 261.281 193.213 261.281C193.461 261.281 193.679 261.19 193.679 260.995C193.679 260.762 193.45 260.721 192.992 260.663C192.465 260.594 192.099 260.442 192.099 259.957C192.099 259.472 192.515 259.125 193.168 259.125C193.755 259.125 194.164 259.442 194.248 259.915C194.259 259.968 194.244 260.003 194.187 260.003L193.766 260.002Z" fill="#002868"/>
<path d="M194.799 261.751C194.761 261.751 194.73 261.717 194.73 261.679V259.229C194.73 259.191 194.761 259.156 194.799 259.156H195.837C196.608 259.156 197.207 259.687 197.207 260.461C197.207 261.225 196.615 261.751 195.837 261.751H194.799ZM195.837 261.236C196.253 261.236 196.577 260.907 196.577 260.453C196.577 259.999 196.252 259.671 195.833 259.671H195.402C195.364 259.671 195.333 259.705 195.333 259.743V261.167C195.333 261.204 195.364 261.235 195.402 261.235L195.837 261.236Z" fill="#002868"/>
<path d="M198.816 257.728H185.184C185.079 257.728 184.992 257.642 184.992 257.536V249.952C184.992 249.424 185.424 248.992 185.952 248.992H198.048C198.576 248.992 199.008 249.424 199.008 249.952V257.536C199.008 257.642 198.922 257.728 198.816 257.728Z" fill="#002868"/>
<path d="M192.708 256.172H191.46C191.381 256.172 191.316 256.107 191.316 256.028V250.748C191.316 250.668 191.381 250.604 191.46 250.604H192.708C192.788 250.604 192.852 250.668 192.852 250.748V256.028C192.852 256.107 192.788 256.172 192.708 256.172Z" fill="white"/>
<path d="M194.831 252.14H189.167C189.088 252.14 189.023 252.075 189.023 251.996V250.748C189.023 250.668 189.088 250.604 189.167 250.604H194.831C194.911 250.604 194.975 250.668 194.975 250.748V251.996C194.975 252.075 194.911 252.14 194.831 252.14Z" fill="white"/>
</g>
<defs>
<clipPath id="clip0_108_247">
<rect width="384" height="512" fill="white"/>
</clipPath>
</defs>
</svg>
