<svg width="384" height="512" viewBox="0 0 384 512" fill="none" xmlns="http://www.w3.org/2000/svg">
<g clip-path="url(#clip0_108_257)">
<rect width="384" height="512" fill="#1E67F6"/>
<path fill-rule="evenodd" clip-rule="evenodd" d="M192.928 254.739C195.693 255.405 196.875 256.473 196.875 258.365C196.875 260.293 195.31 261.573 193 261.765V263.5H191.418V261.748C189.856 261.572 188.371 260.972 187.125 260.013L188.289 258.418C189.326 259.224 190.308 259.75 191.491 259.926V256.49C188.835 255.824 187.598 254.861 187.598 252.881C187.598 250.988 189.144 249.692 191.418 249.516V248.5H193V249.552C194.237 249.689 195.416 250.148 196.42 250.884L195.401 252.531C194.601 251.952 193.783 251.584 192.928 251.408V254.739ZM189.745 252.758C189.745 253.494 190.09 253.967 191.49 254.37L191.491 251.286C190.345 251.374 189.745 251.987 189.745 252.758ZM192.928 259.995C194.074 259.907 194.729 259.329 194.729 258.488C194.729 257.699 194.347 257.227 192.928 256.823V259.995Z" fill="white"/>
</g>
<defs>
<clipPath id="clip0_108_257">
<rect width="384" height="512" fill="white"/>
</clipPath>
</defs>
</svg>
