<svg width="384" height="512" viewBox="0 0 384 512" fill="none" xmlns="http://www.w3.org/2000/svg">
<g clip-path="url(#clip0_108_260)">
<rect width="384" height="512" fill="#2775CA"/>
<path d="M195.302 257.749C195.302 255.999 194.252 255.399 192.152 255.149C190.652 254.949 190.352 254.549 190.352 253.849C190.352 253.149 190.852 252.699 191.852 252.699C192.752 252.699 193.252 252.999 193.502 253.749C193.552 253.899 193.702 253.999 193.852 253.999H194.651C194.852 253.999 195.002 253.849 195.002 253.649V253.599C194.801 252.499 193.901 251.649 192.752 251.549V250.349C192.752 250.149 192.602 249.999 192.352 249.949H191.602C191.402 249.949 191.252 250.099 191.201 250.349V251.499C189.701 251.699 188.752 252.699 188.752 253.949C188.752 255.599 189.752 256.249 191.852 256.499C193.252 256.749 193.702 257.049 193.702 257.849C193.702 258.649 193.001 259.199 192.052 259.199C190.751 259.199 190.301 258.649 190.151 257.899C190.102 257.699 189.952 257.599 189.802 257.599H188.951C188.752 257.599 188.602 257.749 188.602 257.949V257.999C188.801 259.249 189.602 260.149 191.252 260.399V261.599C191.252 261.799 191.402 261.949 191.651 261.999H192.401C192.602 261.999 192.752 261.849 192.802 261.599V260.399C194.302 260.149 195.302 259.099 195.302 257.749Z" fill="white"/>
<path d="M189.451 263C185.551 261.6 183.551 257.25 185.001 253.4C185.751 251.3 187.401 249.7 189.451 248.95C189.651 248.85 189.751 248.7 189.751 248.45V247.75C189.751 247.55 189.651 247.4 189.451 247.35C189.401 247.35 189.301 247.35 189.251 247.4C184.501 248.9 181.901 253.95 183.401 258.7C184.301 261.5 186.451 263.65 189.251 264.55C189.451 264.65 189.651 264.55 189.701 264.35C189.751 264.3 189.751 264.25 189.751 264.15V263.45C189.751 263.3 189.601 263.1 189.451 263ZM194.751 247.4C194.551 247.3 194.351 247.4 194.301 247.6C194.251 247.65 194.251 247.7 194.251 247.8V248.5C194.251 248.7 194.401 248.9 194.551 249C198.451 250.4 200.451 254.75 199.001 258.6C198.251 260.7 196.601 262.3 194.551 263.05C194.351 263.15 194.251 263.3 194.251 263.55V264.25C194.251 264.45 194.351 264.6 194.551 264.65C194.601 264.65 194.701 264.65 194.751 264.6C199.501 263.1 202.101 258.05 200.601 253.3C199.701 250.45 197.501 248.3 194.751 247.4Z" fill="white"/>
</g>
<defs>
<clipPath id="clip0_108_260">
<rect width="384" height="512" fill="white"/>
</clipPath>
</defs>
</svg>
