<svg width="384" height="512" viewBox="0 0 384 512" fill="none" xmlns="http://www.w3.org/2000/svg">
<g clip-path="url(#clip0_108_264)">
<rect width="384" height="512" fill="#26A17B"/>
<path d="M193.478 253.798V252.011H197.562V249.291H186.445V252.011H190.528V253.798C187.212 253.951 184.715 254.608 184.715 255.394C184.715 256.181 187.212 256.838 190.528 256.991V262.708H193.482V256.991C196.795 256.838 199.285 256.181 199.285 255.394C199.282 254.608 196.792 253.951 193.478 253.798ZM193.482 256.508C193.398 256.511 192.972 256.538 192.018 256.538C191.255 256.538 190.722 256.518 190.532 256.508V256.511C187.602 256.381 185.412 255.871 185.412 255.261C185.412 254.651 187.598 254.141 190.532 254.011V255.998C190.725 256.011 191.272 256.044 192.032 256.044C192.942 256.044 193.398 256.008 193.485 255.998V254.004C196.412 254.134 198.595 254.644 198.595 255.254C198.588 255.864 196.405 256.374 193.482 256.508Z" fill="white"/>
</g>
<defs>
<clipPath id="clip0_108_264">
<rect width="384" height="512" fill="white"/>
</clipPath>
</defs>
</svg>
