<svg width="100" height="120" viewBox="0 0 100 120" fill="none" xmlns="http://www.w3.org/2000/svg">
<g clip-path="url(#clip0_108_264)">
<rect width="100" height="120" fill="#26A17B"/>
<path d="M51.7634 57.5067V55.72H55.8467V53H44.73V55.72H48.8134V57.5067C45.4967 57.66 43 58.3167 43 59.1033C43 59.89 45.4967 60.5467 48.8134 60.7V66.4166H51.7667V60.7C55.08 60.5467 57.57 59.89 57.57 59.1033C57.5667 58.3167 55.0767 57.66 51.7634 57.5067ZM51.7667 60.2167C51.6834 60.22 51.2567 60.2467 50.3034 60.2467C49.54 60.2467 49.0067 60.2267 48.8167 60.2167V60.22C45.8867 60.09 43.6967 59.58 43.6967 58.97C43.6967 58.36 45.8834 57.85 48.8167 57.72V59.7067C49.01 59.72 49.5567 59.7533 50.3167 59.7533C51.2267 59.7533 51.6834 59.7167 51.77 59.7067V57.7133C54.6967 57.8433 56.88 58.3533 56.88 58.9633C56.8734 59.5733 54.69 60.0833 51.7667 60.2167Z" fill="white"/>
</g>
<defs>
<clipPath id="clip0_108_264">
<rect width="100" height="120" fill="white"/>
</clipPath>
</defs>
</svg>
