<svg width="384" height="512" viewBox="0 0 384 512" fill="none" xmlns="http://www.w3.org/2000/svg">
<g clip-path="url(#clip0_108_273)">
<rect width="384" height="512" fill="#FAA00D"/>
<path d="M199.494 254.103L192.392 262.361L192.073 262.75L184.505 254.187L184.529 254.177L184.5 254.172L187.441 249.255L187.443 249.256L187.441 249.25H196.632L196.631 249.255L199.5 254.103L199.494 254.103ZM189.642 254.448L188.014 257.203L192.028 261.787L196.051 257.166L194.459 254.439L189.642 254.448ZM187.559 256.683L188.878 254.448L185.607 254.454L187.559 256.683ZM194.851 253.798L198.566 253.792L196.234 249.886L192.572 249.894L194.851 253.798ZM198.429 254.433L195.224 254.438L196.509 256.639L198.429 254.433ZM194.086 253.799L192.068 250.34L190.02 253.806L194.086 253.799ZM187.786 249.904L185.462 253.814L189.257 253.807L191.566 249.896L187.786 249.904Z" fill="white"/>
</g>
<defs>
<clipPath id="clip0_108_273">
<rect width="384" height="512" fill="white"/>
</clipPath>
</defs>
</svg>
