<svg width="100" height="120" viewBox="0 0 100 120" fill="none" xmlns="http://www.w3.org/2000/svg">
<g clip-path="url(#clip0_108_273)">
<rect width="100" height="120" fill="#FAA00D"/>
<path d="M56.994 57.8532L49.8923 66.1108L49.5735 66.5L42.0052 57.9365L42.0293 57.9268L42 57.9222L44.9415 53.0045L44.943 53.006L44.9415 53H54.132L54.1305 53.0052L57 57.8525L56.994 57.8532ZM47.142 58.1975L45.5145 60.953L49.5285 65.537L53.5507 60.9155L51.9592 58.1892L47.142 58.1975ZM45.0585 60.4325L46.3785 58.1982L43.107 58.2035L45.0585 60.4325ZM52.3508 57.548L56.0662 57.542L53.7338 53.636L50.0723 53.6435L52.3508 57.548ZM55.929 58.1825L52.7242 58.1877L54.009 60.389L55.929 58.1825ZM51.5858 57.5495L49.5675 54.0905L47.52 57.5555L51.5858 57.5495ZM45.2865 53.654L42.9615 57.5638L46.7565 57.557L49.0665 53.6465L45.2865 53.654Z" fill="white"/>
</g>
<defs>
<clipPath id="clip0_108_273">
<rect width="100" height="120" fill="white"/>
</clipPath>
</defs>
</svg>
