<svg width="384" height="512" viewBox="0 0 384 512" fill="none" xmlns="http://www.w3.org/2000/svg">
<g clip-path="url(#clip0_108_276)">
<rect width="384" height="512" fill="black"/>
<path d="M197.652 250.832L195.756 251.847L186.598 256.748C186.567 256.5 186.551 256.25 186.551 255.999C186.552 255.001 186.802 254.02 187.275 253.154C187.748 252.288 188.428 251.567 189.248 251.062C190.068 250.557 191 250.286 191.95 250.276C192.9 250.265 193.837 250.516 194.667 251.003L195.752 250.422L195.914 250.335C194.92 249.577 193.745 249.122 192.52 249.021C191.295 248.921 190.068 249.178 188.973 249.764C187.878 250.35 186.959 251.243 186.318 252.344C185.676 253.445 185.336 254.711 185.336 256.001C185.336 256.18 185.343 256.357 185.356 256.534C185.374 256.785 185.321 257.035 185.204 257.254C185.087 257.473 184.91 257.651 184.697 257.765L184.125 258.072V259.502L185.81 258.599L186.356 258.307L186.894 258.019L196.548 252.851L197.633 252.271L199.875 251.07V249.641L197.652 250.832Z" fill="white"/>
<path d="M199.875 252.502L187.442 259.153L186.357 259.734L184.125 260.929V262.358L186.342 261.172L188.238 260.157L197.406 255.249C197.437 255.499 197.452 255.75 197.452 256.002C197.452 257.002 197.202 257.984 196.729 258.851C196.255 259.718 195.574 260.44 194.753 260.945C193.931 261.45 192.999 261.721 192.047 261.73C191.096 261.739 190.158 261.487 189.329 260.998L189.262 261.035L188.085 261.665C189.079 262.424 190.254 262.878 191.478 262.979C192.703 263.08 193.931 262.824 195.025 262.238C196.12 261.652 197.039 260.759 197.681 259.659C198.323 258.558 198.663 257.293 198.664 256.002C198.664 255.822 198.657 255.642 198.644 255.465C198.626 255.214 198.679 254.964 198.796 254.745C198.913 254.526 199.089 254.348 199.302 254.234L199.875 253.927V252.502Z" fill="white"/>
</g>
<defs>
<clipPath id="clip0_108_276">
<rect width="384" height="512" fill="white"/>
</clipPath>
</defs>
</svg>
