<svg width="384" height="512" viewBox="0 0 384 512" fill="none" xmlns="http://www.w3.org/2000/svg">
<g clip-path="url(#clip0_108_280)">
<rect width="384" height="512" fill="white"/>
<path d="M192.001 244C185.376 244 179.995 249.38 180.004 255.998C180.006 257.323 180.217 258.596 180.613 259.788H184.203V249.694L192.001 257.492L199.799 249.694V259.788H203.389C203.786 258.597 203.996 257.323 203.999 255.999C204.01 249.373 198.626 244.002 192.001 244.002V244Z" fill="#F26822"/>
<path d="M190.206 259.284L186.803 255.881V262.232H184.201L181.746 262.233C183.852 265.688 187.658 267.999 192 267.999C196.341 267.999 200.148 265.687 202.254 262.232H197.196V255.881L193.792 259.284L191.999 261.077L190.206 259.284Z" fill="#4D4D4D"/>
</g>
<defs>
<clipPath id="clip0_108_280">
<rect width="384" height="512" fill="white"/>
</clipPath>
</defs>
</svg>
