<svg width="100" height="120" viewBox="0 0 100 120" fill="none" xmlns="http://www.w3.org/2000/svg">
<g clip-path="url(#clip0_108_280)">
<rect width="100" height="120" fill="white"/>
<path d="M50.0011 48C43.3764 48 37.9955 53.3799 38.0039 59.9984C38.0056 61.3226 38.2167 62.5964 38.613 63.7878H42.2029V53.6941L50.0011 61.4923L57.7989 53.6941V63.788H61.3895C61.7864 62.5966 61.9965 61.3229 61.9988 59.9986C62.0101 53.3732 56.6264 48.0016 50.0011 48.0016V48Z" fill="#F26822"/>
<path d="M48.2064 63.2842L44.8032 59.8809V66.2324H42.2013L39.7461 66.2328C41.8521 69.6879 45.6581 71.9992 49.9998 71.9992C54.3414 71.9992 58.1477 69.6874 60.254 66.2323H55.1956V59.8809L51.7922 63.2842L49.9994 65.077L48.2064 63.2842Z" fill="#4D4D4D"/>
</g>
<defs>
<clipPath id="clip0_108_280">
<rect width="100" height="120" fill="white"/>
</clipPath>
</defs>
</svg>
