<svg viewBox="0 0 24 24" xmlns="http://www.w3.org/2000/svg">
<g clip-path="url(#clip0_961_1507)">
<path stroke-width="0" d="M15.9993 12C15.9998 12.2336 15.9184 12.4601 15.7693 12.64L10.7693 18.64C10.5996 18.8442 10.3556 18.9726 10.0912 18.997C9.8268 19.0214 9.56352 18.9397 9.3593 18.77C9.15508 18.6002 9.02666 18.3563 9.00228 18.0919C8.9779 17.8275 9.05956 17.5642 9.2293 17.36L13.7093 12L9.3893 6.63997C9.30623 6.53768 9.2442 6.41998 9.20677 6.29364C9.16934 6.16731 9.15724 6.03482 9.17118 5.90379C9.18512 5.77276 9.22482 5.64578 9.28799 5.53014C9.35117 5.4145 9.43657 5.31249 9.5393 5.22997C9.64212 5.13839 9.76275 5.06903 9.89362 5.02624C10.0245 4.98344 10.1628 4.96814 10.2999 4.98128C10.4369 4.99443 10.5698 5.03573 10.6901 5.10262C10.8105 5.1695 10.9158 5.26052 10.9993 5.36997L15.8293 11.37C15.9548 11.5551 16.0147 11.7769 15.9993 12V12Z" />
</g>
<defs>
<clipPath id="clip0_961_1507">
<rect stroke-width="0" width="24" height="24" transform="translate(0 24) rotate(-90)"/>
</clipPath>
</defs>
</svg>
