<svg viewBox="0 0 20 20" xmlns="http://www.w3.org/2000/svg">
<path stroke-width="0" d="M17.7209 15.5588H17.1033V3.2059C17.1033 3.04209 17.0382 2.88499 16.9224 2.76916C16.8066 2.65333 16.6494 2.58826 16.4856 2.58826H12.1621C11.9983 2.58826 11.8412 2.65333 11.7254 2.76916C11.6095 2.88499 11.5445 3.04209 11.5445 3.2059V6.29414H7.83858C7.67477 6.29414 7.51767 6.35921 7.40184 6.47505C7.28601 6.59088 7.22093 6.74798 7.22093 6.91179V10H3.51505C3.35124 10 3.19414 10.0651 3.07831 10.1809C2.96248 10.2968 2.89741 10.4539 2.8974 10.6177V15.5588H2.27976C2.11595 15.5588 1.95885 15.6239 1.84301 15.7397C1.72718 15.8556 1.66211 16.0127 1.66211 16.1765C1.66211 16.3403 1.72718 16.4974 1.84301 16.6132C1.95885 16.7291 2.11595 16.7941 2.27976 16.7941H17.7209C17.8847 16.7941 18.0418 16.7291 18.1577 16.6132C18.2735 16.4974 18.3386 16.3403 18.3386 16.1765C18.3386 16.0127 18.2735 15.8556 18.1577 15.7397C18.0418 15.6239 17.8847 15.5588 17.7209 15.5588ZM8.45623 7.52943H11.5445V15.5588H8.45623V7.52943ZM4.1327 11.2353H7.22093V15.5588H4.1327V11.2353Z" fill="white"/>
</svg>

