<svg viewBox="0 0 24 24" xmlns="http://www.w3.org/2000/svg">
<path stroke-width="0" d="M19.8284 12.1158C20.4673 11.5663 21.0548 10.9596 21.5835 10.3033C21.7083 10.1486 21.7666 9.95061 21.7455 9.75292C21.7245 9.55523 21.6258 9.374 21.4711 9.24906C21.3165 9.12412 21.1185 9.0657 20.9208 9.08663C20.7231 9.10756 20.5418 9.20614 20.4168 9.36069C19.8301 10.0907 19.1605 10.75 18.4213 11.3251C18.4163 11.3287 18.4117 11.3326 18.4068 11.3364C16.5766 12.7598 14.3186 13.5223 12.0001 13.5C9.68107 13.5224 7.42265 12.7595 5.59219 11.3354C5.58647 11.331 5.58108 11.3264 5.5752 11.3222C4.83752 10.7477 4.16911 10.0895 3.58343 9.36069C3.52153 9.28408 3.44516 9.22041 3.35866 9.17332C3.27216 9.12623 3.17723 9.09663 3.07929 9.08623C2.98136 9.07582 2.88233 9.08481 2.78786 9.11267C2.6934 9.14054 2.60535 9.18674 2.52874 9.24863C2.45213 9.31053 2.38846 9.3869 2.34137 9.4734C2.29428 9.5599 2.26468 9.65483 2.25428 9.75277C2.24387 9.8507 2.25286 9.94973 2.28072 10.0442C2.30859 10.1387 2.35479 10.2267 2.41668 10.3033C2.94435 10.9583 3.53058 11.5639 4.16811 12.1125L2.34023 15.2785C2.29099 15.3638 2.25902 15.4579 2.24616 15.5556C2.23331 15.6532 2.23981 15.7524 2.26529 15.8476C2.29078 15.9427 2.33476 16.0319 2.39471 16.11C2.45466 16.1881 2.52942 16.2537 2.61471 16.303C2.7 16.3522 2.79415 16.3842 2.8918 16.397C2.98944 16.4099 3.08866 16.4034 3.18379 16.3779C3.27892 16.3524 3.3681 16.3084 3.44624 16.2485C3.52438 16.1885 3.58994 16.1138 3.63918 16.0285L5.37262 13.0261C6.38671 13.7058 7.50185 14.221 8.67678 14.5525L8.13168 17.6442C8.09717 17.8401 8.14189 18.0417 8.25599 18.2046C8.3701 18.3675 8.54425 18.4785 8.74014 18.513C8.78343 18.5206 8.82729 18.5245 8.87124 18.5245C9.04742 18.5242 9.2179 18.462 9.35278 18.3486C9.48767 18.2353 9.57836 18.0781 9.60897 17.9046L10.145 14.8645C11.3723 15.0447 12.6194 15.0451 13.8469 14.8658L14.383 17.9059C14.4136 18.0793 14.5043 18.2365 14.6392 18.3498C14.7741 18.4632 14.9445 18.5254 15.1207 18.5257C15.1647 18.5256 15.2086 18.5218 15.2519 18.5142C15.4478 18.4796 15.6219 18.3687 15.736 18.2057C15.8501 18.0428 15.8948 17.8412 15.8603 17.6453L15.3153 14.5549C16.4917 14.2239 17.6082 13.7088 18.6236 13.0288L20.3469 16.0136C20.4464 16.1859 20.6102 16.3116 20.8023 16.3631C20.9944 16.4145 21.1991 16.3876 21.3714 16.2881C21.5436 16.1887 21.6693 16.0249 21.7208 15.8327C21.7723 15.6406 21.7453 15.4359 21.6459 15.2636L19.8284 12.1158Z" />
</svg>
