<svg viewBox="0 0 24 24" xmlns="http://www.w3.org/2000/svg">
<g clip-path="url(#clip0_396_51995)">
<path stroke-width="0" d="M7.85125 12.9809C7.85151 12.9809 7.85177 12.981 7.85196 12.9812L10.4754 15.6844C10.6637 15.8784 10.6637 16.1868 10.4754 16.3808L9.96715 16.9046C9.77888 17.0986 9.77894 17.4072 9.96728 17.6011L10.4768 18.1258C10.6652 18.3198 10.6652 18.6285 10.4768 18.8225L9.98871 19.3251C9.79233 19.5273 9.46767 19.5273 9.27129 19.3251L7.91455 17.9279C7.71816 17.7256 7.39351 17.7256 7.19712 17.9279L5.54371 19.6306C5.34733 19.8328 5.02267 19.8328 4.82629 19.6306L4.33817 19.1279C4.14981 18.9339 4.14978 18.6253 4.33811 18.4313L6.03266 16.6856C6.22101 16.4916 6.22095 16.1829 6.03253 15.989L4.63504 14.5504C4.44659 14.3564 4.44655 14.0477 4.63497 13.8537L5.12308 13.351C5.31942 13.1488 5.64398 13.1487 5.84038 13.3509L6.30783 13.8319C6.50428 14.0341 6.82894 14.034 7.02525 13.8317L7.85054 12.9812C7.85072 12.981 7.85098 12.9809 7.85125 12.9809ZM4.45799 4.50085C4.45776 4.22437 4.68195 4.0002 4.95842 4.00044L7.21811 4.00241C7.35312 4.00252 7.48235 4.05724 7.5764 4.1541L16.9739 13.8328C17.1702 14.035 17.4948 14.035 17.6912 13.8329L18.1596 13.3509C18.356 13.1487 18.6806 13.1488 18.8769 13.351L19.3652 13.8538C19.5535 14.0478 19.5536 14.3564 19.3652 14.5504L17.968 15.9898C17.7797 16.1838 17.7797 16.4924 17.968 16.6863L19.6619 18.4313C19.8502 18.6253 19.8502 18.9339 19.6618 19.1279L19.1737 19.6306C18.9773 19.8328 18.6527 19.8328 18.4563 19.6306L16.8029 17.9279C16.6065 17.7256 16.2818 17.7256 16.0855 17.9279L14.7287 19.3251C14.5323 19.5273 14.2077 19.5273 14.0113 19.3251L13.5231 18.8223C13.3348 18.6284 13.3347 18.3198 13.523 18.1258L14.032 17.6012C14.2203 17.4072 14.2202 17.0987 14.0319 16.9047L4.60121 7.19275C4.5107 7.09954 4.46003 6.97476 4.45992 6.84484L4.45799 4.50085ZM16.4258 4.15182C16.52 4.05478 16.6496 4.00007 16.7849 4.00018L19.0431 4.00215C19.319 4.00239 19.5426 4.22601 19.5427 4.50188L19.544 6.84009C19.5441 6.97027 19.4934 7.09534 19.4027 7.18873L16.5062 10.1709C16.3098 10.3731 15.9852 10.3731 15.7888 10.1709L13.5225 7.83766C13.3341 7.64364 13.3341 7.33494 13.5225 7.14092L16.4258 4.15182Z" />
</g>
<defs>
<clipPath id="clip0_396_51995">
<rect stroke-width="0" width="24" height="24" />
</clipPath>
</defs>
</svg>
