<svg viewBox="0 0 32 32" xmlns="http://www.w3.org/2000/svg">
<path d="M10.6666 16C10.666 15.6885 10.7745 15.3866 10.9733 15.1467L17.64 7.14671C17.8663 6.87442 18.1915 6.70319 18.5441 6.67068C18.8966 6.63817 19.2477 6.74706 19.52 6.97338C19.7923 7.19969 19.9635 7.52491 19.996 7.87748C20.0285 8.23005 19.9196 8.58109 19.6933 8.85338L13.72 16L19.48 23.1467C19.5907 23.2831 19.6734 23.44 19.7233 23.6085C19.7733 23.7769 19.7894 23.9536 19.7708 24.1283C19.7522 24.303 19.6993 24.4723 19.6151 24.6265C19.5308 24.7807 19.4169 24.9167 19.28 25.0267C19.1429 25.1488 18.982 25.2413 18.8075 25.2984C18.6331 25.3554 18.4486 25.3758 18.2659 25.3583C18.0831 25.3408 17.906 25.2857 17.7455 25.1965C17.585 25.1073 17.4447 24.986 17.3333 24.84L10.8933 16.84C10.726 16.5933 10.6462 16.2975 10.6666 16Z" />
</svg>
