<svg viewBox="0 0 24 24" xmlns="http://www.w3.org/2000/svg">
<path stroke-width="0" d="M21.1818 6.82808C21.1788 6.82258 21.1765 6.81691 21.1733 6.81144C21.1708 6.80707 21.1679 6.80317 21.1653 6.79888C21.0318 6.57294 20.8414 6.386 20.6131 6.25672L12.7381 1.80564C12.5127 1.67912 12.2585 1.61267 12 1.61267C11.7415 1.61267 11.4873 1.67912 11.2619 1.80564L3.38691 6.25675C3.15474 6.38813 2.96183 6.57906 2.82807 6.80986C2.82669 6.81229 2.82505 6.81446 2.82367 6.81691C2.82125 6.82122 2.81951 6.8257 2.81717 6.83003C2.69145 7.05373 2.62528 7.30597 2.625 7.56258V16.4374C2.62525 16.703 2.69589 16.9637 2.82973 17.1931C2.96357 17.4225 3.15583 17.6123 3.38691 17.7432L11.2619 22.1943C11.4714 22.3121 11.7062 22.3777 11.9464 22.3856C11.9616 22.3867 11.9767 22.3883 11.9923 22.3884C11.9949 22.3885 11.9975 22.3885 12.0002 22.3885C12.0209 22.3885 12.0414 22.3871 12.0617 22.3854C12.2991 22.3762 12.531 22.3107 12.7381 22.1943L20.6131 17.7432C20.8442 17.6123 21.0364 17.4225 21.1703 17.1931C21.3041 16.9637 21.3748 16.703 21.375 16.4374V7.56258C21.3747 7.30522 21.3082 7.05226 21.1818 6.82808ZM12 3.1115L19.1075 7.12876L12.0953 11.1385L4.90585 7.12123L12 3.1115ZM12.7622 20.4576L12.845 12.4377L19.875 8.4178V16.4374L12.7622 20.4576Z" />
</svg>
