<svg viewBox="0 0 24 23" xmlns="http://www.w3.org/2000/svg">
<path stroke="none" d="M12.4135 17.1361L17.1419 20.007C17.7463 20.374 18.4967 19.8282 18.3173 19.1521L16.9512 14.002C16.9127 13.8586 16.9173 13.7076 16.9643 13.5665C17.0114 13.4255 17.0991 13.3 17.2172 13.2045L21.4573 9.82252C22.0144 9.37813 21.7269 8.49205 21.0111 8.44753L15.4738 8.10313C15.3247 8.09292 15.1816 8.04231 15.0613 7.95721C14.941 7.8721 14.8484 7.756 14.7943 7.62241L12.7292 2.63851C12.673 2.49672 12.5732 2.37466 12.443 2.28852C12.3127 2.20238 12.1582 2.15625 12 2.15625C11.8418 2.15625 11.6873 2.20238 11.557 2.28852C11.4268 2.37466 11.327 2.49672 11.2708 2.63851L9.20568 7.62241C9.15157 7.756 9.05897 7.8721 8.93868 7.95721C8.81838 8.04231 8.67533 8.09292 8.52618 8.10313L2.98894 8.44753C2.27315 8.49205 1.9856 9.37813 2.54272 9.82252L6.78278 13.2045C6.90095 13.3 6.9886 13.4255 7.03566 13.5665C7.08272 13.7076 7.08727 13.8586 7.0488 14.002L5.78188 18.7781C5.56667 19.5894 6.46715 20.2444 7.19243 19.804L11.5865 17.1361C11.71 17.0607 11.8535 17.0207 12 17.0207C12.1465 17.0207 12.29 17.0607 12.4135 17.1361Z" />
</svg>
