<svg viewBox="0 0 20 20" xmlns="http://www.w3.org/2000/svg">
<path stroke-width="0" d="M17.9995 5.83333C18.0074 5.77527 18.0074 5.7164 17.9995 5.65833C17.9923 5.60941 17.9782 5.56173 17.9578 5.51667C17.9358 5.47594 17.9108 5.43694 17.8828 5.4C17.8511 5.34729 17.8118 5.29956 17.7662 5.25833L17.6662 5.2C17.6181 5.16413 17.5647 5.13601 17.5078 5.11667H17.3412C17.2904 5.0675 17.2311 5.02796 17.1662 5H12.9995C12.7785 5 12.5665 5.0878 12.4103 5.24408C12.254 5.40036 12.1662 5.61232 12.1662 5.83333C12.1662 6.05435 12.254 6.26631 12.4103 6.42259C12.5665 6.57887 12.7785 6.66667 12.9995 6.66667H15.3578L12.0245 10.5917L8.42451 8.45C8.254 8.34858 8.0529 8.31133 7.85737 8.34493C7.66184 8.37854 7.48471 8.4808 7.35785 8.63333L3.19118 13.6333C3.12101 13.7175 3.06815 13.8148 3.03561 13.9194C3.00307 14.0241 2.9915 14.1342 3.00157 14.2433C3.01163 14.3525 3.04313 14.4585 3.09425 14.5555C3.14538 14.6525 3.21513 14.7384 3.29951 14.8083C3.44944 14.9326 3.63814 15.0004 3.83285 15C3.95527 15.0002 4.07624 14.9734 4.18714 14.9216C4.29804 14.8697 4.39616 14.7941 4.47451 14.7L8.18285 10.25L11.7412 12.3833C11.91 12.4834 12.1086 12.5208 12.3022 12.4888C12.4959 12.4567 12.6719 12.3574 12.7995 12.2083L16.3328 8.08333V10C16.3328 10.221 16.4206 10.433 16.5769 10.5893C16.7332 10.7455 16.9452 10.8333 17.1662 10.8333C17.3872 10.8333 17.5992 10.7455 17.7554 10.5893C17.9117 10.433 17.9995 10.221 17.9995 10V5.83333Z" />
</svg>
