<svg viewBox="0 0 173 60" fill="none" xmlns="http://www.w3.org/2000/svg">
<path d="M68.3022 20.31H82.1528V23.28H76.8027V39.21H73.6795V23.28H68.3022V20.31Z" fill="white"/>
<path d="M95.0852 33.702H84.2764C84.4937 34.71 84.9825 35.493 85.7429 36.051C86.5214 36.609 87.481 36.888 88.6217 36.888C90.1606 36.888 91.3284 36.33 92.125 35.214L94.5421 36.618C93.2204 38.58 91.2379 39.561 88.5945 39.561C86.4038 39.561 84.6204 38.895 83.2444 37.563C81.8865 36.213 81.2075 34.512 81.2075 32.46C81.2075 30.462 81.8774 28.779 83.2172 27.411C84.5389 26.043 86.2589 25.359 88.3772 25.359C90.3507 25.359 91.9802 26.052 93.2657 27.438C94.5511 28.824 95.1939 30.507 95.1939 32.487C95.1939 32.847 95.1577 33.252 95.0852 33.702ZM84.2492 31.326H92.2337C92.0345 30.264 91.5819 29.445 90.8758 28.869C90.1878 28.293 89.3459 28.005 88.3501 28.005C87.2638 28.005 86.3585 28.302 85.6343 28.896C84.9101 29.49 84.4484 30.3 84.2492 31.326Z" fill="white"/>
<path d="M100.844 25.71V27.978C101.586 26.304 102.98 25.467 105.026 25.467V28.626C103.921 28.554 102.944 28.824 102.093 29.436C101.26 30.03 100.844 31.02 100.844 32.406V39.21H97.9105V25.71H100.844Z" fill="white"/>
<path d="M122.157 25.359C123.696 25.359 124.936 25.854 125.878 26.844C126.819 27.834 127.29 29.166 127.29 30.84V39.21H124.357V31.029C124.357 30.111 124.121 29.391 123.651 28.869C123.18 28.347 122.537 28.086 121.722 28.086C120.799 28.086 120.075 28.392 119.55 29.004C119.025 29.598 118.762 30.48 118.762 31.65V39.21H115.829V31.029C115.829 30.093 115.603 29.373 115.15 28.869C114.716 28.347 114.091 28.086 113.276 28.086C112.371 28.086 111.638 28.392 111.077 29.004C110.533 29.616 110.262 30.498 110.262 31.65V39.21H107.329V25.71H110.262V27.33C111.131 26.016 112.425 25.359 114.145 25.359C115.884 25.359 117.169 26.07 118.002 27.492C118.889 26.07 120.274 25.359 122.157 25.359Z" fill="white"/>
<path d="M133.335 23.145C132.973 23.505 132.538 23.685 132.031 23.685C131.524 23.685 131.081 23.505 130.7 23.145C130.338 22.767 130.157 22.326 130.157 21.822C130.157 21.318 130.338 20.886 130.7 20.526C131.063 20.148 131.506 19.959 132.031 19.959C132.556 19.959 133 20.148 133.362 20.526C133.724 20.886 133.905 21.318 133.905 21.822C133.905 22.326 133.715 22.767 133.335 23.145ZM133.498 39.21H130.565V25.71H133.498V39.21Z" fill="white"/>
<path d="M144.182 25.359C145.757 25.359 147.015 25.863 147.957 26.871C148.916 27.861 149.396 29.211 149.396 30.921V39.21H146.463V31.218C146.463 30.21 146.191 29.436 145.648 28.896C145.105 28.356 144.363 28.086 143.421 28.086C142.353 28.086 141.511 28.419 140.896 29.085C140.28 29.733 139.972 30.696 139.972 31.974V39.21H137.039V25.71H139.972V27.438C140.877 26.052 142.281 25.359 144.182 25.359Z" fill="white"/>
<path d="M163.444 27.627V25.71H166.377V39.21H163.444V37.266C162.34 38.796 160.756 39.561 158.692 39.561C156.827 39.561 155.234 38.877 153.912 37.509C152.59 36.141 151.929 34.458 151.929 32.46C151.929 30.462 152.59 28.779 153.912 27.411C155.234 26.043 156.827 25.359 158.692 25.359C160.756 25.359 162.34 26.115 163.444 27.627ZM156.085 35.565C156.899 36.375 157.922 36.78 159.153 36.78C160.385 36.78 161.408 36.375 162.222 35.565C163.037 34.737 163.444 33.702 163.444 32.46C163.444 31.218 163.037 30.192 162.222 29.382C161.408 28.554 160.385 28.14 159.153 28.14C157.922 28.14 156.899 28.554 156.085 29.382C155.27 30.192 154.863 31.218 154.863 32.46C154.863 33.684 155.27 34.719 156.085 35.565Z" fill="white"/>
<path d="M172.865 39.21H169.932V19.5H172.865V39.21Z" fill="white"/>
<rect x="4.52637" y="3" width="52.807" height="52.5" rx="26.25" fill="#242634"/>
<path d="M39.4604 24.75H20.3686C19.5354 24.75 18.8599 24.0784 18.8599 23.25V21C18.8599 20.1716 19.5354 19.5 20.3686 19.5H45.2634L39.4604 24.75Z" fill="white"/>
<path d="M27.9125 42.75L27.9125 27.75C27.9125 26.9216 28.588 26.25 29.4213 26.25H31.6844C32.5177 26.25 33.1932 26.9216 33.1932 27.75V38.2905L27.9125 42.75Z" fill="white"/>
</svg>
