<svg width="21" height="22" viewBox="0 0 21 22" fill="none" xmlns="http://www.w3.org/2000/svg">
<path d="M8.02396 4.31992C8.36011 4.13182 8.36624 3.65024 8.035 3.45363L6.55295 2.57393C6.3979 2.4819 6.2053 2.48048 6.0489 2.57021L1.04024 5.44409C0.887224 5.53189 0.7918 5.69383 0.789139 5.87023L0.632574 16.2476C0.629855 16.4278 0.724345 16.5956 0.879888 16.6866L2.57475 17.679C2.90807 17.8741 3.32738 17.6337 3.32738 17.2475V14.3696C3.32738 13.9935 3.72704 13.7521 4.05999 13.927L10.1526 17.1291C10.2944 17.2036 10.4634 17.2057 10.6069 17.1346L11.5323 16.6769C11.7027 16.5926 11.8106 16.4189 11.8106 16.2288V14.4031C11.8106 14.0193 11.3961 13.7786 11.0628 13.9688L10.6265 14.2178C10.4727 14.3056 10.2841 14.3055 10.1304 14.2176L3.57915 10.4708C3.42345 10.3817 3.32738 10.2161 3.32738 10.0368V7.24126C3.32738 7.06022 3.42523 6.89333 3.58321 6.80493L8.02396 4.31992Z" fill="white"/>
<path d="M5.93102 16.4312C5.60095 16.2388 5.18581 16.4727 5.17931 16.8547L5.15024 18.5644C5.14713 18.7472 5.24408 18.9172 5.40304 19.0075L10.423 21.8616C10.5742 21.9476 10.7593 21.9488 10.9116 21.8647L20.0826 16.8056C20.2404 16.7186 20.3391 16.5534 20.3411 16.3733L20.3622 14.4344C20.3665 14.0481 19.9497 13.8032 19.6143 13.9947L17.0827 15.4407C16.7562 15.6272 16.3484 15.4001 16.335 15.0244L16.0922 8.21625C16.0864 8.05381 16.002 7.90434 15.866 7.81545L15.0026 7.25155C14.8455 7.14893 14.6442 7.14292 14.4812 7.23599L12.8827 8.14898C12.5468 8.34087 12.5467 8.82525 12.8826 9.01724L13.3025 9.25726C13.4584 9.34634 13.5545 9.51213 13.5544 9.69165L13.55 17.1685C13.5499 17.3478 13.4537 17.5134 13.298 17.6024L10.8426 19.0048C10.6876 19.0933 10.4971 19.0925 10.3428 19.0026L5.93102 16.4312Z" fill="white"/>
<path d="M17.5765 12.4526C17.5731 12.8347 17.9822 13.0792 18.3172 12.8953L19.8365 12.0609C19.9967 11.9729 20.0961 11.8044 20.0958 11.6216L20.0843 5.90298C20.0839 5.72652 19.9906 5.56332 19.8387 5.47354L10.8245 0.145997C10.6715 0.0555813 10.4821 0.0531574 10.3268 0.13963L8.61883 1.09099C8.27868 1.28046 8.27605 1.76886 8.61416 1.96197L11.1216 3.39413C11.4509 3.58219 11.4592 4.054 11.1367 4.2535L5.30257 7.86286C5.1644 7.94833 5.07638 8.09561 5.06654 8.25778L5.00512 9.27016C4.99359 9.46015 5.09094 9.64021 5.25622 9.73461L6.86241 10.652C7.19567 10.8423 7.61026 10.6018 7.61039 10.218L7.61054 9.73361C7.6106 9.5541 7.70689 9.38839 7.86281 9.29945L14.4185 5.56015C14.5721 5.47252 14.7606 5.47257 14.9142 5.56029L17.3695 6.96268C17.5267 7.05248 17.6231 7.22025 17.6215 7.40131L17.5765 12.4526Z" fill="white"/>
</svg>
