<svg width="20" height="20" viewBox="0 0 20 20" fill="none" xmlns="http://www.w3.org/2000/svg">
<path d="M8.5 5H3.5C3.22386 5 3 5.22386 3 5.5V6.5C3 6.77614 3.22386 7 3.5 7H7V10.5L8 9.5L9 10.5V5.5C9 5.22386 8.77614 5 8.5 5Z" fill="white"/>
<path d="M7 15L8 14L9 15V19.5C9 19.7761 8.77614 20 8.5 20H7.5C7.22386 20 7 19.7761 7 19.5V15Z" fill="white"/>
<path d="M11.5 5H16.5C16.7761 5 17 5.22386 17 5.5V6.5C17 6.77614 16.7761 7 16.5 7H13V12.5L12 13.5L11 12.5V5.5C11 5.22386 11.2239 5 11.5 5Z" fill="white"/>
<path d="M13 17L12 18L11 17V19.5C11 19.7761 11.2239 20 11.5 20H12.5C12.7761 20 13 19.7761 13 19.5V17Z" fill="white"/>
<path d="M3 1.5C3 1.22386 3.22386 1 3.5 1H16.5C16.7761 1 17 1.22386 17 1.5V2.5C17 2.77614 16.7761 3 16.5 3H3.5C3.22386 3 3 2.77614 3 2.5V1.5Z" fill="white"/>
<path d="M8 12.6615L4.20711 16.4544C3.76165 16.8998 3 16.5843 3 15.9544C3 15.7668 3.0745 15.587 3.20711 15.4544L8 10.6615L12 14.6615L16 10.6615V12.6615L12 16.6615L8 12.6615Z" fill="url(#paint0_linear_1302_88890)"/>
<path d="M17.0158 13.65L13.8821 10.79L17.4441 10L17.0158 13.65Z" fill="url(#paint1_linear_1302_88890)"/>
<defs>
<linearGradient id="paint0_linear_1302_88890" x1="17.4441" y1="10" x2="15.0621" y2="21.0987" gradientUnits="userSpaceOnUse">
<stop stop-color="#CC42EE"/>
<stop offset="1" stop-color="#6271EB"/>
</linearGradient>
<linearGradient id="paint1_linear_1302_88890" x1="17.4441" y1="10" x2="15.0621" y2="21.0987" gradientUnits="userSpaceOnUse">
<stop stop-color="#CC42EE"/>
<stop offset="1" stop-color="#6271EB"/>
</linearGradient>
</defs>
</svg>
