<svg width="100" height="120" viewBox="0 0 100 120" fill="none" xmlns="http://www.w3.org/2000/svg">
<g clip-path="url(#clip0_108_98)">
<rect width="100" height="120" fill="#F3F3F3"/>
<path d="M57.3774 65.0507C55.345 67.0178 53.5819 67.9748 50.7016 67.9748C45.8831 67.9748 42.5586 64.652 42.5586 59.9735C42.5586 55.1754 46.3273 52.0254 50.7419 52.0254C53.3127 52.0254 55.7623 53.1419 57.4447 55.0691L55.3854 57.0229C53.9991 55.5609 52.4782 54.8033 50.6746 54.8033C47.7809 54.8033 45.4255 56.9963 45.4255 59.9868C45.4255 63.1235 47.7001 65.2102 50.7419 65.2102C52.6532 65.2102 53.9318 64.4526 55.3854 63.0172L57.3774 65.0507Z" fill="black"/>
</g>
<defs>
<clipPath id="clip0_108_98">
<rect width="100" height="120" fill="white"/>
</clipPath>
</defs>
</svg>
