<svg width="100" height="120" viewBox="0 0 100 120" fill="none" xmlns="http://www.w3.org/2000/svg">
<g clip-path="url(#clip0_108_104)">
<rect width="100" height="120" fill="#2573C2"/>
<path d="M57.8337 56.8422C57.8176 56.5733 57.7387 56.3119 57.6033 56.079C57.4833 55.839 57.2697 55.6518 57.0201 55.5558C56.7655 55.429 56.4836 55.3671 56.1993 55.3758H45.548L44.7848 57.663H54.4353L52.9113 62.3382H43.2632L42.5 64.6254H53.2017C53.5205 64.6161 53.8358 64.5553 54.1353 64.4454C54.4353 64.275 54.7785 64.1022 55.0689 63.8622C55.3524 63.6386 55.6086 63.3825 55.8321 63.099C56.0168 62.8212 56.1744 62.5262 56.3025 62.2182L57.7161 57.7734C57.8447 57.481 57.8855 57.1574 57.8337 56.8422Z" fill="white"/>
<path d="M48.5861 58.9395H42.9077L42.1445 61.0539H47.8805L48.5861 58.9395Z" fill="white"/>
</g>
<defs>
<clipPath id="clip0_108_104">
<rect width="100" height="120" fill="white"/>
</clipPath>
</defs>
</svg>
