<svg width="100" height="120" viewBox="0 0 100 120" fill="none" xmlns="http://www.w3.org/2000/svg">
<g clip-path="url(#clip0_108_131)">
<rect width="100" height="120" fill="#202944"/>
<path d="M43 53V67H57V53H43ZM47.8943 54.624H49.2033V55.968H47.8943V54.624ZM44.5935 54.624H45.9593V55.968H44.5935V54.624ZM45.9024 57.872V59.216H44.5366V57.872H45.9024ZM45.561 65.264H44.9919V64.76H45.5041V65.264H45.561ZM45.9593 62.576H44.5935V61.288H45.9593V62.576ZM48.8618 65.264H48.3496V64.76H48.8618V65.264ZM48.8618 62.128H48.3496V61.624H48.8618V62.128ZM49.2602 59.272H47.8943V57.928H49.2602V59.272ZM52.1626 65.264H51.6504V64.76H52.1626V65.264ZM52.1626 62.128H51.6504V61.624H52.1626V62.128ZM52.1626 58.824H51.6504V58.32H52.1626V58.824ZM52.6179 55.968H51.252V54.624H52.6179V55.968ZM55.5203 65.264H55.0081V64.76H55.5203V65.264ZM55.5203 62.128H55.0081V61.624H55.5203V62.128ZM55.5203 58.824H55.0081V58.32H55.5203V58.824ZM55.5203 55.576H55.0081V55.072H55.5203V55.576Z" fill="white"/>
</g>
<defs>
<clipPath id="clip0_108_131">
<rect width="100" height="120" fill="white"/>
</clipPath>
</defs>
</svg>
