<svg width="100" height="120" viewBox="0 0 100 120" fill="none" xmlns="http://www.w3.org/2000/svg">
<g clip-path="url(#clip0_108_140)">
<rect width="100" height="120" fill="#18A0B1"/>
<path d="M56.6215 54.7586C57.3833 54.7586 58.0008 54.1411 58.0008 53.3793C58.0008 52.6175 57.3833 52 56.6215 52C55.8597 52 55.2422 52.6175 55.2422 53.3793C55.2422 54.1411 55.8597 54.7586 56.6215 54.7586Z" fill="white"/>
<path d="M46.0171 62.3667C45.4977 61.4848 45.2859 60.4554 45.415 59.4401C45.5442 58.4248 46.0069 57.4812 46.7307 56.7575C47.4544 56.0337 48.398 55.571 49.4133 55.4418C50.4286 55.3127 51.458 55.5245 52.3399 56.0439L53.4433 54.9405L53.3882 54.8964C52.2013 54.114 50.78 53.7673 49.3662 53.9152C47.9524 54.0631 46.6336 54.6964 45.6343 55.7074C44.635 56.7184 44.0171 58.0445 43.8857 59.4599C43.7543 60.8753 44.1176 62.2925 44.9137 63.4701L46.0171 62.3667Z" fill="white"/>
<path d="M53.9848 57.6933C54.5043 58.5751 54.7161 59.6046 54.587 60.6199C54.4578 61.6352 53.995 62.5788 53.2713 63.3025C52.5476 64.0262 51.604 64.489 50.5887 64.6182C49.5734 64.7473 48.5439 64.5355 47.6621 64.016L46.5586 65.1195C47.7405 65.9218 49.165 66.2871 50.5871 66.1523C52.0092 66.0175 53.3399 65.3912 54.3499 64.3811C55.36 63.3711 55.9863 62.0404 56.1211 60.6183C56.2559 59.1963 55.8906 57.7717 55.0883 56.5898L53.9848 57.6933Z" fill="white"/>
<path d="M43.3793 67.9998C44.1411 67.9998 44.7586 67.3823 44.7586 66.6205C44.7586 65.8587 44.1411 65.2412 43.3793 65.2412C42.6175 65.2412 42 65.8587 42 66.6205C42 67.3823 42.6175 67.9998 43.3793 67.9998Z" fill="white"/>
</g>
<defs>
<clipPath id="clip0_108_140">
<rect width="100" height="120" fill="white"/>
</clipPath>
</defs>
</svg>
