<svg width="100" height="120" viewBox="0 0 100 120" fill="none" xmlns="http://www.w3.org/2000/svg">
<g clip-path="url(#clip0_108_257)">
<rect width="100" height="120" fill="#1E67F6"/>
<path fill-rule="evenodd" clip-rule="evenodd" d="M50.8027 59.2385C53.568 59.9045 54.75 60.9732 54.75 62.8655C54.75 64.793 53.1855 66.0725 50.8755 66.2653V68H49.293V66.248C47.7305 66.0718 46.246 65.4717 45 64.5125L46.164 62.918C47.2013 63.7243 48.183 64.25 49.3658 64.4255V60.9905C46.71 60.3245 45.4732 59.3608 45.4732 57.3807C45.4732 55.4885 47.019 54.1918 49.293 54.0163V53H50.8755V54.0515C52.1123 54.1889 53.2915 54.6482 54.2955 55.3835L53.2762 57.0305C52.476 56.4522 51.6577 56.084 50.8027 55.9085V59.2385ZM47.6198 57.2577C47.6198 57.9943 47.9647 58.4675 49.365 58.8702L49.3658 55.7863C48.2198 55.874 47.6198 56.4875 47.6198 57.2577ZM50.8027 64.4952C51.9487 64.4075 52.6035 63.8292 52.6035 62.9877C52.6035 62.1987 52.2217 61.727 50.8027 61.3235V64.4952Z" fill="white"/>
</g>
<defs>
<clipPath id="clip0_108_257">
<rect width="100" height="120" fill="white"/>
</clipPath>
</defs>
</svg>
