<svg width="100" height="120" viewBox="0 0 100 120" fill="none" xmlns="http://www.w3.org/2000/svg">
<g clip-path="url(#clip0_108_260)">
<rect width="100" height="120" fill="#2775CA"/>
<path d="M53.325 61.7492C53.325 59.9992 52.275 59.3992 50.175 59.1492C48.675 58.9492 48.375 58.5492 48.375 57.8492C48.375 57.1491 48.875 56.6992 49.875 56.6992C50.775 56.6992 51.275 56.9992 51.525 57.7492C51.575 57.8992 51.725 57.9992 51.875 57.9992H52.6749C52.875 57.9992 53.025 57.8492 53.025 57.6492V57.5992C52.8249 56.4992 51.9249 55.6492 50.775 55.5492V54.3492C50.775 54.1492 50.625 53.9992 50.375 53.9492H49.625C49.425 53.9492 49.275 54.0992 49.2249 54.3492V55.4992C47.7249 55.6992 46.775 56.6992 46.775 57.9492C46.775 59.5992 47.775 60.2492 49.875 60.4992C51.275 60.7492 51.725 61.0492 51.725 61.8492C51.725 62.6493 51.0249 63.1992 50.075 63.1992C48.7749 63.1992 48.3249 62.6492 48.1749 61.8992C48.125 61.6992 47.975 61.5992 47.825 61.5992H46.9749C46.775 61.5992 46.625 61.7492 46.625 61.9492V61.9992C46.8249 63.2492 47.625 64.1492 49.275 64.3992V65.5992C49.275 65.7992 49.425 65.9492 49.6749 65.9992H50.4249C50.625 65.9992 50.775 65.8492 50.825 65.5992V64.3992C52.325 64.1492 53.325 63.0992 53.325 61.7492Z" fill="white"/>
<path d="M47.4744 66.9996C43.5744 65.5996 41.5744 61.2496 43.0245 57.3996C43.7745 55.2996 45.4244 53.6996 47.4744 52.9496C47.6744 52.8496 47.7744 52.6996 47.7744 52.4496V51.7496C47.7744 51.5496 47.6744 51.3996 47.4744 51.3496C47.4244 51.3496 47.3244 51.3496 47.2744 51.3996C42.5244 52.8996 39.9244 57.9496 41.4244 62.6996C42.3244 65.4996 44.4744 67.6496 47.2744 68.5496C47.4744 68.6496 47.6744 68.5496 47.7244 68.3496C47.7744 68.2996 47.7744 68.2496 47.7744 68.1496V67.4496C47.7744 67.2996 47.6244 67.0996 47.4744 66.9996ZM52.7744 51.3996C52.5744 51.2996 52.3744 51.3996 52.3244 51.5996C52.2744 51.6496 52.2744 51.6996 52.2744 51.7996V52.4996C52.2744 52.6996 52.4244 52.8996 52.5744 52.9996C56.4744 54.3996 58.4744 58.7496 57.0244 62.5996C56.2744 64.6996 54.6244 66.2996 52.5744 67.0496C52.3744 67.1496 52.2744 67.2996 52.2744 67.5496V68.2496C52.2744 68.4496 52.3744 68.5996 52.5744 68.6496C52.6244 68.6496 52.7244 68.6496 52.7744 68.5996C57.5244 67.0996 60.1244 62.0496 58.6244 57.2996C57.7244 54.4496 55.5244 52.2996 52.7744 51.3996Z" fill="white"/>
</g>
<defs>
<clipPath id="clip0_108_260">
<rect width="100" height="120" fill="white"/>
</clipPath>
</defs>
</svg>
