<svg width="100" height="120" viewBox="0 0 100 120" fill="none" xmlns="http://www.w3.org/2000/svg">
<g clip-path="url(#clip0_108_291)">
<rect width="100" height="120" fill="#49C1BF"/>
<path d="M55.3331 58.6103L53.0231 59.6375L46.8949 62.7482L53.0231 65.6866V60.8297L55.3331 59.7915V66.9668L53.0231 67.994L44 63.6873V61.3983L50.2459 58.3425L44 55.3492V53.0271L46.3468 52L55.3331 56.3139V58.6103Z" fill="white"/>
<path d="M44 53.0271L53.0231 57.3411L55.3331 56.3139L46.3468 52L44 53.0271Z" fill="#80D4D4"/>
<path d="M53.0234 57.3319L55.3335 56.3047V58.6011L53.0234 59.6282V57.3319Z" fill="#BFE9E8"/>
<path d="M44 53.0293V55.3514L50.2459 58.3448L44 61.4005V63.6896L53.0231 67.9962V65.6925L46.8949 62.7505L53.0231 59.6397V57.3433L44 53.0293Z" fill="white"/>
<path d="M53.0234 67.9798L55.3335 66.9526V59.7773L53.0234 60.8155V67.9798Z" fill="#BFE9E8"/>
</g>
<defs>
<clipPath id="clip0_108_291">
<rect width="100" height="120" fill="white"/>
</clipPath>
</defs>
</svg>
