<svg width="100" height="120" viewBox="0 0 100 120" fill="none" xmlns="http://www.w3.org/2000/svg">
<g clip-path="url(#clip0_108_2)">
<rect width="100" height="120" fill="#231815"/>
<path d="M54.9102 63.1138C55.5608 63.9867 56.2318 64.88 56.9027 65.7732C55.5608 67.3568 53.8937 68.3718 51.8809 68.7982C49.6445 69.2651 47.53 68.92 45.4766 67.7831C47.3064 66.4229 49.0955 65.083 50.905 63.7431C51.3116 64.1288 51.6979 64.5146 52.0842 64.88C52.5112 65.286 52.3485 65.3063 52.8975 65.0018C53.6497 64.5755 54.28 63.9867 54.7679 63.2762C54.7882 63.2356 54.8289 63.195 54.8492 63.1544C54.8289 63.1544 54.8492 63.1544 54.9102 63.1138ZM46.9201 64.9003C46.4118 65.286 45.9442 65.6311 45.4766 65.9966C45.131 66.2605 44.7853 66.5041 44.4397 66.768C44.2974 66.8898 44.1957 66.8898 44.0331 66.7477C42.4879 65.3672 41.512 63.6619 41.1461 61.6318C40.7801 59.5813 41.1054 57.6324 42.0813 55.785C42.1016 55.7444 42.1423 55.6834 42.1626 55.6428C42.1626 55.6225 42.183 55.6225 42.2236 55.6022C43.5655 57.3685 44.9277 59.1347 46.2695 60.9009C46.2288 60.9618 46.2085 61.0024 46.1679 61.043C45.7612 61.4693 45.3546 61.8957 44.9277 62.3017C44.8057 62.4235 44.7853 62.525 44.8667 62.6671C45.2936 63.4792 45.8832 64.1491 46.6151 64.6973C46.7168 64.7582 46.7981 64.8191 46.9201 64.9003ZM54.5036 52.2931C53.853 52.76 53.2024 53.227 52.5518 53.6736C51.4336 54.4654 50.3154 55.2774 49.2175 56.0692C49.0752 56.1707 48.9735 56.191 48.8516 56.0489C48.4856 55.6631 48.0993 55.318 47.7334 54.9323C47.6317 54.8308 47.53 54.8105 47.3877 54.8714C46.5135 55.318 45.8222 55.9474 45.253 56.7391C45.2123 56.7797 45.1716 56.8406 45.131 56.9015C44.8057 56.4752 44.5007 56.0895 44.1957 55.6834C43.8704 55.2571 43.5655 54.8308 43.2605 54.4248C43.1589 54.2827 43.1385 54.1811 43.2808 54.039C44.8463 52.3134 46.7778 51.2983 49.0955 51.0547C50.9253 50.8517 52.6738 51.2171 54.3003 52.0901C54.3613 52.1307 54.4223 52.151 54.4833 52.1916C54.4833 52.2525 54.4833 52.2728 54.5036 52.2931ZM57.8176 64.474C57.3906 63.9258 57.0043 63.4183 56.618 62.9107C55.7235 61.7333 54.8289 60.5355 53.914 59.358C53.792 59.1956 53.792 59.0941 53.9343 58.952C54.3206 58.5662 54.6866 58.1805 55.0729 57.7948C55.1745 57.6933 55.2152 57.5918 55.1339 57.4497C54.6866 56.597 54.0767 55.8865 53.2837 55.318C53.2227 55.2774 53.1618 55.2165 53.0804 55.1759C53.1414 55.115 53.2024 55.0744 53.2431 55.0338C54.0157 54.4451 54.7882 53.8766 55.5608 53.2879C55.6828 53.1864 55.7845 53.1458 55.9268 53.2879C57.8582 55.0338 58.8951 57.2061 58.9968 59.8249C59.0374 61.3475 58.6918 62.7889 58.0006 64.1491C57.9396 64.2303 57.8786 64.3318 57.8176 64.474Z" fill="white"/>
</g>
<defs>
<clipPath id="clip0_108_2">
<rect width="100" height="120" fill="white"/>
</clipPath>
</defs>
</svg>
