<svg width="100" height="120" viewBox="0 0 100 120" fill="none" xmlns="http://www.w3.org/2000/svg">
<g clip-path="url(#clip0_108_13)">
<rect width="100" height="120" fill="#3468D1"/>
<path d="M45.9356 59.9424C45.8972 60.5842 46.4108 61.1336 47.078 61.1706C47.102 61.1706 47.126 61.1706 47.15 61.1706C47.822 61.1706 48.3644 60.6488 48.3596 60.0024C48.3596 59.356 47.8172 58.8343 47.1452 58.8389C46.502 58.8389 45.9692 59.3237 45.9356 59.9424Z" fill="white"/>
<path d="M41.4132 59.6424C41.1972 59.6285 41.01 59.7901 41.0004 59.9979C40.9908 60.2057 41.154 60.3858 41.37 60.395C41.586 60.4088 41.7684 60.2472 41.7828 60.0395C41.7972 59.8317 41.6292 59.6562 41.4132 59.6424Z" fill="white"/>
<path d="M45.8584 53.1738C46.0504 53.0814 46.1272 52.8506 46.0312 52.6659C45.9352 52.4812 45.6952 52.4073 45.5032 52.4997C45.3112 52.592 45.2344 52.8182 45.3304 53.0029C45.4264 53.1922 45.6616 53.2707 45.8584 53.1738Z" fill="white"/>
<path d="M47.086 55.237C47.3836 55.0939 47.5036 54.7429 47.3548 54.4567C47.206 54.1704 46.8412 54.055 46.5436 54.1981C46.246 54.3412 46.126 54.6922 46.2748 54.9784C46.4236 55.2647 46.7884 55.3801 47.086 55.237Z" fill="white"/>
<path d="M42.9494 56.6544C43.1798 56.7975 43.487 56.7375 43.6406 56.5159C43.7894 56.2943 43.727 55.9988 43.4966 55.851C43.2662 55.7079 42.959 55.7679 42.8054 55.9895C42.6518 56.2112 42.719 56.5113 42.9494 56.6544Z" fill="white"/>
<path d="M43.6824 59.4346C43.3464 59.4161 43.0632 59.6608 43.044 59.984C43.0248 60.3072 43.2792 60.5797 43.6152 60.5981C43.9512 60.6166 44.2344 60.3719 44.2536 60.0487C44.2728 59.7301 44.0184 59.4531 43.6824 59.4346Z" fill="white"/>
<path d="M43.0166 63.3456C42.7718 63.4656 42.671 63.7519 42.7958 63.992C42.9206 64.2275 43.2182 64.3244 43.4678 64.2044C43.7126 64.0843 43.8134 63.7981 43.6886 63.558C43.5638 63.3225 43.2614 63.2255 43.0166 63.3456Z" fill="white"/>
<path d="M45.3664 58.2293C45.6976 58.4371 46.1392 58.3493 46.3504 58.0308C46.5664 57.7122 46.4752 57.2874 46.144 57.0842C45.8128 56.8765 45.3712 56.9642 45.16 57.2828C44.944 57.5967 45.0352 58.0215 45.3664 58.2293Z" fill="white"/>
<path d="M52.8337 55.1915C53.1121 55.3669 53.4913 55.293 53.6737 55.0252C53.8561 54.7574 53.7793 54.3927 53.5009 54.2172C53.2225 54.0418 52.8433 54.1157 52.6609 54.3835C52.4737 54.6559 52.5505 55.016 52.8337 55.1915Z" fill="white"/>
<path d="M54.0708 53.1361C54.2532 53.2516 54.4932 53.2008 54.6132 53.0253C54.7332 52.8499 54.6804 52.619 54.498 52.5036C54.3156 52.3882 54.0756 52.4389 53.9556 52.6098C53.8404 52.7852 53.8932 53.0207 54.0708 53.1361Z" fill="white"/>
<path d="M52.9233 58.8301C52.2561 58.7931 51.6802 59.2872 51.6466 59.929C51.6082 60.5708 52.1217 61.1248 52.7889 61.1572C52.8129 61.1572 52.8369 61.1572 52.8561 61.1572C53.5233 61.1572 54.0657 60.6354 54.0657 59.989C54.0705 59.3749 53.5665 58.8624 52.9233 58.8301Z" fill="white"/>
<path d="M47.4862 58.1458C47.6926 58.5382 48.1102 58.7876 48.571 58.7876C49.2382 58.7876 49.7806 58.2658 49.7806 57.6194C49.7806 57.4393 49.7374 57.2593 49.651 57.093C49.3486 56.5159 48.619 56.285 48.0238 56.5759C47.4238 56.8714 47.1838 57.5732 47.4862 58.1458Z" fill="white"/>
<path d="M56.9822 56.6548C57.227 56.5347 57.323 56.2438 57.1982 56.0084C57.0734 55.7729 56.771 55.6805 56.5262 55.8006C56.2814 55.9206 56.1854 56.2069 56.3054 56.4424C56.435 56.6778 56.7326 56.7748 56.9822 56.6548Z" fill="white"/>
<path d="M53.9125 57.0244C53.5621 57.1952 53.4181 57.6062 53.5957 57.9432C53.7733 58.2803 54.2005 58.4188 54.5509 58.248C54.9013 58.0771 55.0453 57.6662 54.8677 57.3291C54.6901 56.9921 54.2629 56.8582 53.9125 57.0244Z" fill="white"/>
<path d="M49.9516 52.9611C50.2252 52.9749 50.4604 52.7718 50.4796 52.5086C50.4988 52.2454 50.2828 52.0192 50.0092 52.0007C49.7356 51.9868 49.5004 52.1854 49.4812 52.4486C49.4668 52.7164 49.678 52.9426 49.9516 52.9611Z" fill="white"/>
<path d="M49.9463 55.9764C50.3399 55.9995 50.6759 55.7086 50.6951 55.33C50.7191 54.9514 50.4167 54.6282 50.0231 54.6097C49.6295 54.5867 49.2935 54.8775 49.2743 55.2561C49.2551 55.6348 49.5527 55.958 49.9463 55.9764Z" fill="white"/>
<path d="M46.09 62.9756C46.4404 62.8048 46.5844 62.3938 46.4068 62.0568C46.2292 61.7197 45.802 61.5812 45.4516 61.752C45.1012 61.9229 44.9572 62.3338 45.1348 62.6709C45.3124 63.0079 45.7396 63.1464 46.09 62.9756Z" fill="white"/>
<path d="M50.4086 56.9785C50.0438 57.5187 50.1974 58.239 50.759 58.5899C51.3206 58.9408 52.0694 58.793 52.4341 58.2528C52.7989 57.7126 52.6453 56.9923 52.0838 56.6414C51.887 56.5168 51.6566 56.4521 51.4214 56.4521C51.0134 56.4521 50.6342 56.6507 50.4086 56.9785Z" fill="white"/>
<path d="M52.5143 61.8538C52.2119 61.2766 51.4823 61.0458 50.8871 61.3367C50.2871 61.6275 50.0471 62.3294 50.3495 62.9019C50.6519 63.4791 51.3815 63.7099 51.9767 63.419C52.5719 63.1328 52.8167 62.4402 52.5191 61.863C52.5191 61.8584 52.5191 61.8584 52.5143 61.8538Z" fill="white"/>
<path d="M54.6322 61.7708C54.301 61.563 53.8595 61.6507 53.6483 61.9693C53.4323 62.2879 53.5235 62.7127 53.8547 62.9159C54.1858 63.1236 54.6274 63.0359 54.8386 62.7173C55.0546 62.4034 54.9634 61.9786 54.6322 61.7708Z" fill="white"/>
<path d="M56.9567 60.0204C56.9759 59.6972 56.7215 59.4247 56.3855 59.4063C56.0495 59.3878 55.7663 59.6325 55.7471 59.9557C55.7279 60.2789 55.9823 60.5513 56.3183 60.5698C56.6495 60.5883 56.9375 60.339 56.9567 60.0204Z" fill="white"/>
<path d="M58.632 59.6053C58.416 59.5914 58.2288 59.753 58.2192 59.9608C58.2096 60.1686 58.3728 60.3486 58.5888 60.3579C58.8048 60.3717 58.9872 60.2101 59.0016 60.0023C59.0112 59.7946 58.848 59.6191 58.632 59.6053Z" fill="white"/>
<path d="M57.0531 63.3451C56.8227 63.202 56.5155 63.262 56.3619 63.4836C56.2131 63.7052 56.2755 64.0007 56.5059 64.1485C56.7363 64.2916 57.0435 64.2316 57.1971 64.01C57.3507 63.7883 57.2835 63.4882 57.0531 63.3451Z" fill="white"/>
<path d="M45.9235 66.863C45.7411 66.7475 45.5011 66.7983 45.3811 66.9692C45.2611 67.1446 45.3139 67.3755 45.4915 67.4909C45.6739 67.6063 45.9139 67.5556 46.0339 67.3847C46.1587 67.2139 46.1059 66.9784 45.9235 66.863Z" fill="white"/>
<path d="M54.1438 66.8268C53.9518 66.9191 53.875 67.15 53.971 67.3347C54.067 67.5194 54.307 67.5932 54.499 67.5009C54.691 67.4085 54.7678 67.1823 54.6718 66.9976C54.5758 66.8083 54.3406 66.7298 54.1438 66.8268Z" fill="white"/>
<path d="M49.5933 63.022C49.9581 62.4817 49.8045 61.7615 49.2429 61.4059C48.6813 61.055 47.9325 61.2028 47.563 61.743C47.1934 62.2832 47.3518 63.0035 47.9133 63.359C48.1101 63.4837 48.3405 63.5483 48.5757 63.5483C48.9885 63.5529 49.3677 63.3544 49.5933 63.022Z" fill="white"/>
<path d="M47.1694 64.8091C46.891 64.6336 46.5118 64.7075 46.3294 64.9753C46.147 65.2431 46.2238 65.6079 46.5022 65.7833C46.7806 65.9588 47.1598 65.8849 47.3422 65.6171C47.5294 65.3493 47.4526 64.9845 47.1694 64.8091Z" fill="white"/>
<path d="M49.994 67.0387C49.7204 67.0249 49.4852 67.228 49.466 67.4912C49.4468 67.7544 49.6628 67.9806 49.9364 67.9991C50.21 68.013 50.4452 67.8144 50.4644 67.5512C50.4788 67.2834 50.2676 67.0572 49.994 67.0387Z" fill="white"/>
<path d="M50.0001 64.0237C49.6065 64.0006 49.2705 64.2915 49.2513 64.6701C49.2273 65.0487 49.5297 65.3719 49.9233 65.3904C50.3169 65.4088 50.6529 65.1226 50.6721 64.744C50.6961 64.37 50.3937 64.0421 50.0001 64.0237Z" fill="white"/>
<path d="M52.913 64.7627C52.6154 64.9104 52.4954 65.2613 52.649 65.5476C52.8026 65.8339 53.1674 65.9493 53.465 65.8015C53.7626 65.6584 53.8826 65.3075 53.7338 65.0212C53.5802 64.735 53.2154 64.6149 52.913 64.7627Z" fill="white"/>
</g>
<defs>
<clipPath id="clip0_108_13">
<rect width="100" height="120" fill="white"/>
</clipPath>
</defs>
</svg>
