<svg width="100" height="120" viewBox="0 0 100 120" fill="none" xmlns="http://www.w3.org/2000/svg">
<g clip-path="url(#clip0_108_146)">
<rect width="100" height="120" fill="#242424"/>
<path d="M53.6362 53.8559C54.1247 53.8559 54.5215 53.4394 54.5215 52.9276C54.5215 52.4159 54.1247 52 53.6362 52C53.1478 52.0026 52.751 52.4185 52.751 52.9303C52.751 53.442 53.1478 53.8559 53.6362 53.8559ZM53.8974 56.2679C54.0977 56.2664 54.2893 56.1827 54.4298 56.0353C54.5704 55.8878 54.6485 55.6888 54.647 55.4819C54.647 55.0494 54.3116 54.6957 53.8974 54.6957C53.4833 54.6957 53.1478 55.0468 53.1478 55.4819C53.1478 55.9169 53.4826 56.2679 53.8974 56.2679ZM55.9554 56.5754C56.3677 56.5754 56.7031 56.2243 56.7031 55.7912C56.7031 55.3582 56.3677 55.0071 55.9554 55.0071C55.5432 55.0071 55.2078 55.3582 55.2078 55.7912C55.2078 56.2243 55.5438 56.5754 55.9554 56.5754ZM55.7083 58.639C56.0617 58.639 56.3478 58.3388 56.3478 57.9692C56.3478 57.5996 56.0617 57.2994 55.7083 57.2994C55.355 57.2994 55.0689 57.5996 55.0689 57.9692C55.0689 58.3388 55.355 58.639 55.7083 58.639ZM57.356 59.3081C57.7119 59.3081 58 59.0059 58 58.6337C58 58.2614 57.7119 57.9593 57.356 57.9593C57.2709 57.9599 57.1867 57.9778 57.1082 58.012C57.0298 58.0462 56.9586 58.0961 56.8988 58.1587C56.839 58.2213 56.7917 58.2955 56.7597 58.377C56.7277 58.4585 56.7115 58.5457 56.7121 58.6337C56.7121 59.0059 57.0008 59.3081 57.356 59.3081ZM53.6375 58.3599C53.7241 58.3594 53.8098 58.3413 53.8896 58.3066C53.9694 58.2719 54.0418 58.2213 54.1026 58.1577C54.1635 58.0941 54.2116 58.0187 54.2443 57.9359C54.277 57.853 54.2935 57.7644 54.293 57.6749V57.6736C54.293 57.2948 54.0005 56.9873 53.6375 56.9873C53.2746 56.9873 52.982 57.2941 52.982 57.6736C52.982 58.0505 53.2752 58.3599 53.6375 58.3599ZM53.0435 60.0017C53.3475 60.0017 53.5927 59.7438 53.5927 59.4271C53.5939 59.2759 53.5369 59.1305 53.4343 59.0227C53.3317 58.915 53.1918 58.8538 53.0455 58.8525H53.0435C52.7394 58.8525 52.4943 59.1104 52.4943 59.4271C52.4943 59.7438 52.7394 60.0017 53.0435 60.0017ZM55.1047 60.2919C55.1767 60.2914 55.248 60.2762 55.3143 60.2473C55.3807 60.2184 55.4409 60.1762 55.4915 60.1232C55.5421 60.0702 55.582 60.0075 55.6091 59.9386C55.6363 59.8696 55.6499 59.7958 55.6495 59.7214V59.7201C55.6495 59.404 55.4062 59.1481 55.1047 59.1481C54.8032 59.1481 54.56 59.404 54.56 59.7201C54.559 59.7942 54.5722 59.8678 54.5988 59.9367C54.6255 60.0055 54.6649 60.0683 54.715 60.1214C54.7651 60.1745 54.8249 60.2169 54.8908 60.2461C54.9568 60.2754 55.0277 60.291 55.0995 60.2919H55.1047ZM56.7479 60.9584C57.052 60.9584 57.2971 60.7005 57.2971 60.3818C57.2971 60.0631 57.052 59.8053 56.7479 59.8053C56.4438 59.8053 56.1987 60.0631 56.1987 60.3818C56.1971 60.5332 56.2539 60.6789 56.3564 60.787C56.4589 60.8952 56.5988 60.9568 56.7453 60.9584H56.7479ZM55.9362 62.2041C56.1929 62.2041 56.4003 61.9852 56.4003 61.7181C56.4003 61.451 56.1929 61.2321 55.9362 61.2321C55.6795 61.2321 55.4721 61.451 55.4721 61.7181C55.4721 61.9852 55.6795 62.2041 55.9362 62.2041ZM54.2853 61.5482C54.5465 61.5482 54.7603 61.3247 54.7603 61.0503C54.7603 60.7759 54.5484 60.5524 54.2853 60.5524C54.0222 60.5524 53.8104 60.7759 53.8104 61.0503C53.8104 61.3247 54.0242 61.5482 54.2853 61.5482ZM52.2267 61.244C52.352 61.242 52.4715 61.1892 52.5594 61.097C52.6474 61.0048 52.6967 60.8805 52.6968 60.7511C52.6969 60.6217 52.6477 60.4974 52.5599 60.405C52.4721 60.3127 52.3526 60.2597 52.2273 60.2575C52.102 60.2596 51.9819 60.3124 51.8939 60.4046C51.806 60.4968 51.7567 60.621 51.7566 60.7504C51.7565 60.8799 51.8057 61.0042 51.8935 61.0965C51.9813 61.1888 52.1014 61.2418 52.2267 61.244ZM53.3712 62.4143C53.5985 62.4143 53.7809 62.2212 53.7809 61.9865C53.7819 61.8741 53.7397 61.7659 53.6635 61.6857C53.5873 61.6055 53.4833 61.5598 53.3745 61.5587H53.3712C53.144 61.5587 52.9616 61.7518 52.9616 61.9865C52.9604 62.0987 53.0024 62.2069 53.0783 62.2871C53.1543 62.3673 53.258 62.4131 53.3667 62.4143H53.3712ZM55.0215 63.0814C55.2487 63.0814 55.4356 62.8884 55.4356 62.649C55.4356 62.4097 55.2513 62.2166 55.0215 62.2166C54.9105 62.2166 54.804 62.2622 54.7255 62.3433C54.6469 62.4244 54.6028 62.5344 54.6028 62.649C54.6028 62.7637 54.6469 62.8737 54.7255 62.9548C54.804 63.0359 54.9105 63.0814 55.0215 63.0814ZM54.092 63.582C54.2719 63.582 54.4185 63.4286 54.4185 63.2401C54.419 63.1501 54.3849 63.0636 54.3237 62.9995C54.2625 62.9354 54.1792 62.899 54.092 62.8983C53.9121 62.8983 53.7656 63.0517 53.7656 63.2401C53.7654 63.33 53.7996 63.4164 53.8607 63.4804C53.9218 63.5444 54.005 63.5809 54.092 63.582ZM53.2112 63.8504C53.2502 63.8502 53.2888 63.842 53.3247 63.8263C53.3606 63.8107 53.3932 63.7879 53.4206 63.7592C53.448 63.7306 53.4697 63.6966 53.4844 63.6593C53.4991 63.622 53.5065 63.582 53.5063 63.5418C53.5063 63.3699 53.3732 63.2315 53.2112 63.2315C53.1722 63.2318 53.1336 63.24 53.0977 63.2556C53.0618 63.2713 53.0292 63.2941 53.0018 63.3227C52.9744 63.3514 52.9527 63.3853 52.938 63.4227C52.9233 63.46 52.9159 63.4999 52.9161 63.5402C52.9148 63.6208 52.9445 63.6995 52.9987 63.7575C53.053 63.8155 53.1273 63.8489 53.2054 63.8503L53.2112 63.8504ZM52.4398 62.9605C52.6338 62.9605 52.7913 62.7952 52.7913 62.5928C52.7913 62.3905 52.6338 62.2252 52.4398 62.2252C52.2459 62.2252 52.0884 62.3905 52.0884 62.5928C52.0882 62.6896 52.125 62.7825 52.1909 62.8514C52.2567 62.9202 52.3462 62.9594 52.4398 62.9605ZM51.3081 62.1174C51.5334 62.1174 51.7178 61.927 51.7178 61.6897C51.7178 61.4523 51.5353 61.2619 51.3081 61.2619C51.0828 61.2619 50.8984 61.4523 50.8984 61.6897C50.8982 61.8024 50.9412 61.9106 51.018 61.9907C51.0947 62.0708 51.199 62.1164 51.3081 62.1174ZM54.6643 67.477C55.1508 67.477 55.5451 67.0631 55.5451 66.5533C55.5451 66.0436 55.1508 65.6297 54.6643 65.6297C54.1778 65.6297 53.7835 66.0436 53.7835 66.5533C53.7835 67.0631 54.1778 67.477 54.6643 67.477ZM52.427 66.308C52.8322 66.308 53.1613 65.9636 53.1613 65.5384C53.1613 65.1133 52.8322 64.7688 52.427 64.7688C52.0218 64.7688 51.6928 65.1133 51.6928 65.5384C51.6928 65.9636 52.0212 66.308 52.427 66.308ZM51.1487 68C51.5584 68 51.8893 67.6535 51.8893 67.2231C51.8893 66.7953 51.5584 66.4462 51.1487 66.4462C50.739 66.4462 50.4081 66.7927 50.4081 67.2231C50.4065 67.4276 50.4837 67.6243 50.6226 67.77C50.7615 67.9157 50.9508 67.9984 51.1487 68ZM50.764 64.8825C50.8489 64.8819 50.9329 64.864 51.0111 64.8299C51.0893 64.7958 51.1602 64.7461 51.2199 64.6837C51.2795 64.6212 51.3266 64.5473 51.3585 64.466C51.3905 64.3847 51.4066 64.2978 51.406 64.2101C51.4066 64.1224 51.3905 64.0354 51.3585 63.9542C51.3266 63.8729 51.2795 63.799 51.2199 63.7365C51.1602 63.6741 51.0893 63.6244 51.0111 63.5903C50.9329 63.5561 50.8489 63.5383 50.764 63.5377C50.6791 63.5383 50.5951 63.5561 50.5169 63.5903C50.4387 63.6244 50.3678 63.6741 50.3081 63.7365C50.2485 63.799 50.2014 63.8729 50.1694 63.9542C50.1375 64.0354 50.1214 64.1224 50.1219 64.2101C50.1226 64.5804 50.4106 64.8825 50.764 64.8825ZM49.4889 66.5976C49.8422 66.5976 50.1283 66.2975 50.1283 65.9278C50.1283 65.5582 49.8422 65.2581 49.4889 65.2581C49.1355 65.2581 48.8494 65.5582 48.8494 65.9278C48.8477 66.1037 48.9137 66.2731 49.0329 66.3987C49.1521 66.5243 49.3147 66.5958 49.485 66.5976H49.4889ZM48.1145 67.7613C48.4679 67.7613 48.7521 67.4611 48.7521 67.0935C48.7521 66.7239 48.4659 66.4257 48.1145 66.4257C47.7612 66.4257 47.4769 66.7259 47.4769 67.0935C47.4769 67.4611 47.7631 67.7613 48.1145 67.7613ZM46.9706 66.2465C47.1159 66.2452 47.2547 66.1844 47.3568 66.0776C47.4589 65.9709 47.5159 65.8267 47.5153 65.6766C47.5153 65.3625 47.2721 65.1067 46.9706 65.1067C46.8257 65.1089 46.6875 65.17 46.5858 65.2766C46.4841 65.3833 46.4271 65.5269 46.4271 65.6766C46.4271 65.8263 46.4841 65.9699 46.5858 66.0766C46.6875 66.1832 46.8257 66.2443 46.9706 66.2465ZM48.3475 65.0776C48.4929 65.0765 48.6319 65.0159 48.7341 64.909C48.8362 64.8022 48.8931 64.6578 48.8923 64.5076C48.8923 64.1916 48.649 63.9377 48.3475 63.9377C48.2026 63.9397 48.0643 64.0005 47.9624 64.1069C47.8605 64.2134 47.8033 64.357 47.803 64.5066C47.8028 64.6563 47.8596 64.8001 47.9611 64.9069C48.0626 65.0137 48.2007 65.075 48.3456 65.0776H48.3475ZM49.6322 63.3631C49.7043 63.3626 49.7755 63.3474 49.8419 63.3185C49.9082 63.2896 49.9684 63.2474 50.019 63.1944C50.0696 63.1414 50.1096 63.0787 50.1367 63.0098C50.1638 62.9408 50.1775 62.867 50.177 62.7926V62.7913C50.177 62.4752 49.9337 62.2193 49.6322 62.2193C49.5602 62.2198 49.489 62.235 49.4226 62.2639C49.3563 62.2929 49.2961 62.3351 49.2455 62.388C49.1949 62.441 49.1549 62.5037 49.1278 62.5727C49.1007 62.6416 49.087 62.7154 49.0875 62.7898V62.7912C49.0875 63.1072 49.3307 63.3631 49.6322 63.3631ZM47.6671 63.5992C47.9282 63.5992 48.1401 63.3783 48.1401 63.1039C48.1401 62.8295 47.9282 62.6087 47.6671 62.6087C47.4059 62.6087 47.194 62.8295 47.194 63.1039C47.194 63.3783 47.4059 63.5992 47.6671 63.5992ZM46.2972 64.7635C46.359 64.7632 46.4202 64.7502 46.4773 64.7255C46.5343 64.7007 46.5861 64.6645 46.6296 64.6191C46.6731 64.5737 46.7075 64.5198 46.7309 64.4607C46.7542 64.4015 46.7661 64.3381 46.7658 64.2742V64.2729C46.7669 64.144 46.7185 64.0199 46.6311 63.9279C46.5438 63.8359 46.4246 63.7835 46.2998 63.7823H46.2972C46.2353 63.7827 46.1741 63.7956 46.1171 63.8204C46.06 63.8451 46.0083 63.8813 45.9648 63.9267C45.9213 63.9721 45.8869 64.026 45.8635 64.0852C45.8401 64.1443 45.8283 64.2077 45.8286 64.2716V64.2729C45.8282 64.3369 45.84 64.4003 45.8633 64.4596C45.8866 64.5189 45.921 64.5729 45.9645 64.6184C46.008 64.664 46.0598 64.7003 46.1169 64.7251C46.174 64.75 46.2352 64.7631 46.2972 64.7635ZM45.9822 63.3988C46.0902 63.3979 46.1935 63.3529 46.2694 63.2736C46.3453 63.1943 46.3878 63.0872 46.3874 62.9757C46.3874 62.7409 46.205 62.5525 45.9822 62.5525C45.7595 62.5525 45.577 62.7429 45.577 62.9757C45.577 63.2104 45.7595 63.3988 45.9822 63.3988ZM45.9707 62.2014C46.0167 62.201 46.0621 62.1912 46.1045 62.1726C46.1468 62.154 46.1852 62.127 46.2174 62.0932C46.2496 62.0593 46.275 62.0191 46.2922 61.9751C46.3094 61.9311 46.3181 61.8839 46.3177 61.8364C46.3177 61.6361 46.1621 61.4715 45.9707 61.4715C45.7793 61.4715 45.6238 61.6341 45.6238 61.8364C45.6238 62.0388 45.7793 62.2014 45.9707 62.2014ZM46.1615 61.2057C46.326 61.2057 46.4566 61.0662 46.4566 60.8962C46.4566 60.7263 46.3234 60.5868 46.1615 60.5868C45.997 60.5868 45.8664 60.7263 45.8664 60.8962C45.8664 61.0662 45.997 61.2057 46.1615 61.2057ZM47.3425 61.0391C47.5365 61.0391 47.6939 60.8738 47.6939 60.6714C47.6939 60.4691 47.5365 60.3038 47.3425 60.3038C47.1485 60.3038 46.9911 60.4691 46.9911 60.6714C46.9907 60.7682 47.0275 60.8612 47.0934 60.9301C47.1592 60.999 47.2488 61.0382 47.3425 61.0391ZM48.6388 60.5174C48.8641 60.5174 49.0484 60.3243 49.0484 60.0896C49.0495 59.9772 49.0072 59.869 48.931 59.7888C48.8548 59.7085 48.7508 59.6629 48.642 59.6618H48.6388C48.4134 59.6618 48.2291 59.8549 48.2291 60.0896C48.2287 60.1453 48.2389 60.2006 48.2591 60.2523C48.2794 60.304 48.3093 60.351 48.3472 60.3907C48.3851 60.4304 48.4301 60.4621 48.4798 60.4838C48.5295 60.5055 48.5829 60.5169 48.6368 60.5174H48.6388ZM48.9473 61.8754C49.0706 61.8752 49.1887 61.8244 49.2757 61.7342C49.3628 61.644 49.4116 61.5219 49.4115 61.3945C49.4113 61.2672 49.3623 61.1451 49.2751 61.0552C49.1879 60.9652 49.0696 60.9146 48.9463 60.9146C48.8231 60.9146 48.7048 60.9652 48.6176 61.0552C48.5304 61.1451 48.4814 61.2672 48.4812 61.3945C48.4811 61.5219 48.5299 61.644 48.617 61.7342C48.704 61.8244 48.8221 61.8752 48.9454 61.8754H48.9473ZM47.3592 62.2371C47.5845 62.2371 47.7644 62.0467 47.7644 61.8113C47.7644 61.5759 47.5819 61.3855 47.3592 61.3855C47.3056 61.3858 47.2527 61.3971 47.2033 61.4186C47.154 61.44 47.1092 61.4713 47.0716 61.5107C47.0339 61.55 47.0042 61.5967 46.984 61.6479C46.9638 61.6991 46.9536 61.754 46.954 61.8093V61.8113C46.9532 61.8664 46.9629 61.9212 46.9827 61.9724C47.0024 62.0236 47.0317 62.0703 47.0689 62.1099C47.1061 62.1494 47.1505 62.181 47.1995 62.2028C47.2485 62.2246 47.3012 62.2363 47.3545 62.2371H47.3592ZM42.8783 61.6057C43.3622 61.6057 43.7565 61.1938 43.7565 60.6866C43.7565 60.1795 43.3622 59.7676 42.8783 59.7676C42.3943 59.7676 42 60.1802 42 60.6873C42 61.1944 42.3943 61.6057 42.8783 61.6057ZM44.8716 59.9646C45.2883 59.9646 45.6238 59.6109 45.6238 59.1758C45.6238 58.7408 45.2858 58.387 44.8716 58.387C44.6708 58.3884 44.4787 58.4722 44.3377 58.6198C44.1966 58.7675 44.1181 58.967 44.1195 59.1744V59.1758C44.1195 59.6135 44.4574 59.9646 44.8716 59.9646ZM44.0939 57.9414C44.508 57.9414 44.8415 57.5903 44.8415 57.1572C44.8415 56.7242 44.5061 56.3731 44.0939 56.3731C43.995 56.3738 43.8973 56.3945 43.8062 56.4343C43.7151 56.474 43.6325 56.5318 43.5631 56.6045C43.4936 56.6772 43.4387 56.7633 43.4015 56.8579C43.3643 56.9525 43.3455 57.0537 43.3462 57.1558V57.1572C43.3442 57.3631 43.4214 57.5614 43.5609 57.7084C43.7003 57.8555 43.8906 57.9393 44.0899 57.9414H44.0939ZM46.0155 56.9827C46.3689 56.9827 46.6576 56.6825 46.6576 56.3103C46.6576 55.938 46.3695 55.6378 46.0155 55.6378C45.6615 55.6378 45.3735 55.938 45.3735 56.3103C45.3735 56.6825 45.6622 56.9827 46.0155 56.9827ZM46.801 59.0013C47.1569 59.0013 47.4449 58.6991 47.4449 58.3269C47.4449 57.9546 47.1569 57.6525 46.801 57.6525C46.445 57.6525 46.157 57.9546 46.157 58.3269C46.157 58.6991 46.445 59.0013 46.801 59.0013ZM48.5498 58.5821C48.6961 58.5809 48.836 58.5196 48.9386 58.4119C49.0413 58.3042 49.0983 58.1587 49.0971 58.0076C49.0982 57.9333 49.0851 57.8596 49.0586 57.7906C49.0322 57.7216 48.9928 57.6586 48.9427 57.6053C48.8927 57.552 48.833 57.5094 48.767 57.48C48.701 57.4505 48.63 57.4348 48.5582 57.4336C48.4863 57.4325 48.4149 57.446 48.3481 57.4733C48.2813 57.5007 48.2203 57.5414 48.1687 57.5931C48.1171 57.6448 48.0759 57.7064 48.0474 57.7746C48.0188 57.8427 48.0036 57.916 48.0025 57.9903C48.0025 57.9961 48.0025 58.0018 48.0025 58.0076C48.0008 58.1582 48.0571 58.3034 48.159 58.4111C48.2609 58.5188 48.4001 58.5804 48.5459 58.5822L48.5498 58.5821ZM50.0605 58.5874C50.3217 58.5874 50.5335 58.3665 50.5335 58.0941C50.5335 57.8217 50.3217 57.6009 50.0605 57.6009C49.9338 57.6009 49.8124 57.6529 49.7228 57.7454C49.6333 57.8379 49.583 57.9633 49.583 58.0941C49.583 58.225 49.6333 58.3504 49.7228 58.4429C49.8124 58.5354 49.9338 58.5874 50.0605 58.5874ZM51.3087 58.8843C51.527 58.8843 51.7075 58.6985 51.7075 58.4677C51.7075 58.237 51.5296 58.0512 51.3087 58.0512C51.2025 58.052 51.1008 58.0963 51.0261 58.1744C50.9513 58.2525 50.9096 58.3579 50.9099 58.4677C50.9125 58.6958 51.0898 58.8843 51.3087 58.8843ZM51.4713 57.3649C51.5639 57.3642 51.6525 57.3256 51.7175 57.2575C51.7826 57.1894 51.8188 57.0975 51.8183 57.0019C51.8183 56.8015 51.6627 56.6389 51.4713 56.6389C51.2799 56.6389 51.1244 56.8015 51.1244 57.0019C51.1239 57.0975 51.1601 57.1894 51.2251 57.2575C51.2902 57.3256 51.3787 57.3642 51.4713 57.3649ZM50.5111 56.8676C50.6171 56.8674 50.7186 56.8237 50.7934 56.7461C50.8682 56.6686 50.9101 56.5636 50.91 56.4542C50.9098 56.3447 50.8677 56.2398 50.7927 56.1625C50.7177 56.0851 50.6161 56.0417 50.5101 56.0417C50.4042 56.0417 50.3026 56.0851 50.2276 56.1625C50.1526 56.2398 50.1105 56.3447 50.1103 56.4542C50.1102 56.5636 50.1521 56.6686 50.2269 56.7461C50.3017 56.8237 50.4032 56.8674 50.5092 56.8676H50.5111ZM49.2776 56.5661C49.4027 56.5651 49.5222 56.5129 49.6101 56.4209C49.6979 56.3289 49.7469 56.2047 49.7462 56.0755C49.7462 55.8031 49.5369 55.5849 49.2776 55.5849C49.0184 55.5849 48.809 55.8058 48.809 56.0755C48.8085 56.1394 48.8202 56.2028 48.8434 56.2621C48.8666 56.3213 48.9009 56.3753 48.9443 56.4208C48.9877 56.4664 49.0394 56.5026 49.0963 56.5276C49.1533 56.5525 49.2145 56.5656 49.2763 56.5661H49.2776ZM47.7695 56.5681C48.0735 56.5681 48.3187 56.3103 48.3187 55.9936C48.3187 55.6768 48.0735 55.419 47.7695 55.419C47.4654 55.419 47.2202 55.6768 47.2202 55.9936C47.2197 56.1448 47.2772 56.2902 47.3801 56.3979C47.483 56.5055 47.623 56.5667 47.7695 56.5681ZM45.7383 55.1314C46.0827 55.1314 46.3599 54.8404 46.3599 54.4801C46.3599 54.1198 46.0808 53.8288 45.7383 53.8288C45.394 53.8288 45.1168 54.1198 45.1168 54.4801C45.1168 54.8404 45.3959 55.1314 45.7383 55.1314ZM47.4865 54.7366C47.7906 54.7366 48.0358 54.4788 48.0358 54.1621C48.0358 53.8454 47.7906 53.5875 47.4865 53.5875C47.1825 53.5875 46.9373 53.8454 46.9373 54.1621C46.9373 54.4788 47.1825 54.7366 47.4865 54.7366ZM48.9966 54.7439C49.2578 54.7439 49.4697 54.5231 49.4697 54.2487C49.4697 53.9743 49.2578 53.7535 48.9966 53.7535C48.9341 53.7538 48.8724 53.7669 48.8148 53.7919C48.7572 53.8169 48.705 53.8534 48.661 53.8992C48.6171 53.9451 48.5824 53.9994 48.5588 54.0592C48.5352 54.1189 48.5232 54.1829 48.5235 54.2474V54.2487C48.523 54.3791 48.5725 54.5043 48.6611 54.5971C48.7498 54.6899 48.8704 54.7427 48.9966 54.7439ZM50.2359 55.0388C50.4567 55.0388 50.6347 54.853 50.6347 54.6223C50.6347 54.3915 50.4567 54.2057 50.2359 54.2057C50.1289 54.2057 50.0264 54.2496 49.9507 54.3277C49.8751 54.4058 49.8326 54.5118 49.8326 54.6223C49.8326 54.7327 49.8751 54.8387 49.9507 54.9168C50.0264 54.9949 50.1289 55.0388 50.2359 55.0388ZM51.1878 55.5492C51.2827 55.5485 51.3735 55.5089 51.4403 55.4392C51.507 55.3694 51.5442 55.2751 51.5437 55.177C51.5437 54.97 51.3836 54.8047 51.1878 54.8047C50.9919 54.8047 50.8318 54.972 50.8318 55.177C50.8318 55.382 50.9919 55.5492 51.1878 55.5492ZM51.8861 56.135C51.9248 56.1348 51.963 56.1267 51.9987 56.1111C52.0343 56.0956 52.0666 56.073 52.0938 56.0446C52.121 56.0161 52.1424 55.9825 52.157 55.9455C52.1716 55.9085 52.1789 55.8689 52.1787 55.8289C52.179 55.7889 52.1717 55.7487 52.1572 55.7117C52.1428 55.6746 52.1214 55.6409 52.0942 55.6124C52.0671 55.5839 52.0349 55.5612 51.9993 55.5456C51.9637 55.53 51.9254 55.5218 51.8868 55.5215C51.8482 55.5217 51.8092 55.5299 51.7736 55.5454C51.738 55.5609 51.7056 55.5835 51.6785 55.612C51.6513 55.6404 51.6298 55.6741 51.6153 55.7111C51.6007 55.7481 51.5933 55.7877 51.5936 55.8276C51.593 55.8672 51.6 55.9073 51.6141 55.9442C51.6283 55.9811 51.6494 56.0148 51.6761 56.0433C51.7029 56.0717 51.7348 56.0945 51.77 56.1102C51.8053 56.126 51.8432 56.1344 51.8817 56.135H51.8861Z" fill="white"/>
</g>
<defs>
<clipPath id="clip0_108_146">
<rect width="100" height="120" fill="white"/>
</clipPath>
</defs>
</svg>
