<svg width="100" height="120" viewBox="0 0 100 120" fill="none" xmlns="http://www.w3.org/2000/svg">
<g clip-path="url(#clip0_108_186)">
<rect width="100" height="120" fill="black"/>
<path fill-rule="evenodd" clip-rule="evenodd" d="M50.2073 67.9827C54.5123 67.9827 57.7733 65.0982 58.4498 61.3242H54.777C54.228 63.3282 52.524 64.7952 50.2508 64.7952C47.994 64.7952 46.2683 63.3177 45.696 61.3242H42C42.6518 65.1117 45.885 67.9827 50.2073 67.9827Z" fill="white"/>
<path d="M50.2312 55.7905C51.2779 55.7905 52.1264 54.9419 52.1264 53.8952C52.1264 52.8485 51.2779 52 50.2312 52C49.1844 52 48.3359 52.8485 48.3359 53.8952C48.3359 54.9419 49.1844 55.7905 50.2312 55.7905Z" fill="white"/>
<path fill-rule="evenodd" clip-rule="evenodd" d="M45.4922 61.3246V61.2871C45.4922 58.5924 47.4227 56.3926 50.206 56.3926C52.99 56.3926 54.961 58.6299 54.9655 61.3246H45.4922Z" fill="white"/>
</g>
<defs>
<clipPath id="clip0_108_186">
<rect width="100" height="120" fill="white"/>
</clipPath>
</defs>
</svg>
