<svg width="100" height="120" viewBox="0 0 100 120" fill="none" xmlns="http://www.w3.org/2000/svg">
<g clip-path="url(#clip0_108_202)">
<rect width="100" height="120" fill="#2E9AD0"/>
<path d="M52.0855 67.5026H47.5115L43.8208 64.6231L42.4141 59.972L43.8177 55.3209L47.5085 52.4414H52.0855L55.7762 55.3209L57.1799 59.972L55.7762 64.6231L55.7248 64.6778L52.0855 67.5026ZM47.6144 67.1677H51.9827L55.5191 64.4008L56.8713 59.972L55.5191 55.5432L51.9827 52.7763H47.6144L44.0809 55.5432L42.7287 59.972L44.0809 64.4008L47.6144 67.1677Z" fill="white"/>
<path d="M57.706 66.726L55.5733 64.6775L53.492 63.8465L49.8013 64.3457L46.0592 63.8465L43.9779 64.6775L43.875 64.3457L46.0047 63.46H46.0592L49.8013 64.014L53.5465 63.46L53.5979 63.5147L55.782 64.4005L57.9118 66.5038L57.706 66.726Z" fill="white"/>
<path d="M51.9866 67.6669L49.8025 64.4556L47.5154 67.6669L45.8516 63.7373L46.1632 63.5698L47.6183 67.0034L49.8025 63.8469L51.9352 67.0034L53.3903 63.5698L55.3657 59.3633L55.8346 64.5104H55.523L55.157 60.5808L53.7019 63.7373L51.9866 67.6669Z" fill="white"/>
<path d="M42.625 59.8047H57.0792V60.1365H42.625V59.8047Z" fill="white"/>
<path d="M55.365 60.5807L53.5469 56.7606L51.9859 60.3585L49.8017 56.2066L47.5661 60.3585L46.0051 56.7606L44.187 60.5807L43.7695 55.4883L44.0842 55.4336L44.3957 59.4179L46.0051 56.0424L47.5661 59.6402L49.8017 55.5431L51.9345 59.6402L53.5469 56.0424L55.1563 59.3632L55.4164 55.4336H55.731L55.365 60.5807Z" fill="white"/>
<path d="M53.3896 56.483L51.9345 52.9946L49.8017 56.206L47.6176 52.9946L46.1625 56.483L45.9023 56.3187L47.5147 52.3311L49.8017 55.5972L51.9859 52.3311L53.7011 56.3187L53.3896 56.483ZM55.5223 64.5096L55.1562 60.58L53.5469 64.0136L51.9345 60.3578L49.8017 64.5096L47.5661 60.3578L46.0051 64.0136L44.3957 60.58L44.0842 64.5096H43.7695L44.187 59.3625L46.0051 63.2373L47.5661 59.6395L49.8017 63.7914L51.9859 59.6395L53.5469 63.2921L55.365 59.3625L55.8339 64.5096H55.5223Z" fill="white"/>
<path d="M53.5465 56.5959L49.7499 56.0419L46.0047 56.5959L43.875 55.5974L43.9779 55.2656L46.0592 56.2062L49.7499 55.7101L53.5465 56.2062L55.5733 55.2656L55.7306 55.5974L53.5465 56.5959Z" fill="white"/>
<path d="M47.5646 67.998C47.9088 67.998 48.1878 67.7009 48.1878 67.3345C48.1878 66.968 47.9088 66.6709 47.5646 66.6709C47.2204 66.6709 46.9414 66.968 46.9414 67.3345C46.9414 67.7009 47.2204 67.998 47.5646 67.998Z" fill="white"/>
<path d="M51.9317 67.998C52.2759 67.998 52.5549 67.7009 52.5549 67.3345C52.5549 66.968 52.2759 66.6709 51.9317 66.6709C51.5876 66.6709 51.3086 66.968 51.3086 67.3345C51.3086 67.7009 51.5876 67.998 51.9317 67.998Z" fill="white"/>
<path d="M47.5646 53.3271C47.9088 53.3271 48.1878 53.03 48.1878 52.6636C48.1878 52.2971 47.9088 52 47.5646 52C47.2204 52 46.9414 52.2971 46.9414 52.6636C46.9414 53.03 47.2204 53.3271 47.5646 53.3271Z" fill="white"/>
<path d="M51.9317 53.3271C52.2759 53.3271 52.5549 53.03 52.5549 52.6636C52.5549 52.2971 52.2759 52 51.9317 52C51.5876 52 51.3086 52.2971 51.3086 52.6636C51.3086 53.03 51.5876 53.3271 51.9317 53.3271Z" fill="white"/>
<path d="M55.5724 56.0966C55.9166 56.0966 56.1956 55.7995 56.1956 55.433C56.1956 55.0666 55.9166 54.7695 55.5724 54.7695C55.2282 54.7695 54.9492 55.0666 54.9492 55.433C54.9492 55.7995 55.2282 56.0966 55.5724 56.0966Z" fill="white"/>
<path d="M43.924 56.0966C44.2681 56.0966 44.5472 55.7995 44.5472 55.433C44.5472 55.0666 44.2681 54.7695 43.924 54.7695C43.5798 54.7695 43.3008 55.0666 43.3008 55.433C43.3008 55.7995 43.5798 56.0966 43.924 56.0966Z" fill="white"/>
<path d="M43.924 65.2314C44.2681 65.2314 44.5472 64.9343 44.5472 64.5678C44.5472 64.2014 44.2681 63.9043 43.924 63.9043C43.5798 63.9043 43.3008 64.2014 43.3008 64.5678C43.3008 64.9343 43.5798 65.2314 43.924 65.2314Z" fill="white"/>
<path d="M42.6232 60.6347C42.9674 60.6347 43.2464 60.3376 43.2464 59.9711C43.2464 59.6047 42.9674 59.3076 42.6232 59.3076C42.279 59.3076 42 59.6047 42 59.9711C42 60.3376 42.279 60.6347 42.6232 60.6347Z" fill="white"/>
<path d="M57.0255 60.6347C57.3697 60.6347 57.6487 60.3376 57.6487 59.9711C57.6487 59.6047 57.3697 59.3076 57.0255 59.3076C56.6813 59.3076 56.4023 59.6047 56.4023 59.9711C56.4023 60.3376 56.6813 60.6347 57.0255 60.6347Z" fill="white"/>
<path d="M55.2599 60.6347C55.6041 60.6347 55.8831 60.3376 55.8831 59.9711C55.8831 59.6047 55.6041 59.3076 55.2599 59.3076C54.9157 59.3076 54.6367 59.6047 54.6367 59.9711C54.6367 60.3376 54.9157 60.6347 55.2599 60.6347Z" fill="white"/>
<path d="M44.2872 60.6347C44.6314 60.6347 44.9104 60.3376 44.9104 59.9711C44.9104 59.6047 44.6314 59.3076 44.2872 59.3076C43.9431 59.3076 43.6641 59.6047 43.6641 59.9711C43.6641 60.3376 43.9431 60.6347 44.2872 60.6347Z" fill="white"/>
<path d="M47.5646 60.6347C47.9088 60.6347 48.1878 60.3376 48.1878 59.9711C48.1878 59.6047 47.9088 59.3076 47.5646 59.3076C47.2204 59.3076 46.9414 59.6047 46.9414 59.9711C46.9414 60.3376 47.2204 60.6347 47.5646 60.6347Z" fill="white"/>
<path d="M51.9317 60.6347C52.2759 60.6347 52.5549 60.3376 52.5549 59.9711C52.5549 59.6047 52.2759 59.3076 51.9317 59.3076C51.5876 59.3076 51.3086 59.6047 51.3086 59.9711C51.3086 60.3376 51.5876 60.6347 51.9317 60.6347Z" fill="white"/>
<path d="M50.4142 55.9819C50.4693 55.6202 50.2386 55.2793 49.8989 55.2206C49.5591 55.1619 49.239 55.4076 49.1839 55.7693C49.1288 56.131 49.3595 56.4718 49.6992 56.5305C50.0389 56.5892 50.359 56.3436 50.4142 55.9819Z" fill="white"/>
<path d="M46.0021 57.0916C46.3462 57.0916 46.6252 56.7945 46.6252 56.4281C46.6252 56.0616 46.3462 55.7646 46.0021 55.7646C45.6579 55.7646 45.3789 56.0616 45.3789 56.4281C45.3789 56.7945 45.6579 57.0916 46.0021 57.0916Z" fill="white"/>
<path d="M53.5451 57.0916C53.8892 57.0916 54.1682 56.7945 54.1682 56.4281C54.1682 56.0616 53.8892 55.7646 53.5451 55.7646C53.2009 55.7646 52.9219 56.0616 52.9219 56.4281C52.9219 56.7945 53.2009 57.0916 53.5451 57.0916Z" fill="white"/>
<path d="M49.799 64.8417C50.1432 64.8417 50.4222 64.5446 50.4222 64.1781C50.4222 63.8117 50.1432 63.5146 49.799 63.5146C49.4548 63.5146 49.1758 63.8117 49.1758 64.1781C49.1758 64.5446 49.4548 64.8417 49.799 64.8417Z" fill="white"/>
<path d="M46.0021 64.2879C46.3462 64.2879 46.6252 63.9908 46.6252 63.6244C46.6252 63.2579 46.3462 62.9609 46.0021 62.9609C45.6579 62.9609 45.3789 63.2579 45.3789 63.6244C45.3789 63.9908 45.6579 64.2879 46.0021 64.2879Z" fill="white"/>
<path d="M53.5451 64.2879C53.8892 64.2879 54.1682 63.9908 54.1682 63.6244C54.1682 63.2579 53.8892 62.9609 53.5451 62.9609C53.2009 62.9609 52.9219 63.2579 52.9219 63.6244C52.9219 63.9908 53.2009 64.2879 53.5451 64.2879Z" fill="white"/>
<path d="M57.8085 67.502C58.2679 67.502 58.6404 67.1055 58.6404 66.6163C58.6404 66.1271 58.2679 65.7305 57.8085 65.7305C57.349 65.7305 56.9766 66.1271 56.9766 66.6163C56.9766 67.1055 57.349 67.502 57.8085 67.502Z" fill="white"/>
</g>
<defs>
<clipPath id="clip0_108_202">
<rect width="100" height="120" fill="white"/>
</clipPath>
</defs>
</svg>
