<svg width="100" height="120" viewBox="0 0 100 120" fill="none" xmlns="http://www.w3.org/2000/svg">
<g clip-path="url(#clip0_108_239)">
<rect width="100" height="120" fill="#1B1F2B"/>
<path d="M45.3164 52.7206V53.4689V65.6906V65.9123V66.4388L46.0092 67.1594H53.9908L54.6836 66.4388V65.9123V65.6906V53.4689V52.9423V52.7206L53.9908 52H46.0092L45.3164 52.7206Z" fill="url(#paint0_linear_108_239)"/>
<path d="M46.7578 65.6914H53.2428V53.4697H46.7578V65.6914Z" fill="#1B1F2B"/>
<path d="M52.4007 61.7261H50.7606V63.4443H49.2807V61.7261H47.6406V60.2462H52.4007V61.7261ZM52.4007 57.4859H50.7606V55.7676H49.2807V57.4859H47.6406V58.9658H52.4007V57.4859Z" fill="url(#paint1_linear_108_239)"/>
</g>
<defs>
<linearGradient id="paint0_linear_108_239" x1="43.1669" y1="53.1775" x2="55.9436" y2="66.8142" gradientUnits="userSpaceOnUse">
<stop stop-color="#2AB8E6"/>
<stop offset="0.53" stop-color="#29CAD2"/>
<stop offset="1" stop-color="#2EE4BE"/>
</linearGradient>
<linearGradient id="paint1_linear_108_239" x1="47.731" y1="57.3163" x2="52.3109" y2="61.8962" gradientUnits="userSpaceOnUse">
<stop stop-color="#2AB8E6"/>
<stop offset="0.53" stop-color="#29CAD2"/>
<stop offset="1" stop-color="#2EE4BE"/>
</linearGradient>
<clipPath id="clip0_108_239">
<rect width="100" height="120" fill="white"/>
</clipPath>
</defs>
</svg>
