<svg width="100" height="120" viewBox="0 0 100 120" fill="none" xmlns="http://www.w3.org/2000/svg">
<g clip-path="url(#clip0_108_287)">
<rect width="100" height="120" fill="white"/>
<rect width="100" height="120" fill="url(#paint0_linear_108_287)"/>
<path d="M50 73C42.85 73 37 67.15 37 60C37 52.85 42.85 47 50 47C57.15 47 63 52.85 63 60C63 67.15 57.15 73 50 73ZM50 49.8905C44.4406 49.8905 39.8906 54.4406 39.8906 60C39.8906 65.5595 44.4406 70.1095 50 70.1095C55.5595 70.1095 60.1095 65.5595 60.1095 60C60.1095 54.4406 55.5595 49.8905 50 49.8905Z" fill="black"/>
<path d="M48.7789 63.25H53.9789V65.85H50.9108V68.05H48.2425V65.9182H45.0426C45.0426 65.05 44.9108 64.1864 45.1107 63.3864C45.1789 62.9864 45.6426 62.5863 45.9789 62.1864C46.9789 60.9864 47.9789 59.7864 49.0471 58.5864C49.4471 58.1182 49.8471 57.7182 50.3153 57.1864H45.3153V54.5864H48.2471V52.3867H50.8471V54.5179H54.0471C54.0471 55.386 54.1789 56.2497 53.9789 57.0497C53.9108 57.4497 53.4471 57.8497 53.1107 58.2497C52.1108 59.4497 51.1107 60.6497 50.0425 61.8497C49.6424 62.3182 49.2426 62.7818 48.7789 63.25Z" fill="black"/>
</g>
<defs>
<linearGradient id="paint0_linear_108_287" x1="15.6693" y1="101.144" x2="97.1399" y2="33.2517" gradientUnits="userSpaceOnUse">
<stop stop-color="#CF8724"/>
<stop offset="1" stop-color="#FDCE58"/>
</linearGradient>
<clipPath id="clip0_108_287">
<rect width="100" height="120" fill="white"/>
</clipPath>
</defs>
</svg>
