<svg width="64" height="64" viewBox="0 0 64 64" fill="none" xmlns="http://www.w3.org/2000/svg">
<rect width="64" height="64" rx="20" fill="#2B2E41"/>
<path d="M18.9033 19.4038L16.1797 18.5V38.6429C17.2691 38.772 26.5294 43.8077 26.5294 43.8077C26.257 43.2912 19.5842 37.8681 18.9033 37.4808V19.4038Z" fill="#242634"/>
<path d="M18.9033 19.4038L16.1797 18.5V38.6429C17.2691 38.772 26.5294 43.8077 26.5294 43.8077C26.257 43.2912 19.5842 37.8681 18.9033 37.4808V19.4038Z" fill="url(#paint0_linear_2702_108918)"/>
<path d="M14.4094 24.0194L12.3667 23.481V41.654C16.0436 41.9233 28.2998 47.1733 28.2998 47.1733C27.7551 46.3656 19.5843 41.3848 14.5456 39.7694L14.4094 24.0194Z" fill="#403D57"/>
<path d="M43.9605 19.4038L46.6841 18.5V38.6429C45.5946 38.772 36.3344 43.8077 36.3344 43.8077C36.6067 43.2912 43.2796 37.8681 43.9605 37.4808V19.4038Z" fill="#242634"/>
<path d="M43.9605 19.4038L46.6841 18.5V38.6429C45.5946 38.772 36.3344 43.8077 36.3344 43.8077C36.6067 43.2912 43.2796 37.8681 43.9605 37.4808V19.4038Z" fill="url(#paint1_linear_2702_108918)"/>
<path d="M48.5906 24.0194L50.6333 23.481V41.654C46.9564 41.9233 34.7002 47.1733 34.7002 47.1733C35.2449 46.3656 43.4157 41.3848 48.4544 39.7694L48.5906 24.0194Z" fill="#403D57"/>
<path d="M20.5376 36.7571V16.6155C20.5376 16.6155 27.8101 17.9617 31.432 27.5193C35.1901 17.9616 42.3264 16.6155 42.3264 16.6155V36.7571C42.3264 36.7571 31.9101 44.3463 31.432 48.5193C30.5434 44.3463 20.5376 36.7571 20.5376 36.7571Z" fill="white"/>
<path d="M25.9847 33.4126C25.9847 34.8533 26.5085 36.0509 27.556 37.0053C28.5936 37.9505 29.8856 38.4231 31.4319 38.4231C32.9883 38.4231 34.2803 37.9505 35.3078 37.0053C36.3554 36.0509 36.8792 34.8533 36.8792 33.4126C36.8792 32.5408 36.6547 31.7378 36.2057 31.0037C35.9211 30.5217 35.5693 30.1091 35.1504 29.766C34.762 29.4479 34.2015 29.5999 33.9338 30.0247V30.0247C33.6351 30.4985 33.831 31.1184 34.1963 31.543C34.2977 31.6608 34.3888 31.7884 34.4698 31.9259C34.7392 32.3664 34.8739 32.862 34.8739 33.4126C34.8739 34.3486 34.5546 35.1057 33.9161 35.6838C33.2676 36.2528 32.4396 36.5373 31.4319 36.5373C30.4343 36.5373 29.6112 36.2528 28.9627 35.6838C28.3242 35.1057 28.005 34.3486 28.005 33.4126C28.005 32.862 28.1347 32.3664 28.3941 31.9259C28.476 31.7892 28.5667 31.6626 28.6662 31.5462C29.0304 31.12 29.2272 30.496 28.9283 30.0218V30.0218C28.6616 29.5986 28.1036 29.4474 27.7154 29.7629C27.2926 30.1066 26.9352 30.5202 26.6432 31.0037C26.2042 31.7378 25.9847 32.5408 25.9847 33.4126Z" fill="#242634"/>
<defs>
<linearGradient id="paint0_linear_2702_108918" x1="26.5294" y1="18.5" x2="4.66243" y2="37.7207" gradientUnits="userSpaceOnUse">
<stop stop-color="#42E4EE"/>
<stop offset="1" stop-color="#6271EB"/>
</linearGradient>
<linearGradient id="paint1_linear_2702_108918" x1="36.3344" y1="18.5" x2="58.2013" y2="37.7207" gradientUnits="userSpaceOnUse">
<stop stop-color="#42E4EE"/>
<stop offset="1" stop-color="#6271EB"/>
</linearGradient>
</defs>
</svg>
