<svg width="100" height="120" viewBox="0 0 100 120" fill="none" xmlns="http://www.w3.org/2000/svg">
<g clip-path="url(#clip0_108_62)">
<rect width="100" height="120" fill="#F29F10"/>
<path fill-rule="evenodd" clip-rule="evenodd" d="M49.1922 56.582C49.1652 56.6271 49.1085 56.8363 49.0661 57.0469C48.9168 57.7894 48.8998 57.8125 48.5001 57.8125C48.1977 57.8125 48.1088 57.8625 48.0629 58.0586C47.8845 58.8203 47.1162 62.5919 47.116 62.707C47.1158 62.7861 47.2563 62.8438 47.4492 62.8438C47.7457 62.8438 47.7827 62.8802 47.7827 63.1719C47.7827 63.474 47.8137 63.5 48.1719 63.5C48.5129 63.5 48.561 63.4661 48.561 63.2266C48.561 62.9793 48.6047 62.9531 49.0178 62.9531C49.4495 62.9531 49.4707 62.9681 49.4048 63.2266C49.3405 63.4786 49.3651 63.5 49.7174 63.5C50.052 63.5 50.1091 63.4589 50.1732 63.1719C50.2448 62.851 50.2614 62.8438 50.9252 62.8438C51.8363 62.8438 52.4483 62.5464 52.8913 61.8882C53.3045 61.2748 53.3166 60.9923 52.9481 60.5615C52.6693 60.2355 52.6685 60.2297 52.8914 60.1123C53.2098 59.9448 53.4661 59.4047 53.4734 58.8865C53.478 58.5515 53.4096 58.3763 53.1895 58.1598C52.9434 57.9176 52.7797 57.8678 52.1079 57.8304L51.3163 57.7865L51.384 57.3893C51.4212 57.1709 51.4825 56.8814 51.5202 56.7461C51.5819 56.5248 51.5495 56.5 51.1987 56.5C50.816 56.5 50.8057 56.5118 50.6532 57.1289C50.5001 57.7482 50.4912 57.7584 50.0714 57.7926C49.6751 57.8249 49.6493 57.8094 49.7069 57.5738C49.741 57.4344 49.8028 57.1358 49.8444 56.9102C49.9182 56.5095 49.9121 56.5 49.5806 56.5C49.394 56.5 49.2191 56.537 49.1922 56.582ZM57.0109 57.8059C55.7717 57.9141 55.0363 58.2311 54.3942 58.9336C53.2479 60.1878 53.3856 61.8907 54.6929 62.6258C55.1467 62.8808 55.2935 62.8999 57.083 62.936L58.9897 62.9743L59.0565 62.6356C59.0933 62.4493 59.1523 62.1492 59.1877 61.9688L59.2522 61.6406L57.6033 61.6402C56.1715 61.6399 55.9084 61.6121 55.6032 61.429C55.1926 61.1827 55.0723 60.8902 55.1702 60.3765C55.2672 59.8681 55.7208 59.3724 56.2119 59.2382C56.4373 59.1766 57.3312 59.126 58.1982 59.1257L59.7746 59.125L59.9034 58.5148C59.9743 58.1791 60.0153 57.8883 59.9946 57.8685C59.8977 57.7752 57.8537 57.7324 57.0109 57.8059ZM41.6846 60.3032C40.758 61.673 40 62.8296 40 62.8735C40 62.9173 40.6201 62.9531 41.3779 62.9531C42.9027 62.9531 42.8207 62.9952 42.95 62.1468C43.021 61.6805 43.0086 61.6406 42.7922 61.6406C42.6629 61.6406 42.5572 61.6058 42.5572 61.5633C42.5572 61.4641 44.1369 59.1112 44.177 59.1507C44.2226 59.1955 44.7808 61.3894 44.7808 61.5237C44.7808 61.588 44.6611 61.6406 44.5148 61.6406C44.2149 61.6406 44.1637 61.7304 44.0545 62.4469L43.9773 62.9531H45.3153H46.6531L46.3466 61.832C46.1781 61.2154 45.876 60.0587 45.6755 59.2617L45.3109 57.8125H44.3401H43.3693L41.6846 60.3032ZM51.7363 59.1732C51.9089 59.2995 51.9275 59.3705 51.8291 59.5287C51.7249 59.696 51.5238 59.7314 50.5227 59.7576L49.3393 59.7887V59.475C49.3393 59.3026 49.3726 59.1286 49.4134 59.0886C49.5655 58.939 51.5127 59.0099 51.7363 59.1732ZM51.5459 61.1412C51.6194 61.5183 51.2646 61.6406 50.0963 61.6406C49.0954 61.6406 49.0057 61.6233 49.0057 61.4308C49.0057 60.8916 49.0695 60.8659 50.3241 60.8987C51.3895 60.9266 51.5087 60.9504 51.5459 61.1412Z" fill="black"/>
</g>
<defs>
<clipPath id="clip0_108_62">
<rect width="100" height="120" fill="white"/>
</clipPath>
</defs>
</svg>
