<svg width="100" height="120" viewBox="0 0 100 120" fill="none" xmlns="http://www.w3.org/2000/svg">
<g clip-path="url(#clip0_108_75)">
<rect width="100" height="120" fill="#0AC18E"/>
<path d="M53.9622 56.047C53.3592 54.6795 51.9734 54.3871 50.2769 54.6703L49.7317 52.5566L48.4465 52.8886L48.9825 54.9962C48.6444 55.0815 48.2972 55.1546 47.9531 55.2521L47.417 53.1566L46.1317 53.4886L46.6769 55.6023C46.3998 55.6815 44.082 56.2754 44.082 56.2754L44.4353 57.6521C44.4353 57.6521 45.3795 57.3871 45.3703 57.4084C45.8942 57.2714 46.1409 57.5333 46.2566 57.78L47.7551 63.5729C47.7734 63.7404 47.7429 64.0267 47.3835 64.1241C47.4048 64.1363 46.4485 64.3648 46.4485 64.3648L46.5886 65.9698C46.5886 65.9698 48.885 65.382 49.1866 65.3059L49.7378 67.4439L51.0231 67.112L50.4718 64.9587C50.8251 64.8764 51.1693 64.7912 51.5043 64.7028L52.0526 66.8439L53.3378 66.512L52.7866 64.3769C54.7663 63.8957 56.1642 62.647 55.8779 60.7373C55.6952 59.5861 54.4373 58.6419 53.3927 58.5353C54.0353 57.9658 54.3612 57.1343 53.9622 56.047ZM53.3439 61.0876C53.5998 62.979 50.9713 63.2104 50.1033 63.4389L49.348 60.6094C50.2191 60.381 52.9114 59.4216 53.3439 61.0876ZM51.7602 57.2348C52.0312 58.916 49.7835 59.1109 49.0586 59.2967L48.3703 56.7292C49.0982 56.5495 51.2089 55.6785 51.7602 57.2348Z" fill="white"/>
</g>
<defs>
<clipPath id="clip0_108_75">
<rect width="100" height="120" fill="white"/>
</clipPath>
</defs>
</svg>
