<svg width="100" height="120" viewBox="0 0 100 120" fill="none" xmlns="http://www.w3.org/2000/svg">
<g clip-path="url(#clip0_108_89)">
<rect width="100" height="120" fill="#FE5D86"/>
<path d="M43.625 54.7792C43.625 54.3487 43.979 54 44.4155 54H50.1065C53.4635 54 54.6478 54.396 55.4638 55.2007C55.7161 55.457 55.9119 55.7634 56.0385 56.1001C56.1651 56.4367 56.2197 56.7962 56.1988 57.1552C56.1988 58.5435 55.451 59.4848 53.4335 59.898C55.382 60.2385 56.3713 61.0305 56.3713 62.6235C56.3897 62.995 56.3313 63.3664 56.1997 63.7143C56.0681 64.0622 55.866 64.3792 55.6063 64.6455C54.8075 65.433 53.5025 66 49.9903 66H44.4155C44.2074 66.0014 44.0072 65.9201 43.859 65.774C43.7107 65.6279 43.6266 65.4289 43.625 65.2208V54.7792ZM47.9458 59.2508C47.9458 58.9635 48.182 58.731 48.473 58.731H50.3053C51.3508 58.731 52.133 58.68 52.4953 58.305C52.5796 58.2164 52.6447 58.1113 52.6864 57.9963C52.7281 57.8812 52.7455 57.7588 52.7375 57.6367C52.76 57.3967 52.679 57.1582 52.5125 56.9805C52.145 56.619 51.3635 56.5552 50.3053 56.5552H46.895V63.4792H50.27C51.419 63.4792 52.2703 63.3937 52.6678 62.9977C52.8508 62.8102 52.9453 62.5552 52.9273 62.295C52.9438 62.0302 52.85 61.77 52.6678 61.575C52.2658 61.1798 51.4153 61.1498 50.27 61.1498H48.485C48.4135 61.1515 48.3423 61.1388 48.2758 61.1124C48.2093 61.086 48.1488 61.0464 48.098 60.996C48.0476 60.9462 48.0079 60.8865 47.9816 60.8207C47.9553 60.7549 47.9428 60.6844 47.945 60.6135L47.9458 59.2508Z" fill="white"/>
</g>
<defs>
<clipPath id="clip0_108_89">
<rect width="100" height="120" fill="white"/>
</clipPath>
</defs>
</svg>
