<svg width="100" height="120" viewBox="0 0 100 120" fill="none" xmlns="http://www.w3.org/2000/svg">
<g clip-path="url(#clip0_108_101)">
<rect width="100" height="120" fill="#13BF99"/>
<path d="M50 66.75H46.598L48.302 63.7822H51.698L53.402 66.75H50ZM48.3028 56.217L46.598 53.25H53.402L51.698 56.217H48.3028ZM55.802 63.3713L54.0972 66.3397L52.3992 63.372L54.0972 60.4035H57.5L55.802 63.3713ZM44.198 56.622L45.902 53.6543L47.6 56.622L45.902 59.589H42.5L44.198 56.622ZM47.5992 63.372L45.902 66.3397L44.198 63.372L42.5 60.4028H45.902L47.6 63.3705L47.5992 63.372ZM55.802 56.622L57.5 59.5898H54.098L52.3992 56.622L54.0972 53.6543L55.802 56.622Z" fill="white"/>
</g>
<defs>
<clipPath id="clip0_108_101">
<rect width="100" height="120" fill="white"/>
</clipPath>
</defs>
</svg>
