<svg width="100" height="120" viewBox="0 0 100 120" fill="none" xmlns="http://www.w3.org/2000/svg">
<g clip-path="url(#clip0_108_108)">
<rect width="100" height="120" fill="#7866D5"/>
<path d="M55.2302 53.9447C55.6367 53.9955 56.0601 54.0294 56.4666 54.0971C57.2627 54.2495 57.5337 54.656 57.3982 55.469C57.3643 55.7739 57.1272 56.011 56.8223 56.0618C56.636 56.0957 56.4328 56.1126 56.2465 56.0957C53.6043 56.0957 50.979 56.1126 48.3368 56.1126C47.9472 56.1126 47.5407 56.1465 47.1512 56.2143C45.847 56.4175 45.3389 56.9595 45.2373 58.2806C45.1865 58.8903 45.1865 58.8903 45.8131 58.8903H56.3142C56.4158 58.8903 56.5175 58.8903 56.6191 58.8903C56.7884 58.8903 56.9409 58.9411 57.0933 59.0258C57.5676 59.3307 57.449 59.8219 57.4321 60.2622C57.4151 60.6179 57.1949 60.8212 56.8223 60.8889C56.6699 60.9228 56.5175 60.9228 56.3481 60.9228C52.7574 60.9228 49.1667 60.9228 45.576 60.9228C45.1865 60.9228 45.1865 60.9228 45.2203 61.3124C45.2373 61.668 45.2712 62.0237 45.3558 62.3794C45.5252 63.023 45.9148 63.4295 46.5753 63.6158C47.2867 63.8191 48.0319 63.8529 48.7602 63.8699C51.3177 63.8699 53.8922 63.8699 56.4666 63.8699C56.7884 63.8699 57.0933 63.9037 57.2966 64.2086C57.6184 64.7167 57.449 65.3773 56.9409 65.6991C56.8731 65.7499 56.8054 65.7838 56.7207 65.8007C56.1618 65.987 55.5859 66.0209 54.9931 66.0378C52.5711 66.0886 50.166 66.0886 47.7609 66.0378C47.0157 66.0209 46.2705 65.9362 45.5422 65.7838C43.8315 65.4281 42.9677 64.5474 42.6798 62.8198C42.612 62.4302 42.5782 62.0237 42.5273 61.6172V58.4669C42.5612 58.162 42.5951 57.8402 42.629 57.5354C42.8492 55.5876 43.7299 54.6222 45.6438 54.1818C46.3213 54.0294 47.0326 53.9955 47.7101 53.9277L55.2302 53.9447Z" fill="white"/>
<path d="M51.3687 66.3767C50.1493 66.3767 48.9467 66.3597 47.7442 66.3428C46.982 66.3259 46.2198 66.2412 45.4746 66.0718C43.6284 65.6822 42.68 64.6999 42.3751 62.8707C42.3243 62.5827 42.2904 62.2948 42.2735 62.0238C42.2565 61.9053 42.2396 61.7867 42.2227 61.6512V61.6173V58.4331L42.2565 58.1283C42.2735 57.9081 42.3073 57.7048 42.3243 57.5016C42.5614 55.4183 43.5438 54.3513 45.5931 53.894C46.1351 53.7754 46.6602 53.7246 47.1852 53.6738C47.3546 53.6568 47.524 53.6399 47.6934 53.623H47.7272H55.2643H55.2812C55.3998 53.6399 55.5353 53.6568 55.6538 53.6568C55.9418 53.6907 56.2297 53.7077 56.5346 53.7754C57.5 53.9617 57.8726 54.5037 57.7032 55.4861C57.6524 55.9095 57.3137 56.2652 56.8564 56.3329C56.6531 56.3668 56.4499 56.3837 56.2297 56.3837C53.6044 56.4007 50.9622 56.4176 48.337 56.4176C47.9644 56.4176 47.5748 56.4515 47.2022 56.5192C46.0335 56.7055 45.644 57.129 45.5423 58.3146C45.5423 58.4162 45.5254 58.5178 45.5254 58.6025C45.5931 58.6025 45.7117 58.6025 45.8133 58.6025H56.6193C56.8394 58.6025 57.0596 58.6703 57.2459 58.7719C57.8218 59.1445 57.771 59.7034 57.7371 60.1099C57.7371 60.1607 57.7202 60.2285 57.7202 60.2793C57.6863 60.7535 57.3984 61.0753 56.8733 61.177C56.687 61.2108 56.5176 61.2108 56.3483 61.2108H45.5931C45.5762 61.2108 45.5423 61.2108 45.5254 61.2108C45.5254 61.2278 45.5254 61.2447 45.5254 61.2616V61.2786C45.5423 61.6343 45.5762 61.973 45.6609 62.3117C45.7964 62.8368 46.1182 63.1586 46.6602 63.311C47.3885 63.5143 48.1337 63.5482 48.7773 63.5482C50.7759 63.5651 52.8084 63.5651 54.79 63.5651H56.4838C56.7378 63.5651 57.2629 63.5651 57.5677 64.0563C57.771 64.3781 57.8218 64.7507 57.7371 65.1064C57.6524 65.4621 57.4322 65.7669 57.1104 65.9702C57.0257 66.021 56.9241 66.0718 56.8225 66.1057C56.1958 66.3089 55.5522 66.3428 55.0102 66.3597C53.8077 66.3597 52.5882 66.3767 51.3687 66.3767ZM42.8324 61.6004C42.8493 61.7189 42.8663 61.8375 42.8663 61.9561C42.9001 62.2271 42.934 62.4981 42.9679 62.7691C43.2389 64.3611 44.0011 65.1403 45.5931 65.479C46.3045 65.6314 47.0328 65.7161 47.7611 65.7331C50.1493 65.7839 52.5882 65.7839 54.9933 65.7331C55.4845 65.7161 56.0773 65.6822 56.6193 65.5129C56.6701 65.4959 56.7209 65.4621 56.7717 65.4451C56.9411 65.3266 57.0766 65.1572 57.1274 64.954C57.1782 64.7507 57.1443 64.5475 57.0257 64.3611C56.9241 64.2087 56.7886 64.1579 56.4668 64.1579H54.7731C52.8084 64.1579 50.759 64.1579 48.7604 64.141C48.0829 64.141 47.2869 64.1071 46.4908 63.87C45.7286 63.6667 45.2544 63.1755 45.0681 62.4134C44.9834 62.0408 44.9326 61.6512 44.9326 61.2786V61.2616C44.9157 61.0245 44.8987 60.8552 45.0342 60.7027C45.1697 60.5503 45.356 60.5503 45.5931 60.5503H56.3652C56.5007 60.5503 56.6531 60.5503 56.7886 60.5164C57.0596 60.4656 57.1274 60.347 57.1443 60.1777C57.1443 60.1099 57.1612 60.0591 57.1612 59.9914C57.1951 59.5679 57.1951 59.3647 56.958 59.2122C56.8733 59.1614 56.7548 59.1276 56.6531 59.1276H45.8133C45.4407 59.1276 45.2205 59.1276 45.0512 58.9582C44.8818 58.7888 44.9157 58.5517 44.9326 58.196C45.0512 56.7394 45.6609 56.0789 47.1006 55.8587C47.507 55.7909 47.9135 55.7571 48.337 55.7401C50.9792 55.7401 53.6044 55.7232 56.2466 55.7232C56.4329 55.7232 56.6023 55.7232 56.7717 55.6893C56.9411 55.6724 57.0766 55.5369 57.0935 55.3675C57.2121 54.69 57.0427 54.4698 56.3991 54.3343C56.1281 54.2835 55.8571 54.2496 55.5861 54.2327C55.4675 54.2158 55.332 54.1988 55.2135 54.1988H47.7272C47.5579 54.2158 47.3885 54.2327 47.2191 54.2496C46.6941 54.3005 46.2029 54.3343 45.6948 54.4529C43.9164 54.8933 43.1373 55.7571 42.934 57.5863C42.9171 57.7895 42.8832 57.9928 42.8663 58.2129L42.8324 58.5009V61.6004Z" fill="white"/>
</g>
<defs>
<clipPath id="clip0_108_108">
<rect width="100" height="120" fill="white"/>
</clipPath>
</defs>
</svg>
