<svg width="100" height="120" viewBox="0 0 100 120" fill="none" xmlns="http://www.w3.org/2000/svg">
<g clip-path="url(#clip0_108_155)">
<rect width="100" height="120" fill="white"/>
<path d="M50 51L42 55.5V64.5L50 69L58 64.5V55.5L50 51ZM50.1636 65.5774L44.0231 62.1651L44.048 60.5058L50.16 63.9145L53.1076 62.2587L51.1307 61.1467L50.3911 61.5624L49.0044 60.7864L49.7476 60.3672L48.7769 59.8199L48.1902 60.1524L46.8 59.3764L47.3902 59.0439L44.2578 57.2806L50.16 53.9619L55.728 57.0554L54.2347 57.9007L50.16 55.6247L47.2124 57.2806L48.8622 58.209L49.7049 57.7309L51.0951 58.5069L50.2453 58.985L51.216 59.5323L51.9058 59.1409L53.296 59.9169L52.5991 60.3118L56.0551 62.2552L50.1636 65.5774Z" fill="black"/>
</g>
<defs>
<clipPath id="clip0_108_155">
<rect width="100" height="120" fill="white"/>
</clipPath>
</defs>
</svg>
