<svg width="100" height="120" viewBox="0 0 100 120" fill="none" xmlns="http://www.w3.org/2000/svg">
<g clip-path="url(#clip0_108_149)">
<rect width="100" height="120" fill="#102044"/>
<path d="M56.0376 63.0125C56.3751 63.1422 56.5986 63.4632 56.6016 63.8225C56.6018 63.973 56.5625 64.1209 56.4878 64.2516C56.4131 64.3822 56.3054 64.4911 56.1756 64.5672C56.0453 64.6438 55.8974 64.6854 55.7463 64.688C55.5952 64.6907 55.446 64.6542 55.3131 64.5822L50.7906 67.0497C50.8018 67.169 50.7882 67.2893 50.7507 67.4031C50.7132 67.5168 50.6525 67.6216 50.5726 67.7109C50.4927 67.8001 50.3952 67.8718 50.2862 67.9216C50.1772 67.9713 50.0591 67.998 49.9394 68C49.7087 68.0056 49.4853 67.9194 49.3182 67.7604C49.1511 67.6013 49.0541 67.3824 49.0484 67.1517L46.8434 65.8895H46.7931V65.8632L44.4696 64.535C44.3245 64.635 44.1523 64.6884 43.9761 64.688C43.7663 64.6891 43.5631 64.6143 43.4041 64.4775C43.245 64.3406 43.1408 64.1509 43.1106 63.9432C43.0816 63.7357 43.1289 63.5248 43.2436 63.3495C43.3584 63.1742 43.5328 63.0464 43.7346 62.99V58.028C43.5648 57.9803 43.4136 57.8821 43.3011 57.7464C43.1885 57.6107 43.12 57.4439 43.1046 57.2682C43.0746 56.9097 43.2703 56.57 43.5981 56.4147C43.758 56.3388 43.9371 56.313 44.1119 56.3407C44.2867 56.3684 44.449 56.4483 44.5776 56.57L49.0551 54.005C49.0356 53.8806 49.0433 53.7534 49.0777 53.6323C49.1121 53.5112 49.1724 53.3989 49.2544 53.3034C49.3364 53.2078 49.4381 53.1312 49.5527 53.0788C49.6672 53.0264 49.7917 52.9995 49.9176 53C50.0472 52.9998 50.1752 53.0285 50.2922 53.0841C50.4093 53.1397 50.5124 53.2207 50.5942 53.3213C50.6759 53.4218 50.7341 53.5394 50.7646 53.6653C50.7951 53.7913 50.7971 53.9224 50.7704 54.0492L55.1414 56.5527C55.3011 56.4087 55.5089 56.3292 55.7256 56.33C55.8438 56.2858 55.9703 56.2681 56.0961 56.2779C56.2219 56.2878 56.344 56.3251 56.4538 56.3872C56.5637 56.4493 56.6586 56.5347 56.732 56.6374C56.8053 56.7401 56.8553 56.8576 56.8784 56.9817C56.9015 57.1057 56.8972 57.2333 56.8658 57.3555C56.8343 57.4777 56.7765 57.5916 56.6964 57.6891C56.6162 57.7866 56.5158 57.8654 56.402 57.9199C56.2882 57.9744 56.1638 58.0034 56.0376 58.0047V63.0125ZM52.9491 61.0587V65.321L54.9531 64.2282C54.8907 64.1087 54.8568 63.9763 54.8543 63.8415C54.8518 63.7066 54.8807 63.5731 54.9387 63.4513C54.9966 63.3295 55.0821 63.2229 55.1884 63.1399C55.2946 63.0568 55.4187 62.9996 55.5509 62.9727V58.0452C55.3539 58.0063 55.1764 57.9004 55.0486 57.7455C54.9208 57.5906 54.8505 57.3963 54.8496 57.1955C54.8496 57.116 54.8609 57.0365 54.8826 56.9592L52.9829 55.8702V59.8332H52.9799L52.9724 60.0927L52.8651 60.143L52.1804 60.5525L52.8351 60.9425L52.9394 60.992L52.9424 61.0385L52.9461 61.0587H52.9491ZM49.9191 54.7317C49.6701 54.7317 49.4331 54.6267 49.2674 54.4415L47.2799 55.5807V59.7897L48.0959 60.2757L49.1264 59.6697C49.1051 59.5583 49.1088 59.4435 49.1372 59.3336C49.1655 59.2237 49.2179 59.1215 49.2904 59.0342C49.363 58.9469 49.4539 58.8768 49.5568 58.8289C49.6597 58.781 49.7719 58.7564 49.8854 58.757C49.9961 58.7567 50.1056 58.7804 50.2063 58.8264C50.3071 58.8724 50.3967 58.9396 50.469 59.0234C50.5414 59.1072 50.5948 59.2057 50.6256 59.3121C50.6563 59.4185 50.6638 59.5302 50.6474 59.6397L51.7116 60.2727L52.5006 59.8002V55.5935L50.5401 54.4707C50.4592 54.5533 50.3625 54.6189 50.2559 54.6635C50.1492 54.7082 50.0347 54.7319 49.9191 54.7317ZM50.4291 61.0482L51.2414 60.5592L50.4254 60.0725C50.2836 60.2102 50.0946 60.2887 49.897 60.2919C49.6994 60.2951 49.508 60.2228 49.3619 60.0897L48.5594 60.5555L49.3581 61.0317C49.5046 60.8964 49.6975 60.8226 49.8969 60.8257C50.0963 60.8287 50.2869 60.9084 50.4291 61.0482ZM44.7831 64.1585L46.7931 65.3105V61.1915L46.7969 61.0587L46.8306 61.025L46.9986 60.9252L47.6226 60.5592L47.0586 60.2262L46.7969 60.0927V59.933H46.7939V55.8567L44.8228 56.9862C44.9391 57.4362 44.6728 57.8967 44.2228 58.025V62.993C44.4606 63.062 44.6578 63.2292 44.7651 63.4512C44.8723 63.674 44.8791 63.9312 44.7831 64.1585ZM49.9191 66.2532C50.1929 66.2532 50.4501 66.3807 50.6136 66.5997L52.4661 65.5872V61.2852L51.7116 60.8352L50.6466 61.475C50.6541 61.5125 50.6571 61.55 50.6571 61.5875C50.6571 62.0112 50.3121 62.354 49.8846 62.354C49.7723 62.354 49.6614 62.3295 49.5596 62.2821C49.4578 62.2347 49.3676 62.1655 49.2954 62.0795C49.2232 61.9935 49.1707 61.8928 49.1417 61.7843C49.1126 61.6758 49.1076 61.5623 49.1271 61.4517L48.0824 60.8322L47.2769 61.3017V65.5872L49.1706 66.6725C49.3281 66.4115 49.6124 66.2525 49.9191 66.2532Z" fill="white"/>
</g>
<defs>
<clipPath id="clip0_108_149">
<rect width="100" height="120" fill="white"/>
</clipPath>
</defs>
</svg>
