<svg width="100" height="120" viewBox="0 0 100 120" fill="none" xmlns="http://www.w3.org/2000/svg">
<g clip-path="url(#clip0_108_161)">
<rect width="100" height="120" fill="#8247E5"/>
<path d="M53.6005 57.9733C53.3446 57.819 53.0157 57.819 52.7232 57.9733L50.6762 59.2463L49.2872 60.0564L47.2768 61.3294C47.0209 61.4837 46.6919 61.4837 46.3995 61.3294L44.8277 60.3264C44.5718 60.1721 44.389 59.8635 44.389 59.5163V57.5875C44.389 57.2789 44.5352 56.9703 44.8277 56.7774L46.3995 55.8131C46.6554 55.6588 46.9843 55.6588 47.2768 55.8131L48.8486 56.816C49.1044 56.9703 49.2872 57.2789 49.2872 57.6261V58.8991L50.6762 58.0504V56.7389C50.6762 56.4303 50.53 56.1217 50.2376 55.9288L47.3133 54.1157C47.0574 53.9614 46.7285 53.9614 46.436 54.1157L43.4386 55.9674C43.1462 56.1217 43 56.4303 43 56.7389V60.365C43 60.6736 43.1462 60.9822 43.4386 61.1751L46.3995 62.9881C46.6554 63.1424 46.9843 63.1424 47.2768 62.9881L49.2872 61.7537L50.6762 60.905L52.6867 59.6706C52.9426 59.5163 53.2715 59.5163 53.564 59.6706L55.1358 60.635C55.3916 60.7893 55.5744 61.0979 55.5744 61.4451V63.3739C55.5744 63.6825 55.4282 63.9911 55.1358 64.184L53.6005 65.1484C53.3446 65.3027 53.0157 65.3027 52.7232 65.1484L51.1514 64.184C50.8956 64.0297 50.7128 63.7211 50.7128 63.3739V62.1395L49.3238 62.9881V64.2611C49.3238 64.5697 49.47 64.8783 49.7624 65.0712L52.7232 66.8843C52.9791 67.0386 53.3081 67.0386 53.6005 66.8843L56.5614 65.0712C56.8172 64.9169 57 64.6083 57 64.2611V60.5964C57 60.2878 56.8538 59.9792 56.5614 59.7864L53.6005 57.9733Z" fill="white"/>
</g>
<defs>
<clipPath id="clip0_108_161">
<rect width="100" height="120" fill="white"/>
</clipPath>
</defs>
</svg>
