<svg width="100" height="120" viewBox="0 0 100 120" fill="none" xmlns="http://www.w3.org/2000/svg">
<g clip-path="url(#clip0_108_174)">
<rect width="100" height="120" fill="#82BD39"/>
<path d="M48.8022 63.02L50 64.598V68L45.5 66.0027V57.2143C45.5 57.0845 45.5577 56.9608 45.659 56.8745L46.1713 56.4358C46.2206 56.3931 46.2782 56.361 46.3404 56.3414C46.4027 56.3219 46.4683 56.3153 46.5331 56.3221C46.598 56.329 46.6608 56.349 46.7176 56.3811C46.7745 56.4131 46.8241 56.4565 46.8635 56.5085L50.9623 61.8815L53.2265 63.266V55.856L51.2255 54.8578L51.128 59.5048L50.069 58.1L50.021 53L54.5 55.0843V63.8323L53.4822 64.6708L50.2767 62.8805L46.7188 58.2133L46.67 65.3038L48.7888 66.389L48.8022 63.02Z" fill="white"/>
</g>
<defs>
<clipPath id="clip0_108_174">
<rect width="100" height="120" fill="white"/>
</clipPath>
</defs>
</svg>
