<svg width="100" height="120" viewBox="0 0 100 120" fill="none" xmlns="http://www.w3.org/2000/svg">
<g clip-path="url(#clip0_108_180)">
<rect width="100" height="120" fill="white"/>
<path d="M48.3855 47.0689C42.7777 47.8307 38.2644 52.0573 37.2324 57.5154C36.5862 60.9594 37.295 64.4137 39.265 67.3671C39.9529 68.3899 41.6728 70.1222 42.663 70.7797C44.1744 71.7711 45.717 72.4182 47.4995 72.8044C48.7294 73.0652 51.2728 73.0652 52.5027 72.8044C55.046 72.2617 57.0994 71.1972 58.9131 69.4856C60.8309 67.6594 62.1027 65.4469 62.6655 62.9526C63.6453 58.6321 62.4466 54.2385 59.4134 51.0137C57.6309 49.1352 55.046 47.7055 52.4818 47.215C51.4083 47.0063 49.3548 46.9332 48.3855 47.0689ZM51.304 48.1021C54.3997 48.4569 57.3287 50.0432 59.2362 52.4017C60.4661 53.9358 61.1749 55.3552 61.6439 57.2859C61.8732 58.2042 61.9149 58.6216 61.9254 59.8949C61.9254 61.7108 61.7377 62.8274 61.1436 64.3302C58.0062 72.3973 47.635 74.5785 41.5581 68.4525C38.1289 65.0085 37.1178 59.9992 38.9419 55.4804C39.8696 53.1531 41.8083 50.9094 43.9555 49.6883C46.3007 48.3421 48.7398 47.8203 51.304 48.1021Z" fill="black"/>
<path d="M42.2342 57.1687C40.9832 57.6215 40.1844 59.1727 40.4731 60.6179C40.6175 61.3405 40.7811 61.6777 41.2334 62.1498C41.83 62.7953 42.2149 62.9399 43.2638 62.9399C44.101 62.9399 44.2261 62.911 44.688 62.6605C45.5445 62.1787 46.016 61.4176 46.1219 60.3385C46.2566 58.8548 45.4001 57.4674 44.1395 57.1109C43.6487 56.976 42.7057 57.0049 42.2342 57.1687ZM44.3416 58.373C44.9094 58.7873 45.198 59.7412 44.996 60.5794C44.6111 62.198 42.4844 62.5159 41.753 61.0611C41.3103 60.194 41.5413 58.8355 42.2149 58.3634C42.773 57.9587 43.7642 57.9684 44.3416 58.373Z" fill="black"/>
<path d="M55.2569 57.2075C53.4477 57.9301 52.9377 60.5989 54.3042 62.2175C55.0452 63.1039 56.7966 63.2677 57.5761 62.5162L57.7878 62.3139L57.8166 62.5836C57.8455 62.8245 57.8744 62.8438 58.3267 62.8438H58.8078L58.8367 61.3215L58.8655 59.8088H57.5087H56.1615V60.2906V60.7723H56.9794C57.8647 60.7723 57.8936 60.7916 57.6434 61.3118C57.4702 61.6683 56.8543 62.0248 56.3924 62.0248C55.2858 62.0248 54.6218 61.2444 54.6218 59.9823C54.6314 58.5852 55.5263 57.7855 56.7485 58.0746C57.22 58.1902 57.7012 58.6045 57.7012 58.9032C57.7012 58.9995 57.8455 59.0381 58.2785 59.0381H58.8463L58.7116 58.6045C58.4133 57.5929 57.6723 57.0822 56.4502 57.0437C55.9113 57.0244 55.6129 57.0629 55.2569 57.2075Z" fill="black"/>
<path d="M46.9219 60.0017V62.8921H47.403H47.8842L47.9034 60.9459L47.9323 58.9901L48.6444 60.9459L49.3565 62.9018L49.8377 62.8728L50.3188 62.8439L51.0213 60.917L51.7238 58.9901L51.7527 60.917L51.7816 62.8439L52.2916 62.8728L52.792 62.9018L52.7727 60.0306L52.7439 57.1595H52.0799H51.4063L50.6364 59.2984C50.213 60.4834 49.8377 61.418 49.8088 61.3698C49.7703 61.3313 49.4239 60.416 49.039 59.3273C48.654 58.2386 48.2884 57.2944 48.2403 57.2269C48.1825 57.1595 47.9131 57.1113 47.5378 57.1113H46.9219V60.0017Z" fill="black"/>
</g>
<defs>
<clipPath id="clip0_108_180">
<rect width="100" height="120" fill="white"/>
</clipPath>
</defs>
</svg>
