<svg width="100" height="120" viewBox="0 0 100 120" fill="none" xmlns="http://www.w3.org/2000/svg">
<g clip-path="url(#clip0_108_276)">
<rect width="100" height="120" fill="black"/>
<path d="M55.527 54.8321L53.6306 55.8472L44.4728 60.7478C44.4419 60.4996 44.4263 60.2497 44.4262 59.9994C44.4275 59.0009 44.677 58.02 45.1501 57.154C45.6232 56.2879 46.3034 55.5668 47.1234 55.0619C47.9434 54.5571 48.8747 54.2861 49.8251 54.2757C50.7755 54.2654 51.712 54.5161 52.5418 55.0029L53.6273 54.4219L53.7892 54.3351C52.7948 53.5768 51.6202 53.1222 50.3953 53.0214C49.1703 52.9206 47.9427 53.1776 46.8481 53.764C45.7535 54.3503 44.8345 55.2433 44.1927 56.3441C43.5509 57.4448 43.2113 58.7106 43.2114 60.0015C43.2114 60.1798 43.2179 60.3574 43.2308 60.5343C43.2488 60.7847 43.1959 61.0353 43.0788 61.2542C42.9616 61.4732 42.7855 61.6509 42.5724 61.765L42 62.0716V63.5019L43.6852 62.5995L44.231 62.3068L44.7687 62.0191L54.4229 56.8511L55.5077 56.2708L57.75 55.0702V53.6406L55.527 54.8321Z" fill="white"/>
<path d="M57.75 56.502L45.3171 63.1527L44.2323 63.7345L42 64.9295V66.3584L44.217 65.1718L46.1134 64.1566L55.2805 59.2491C55.3115 59.4989 55.3271 59.7505 55.3271 60.0024C55.3265 61.0021 55.0771 61.9842 54.6035 62.8513C54.13 63.7184 53.4488 64.4403 52.6276 64.9453C51.8064 65.4503 50.8738 65.7208 49.9223 65.7301C48.9708 65.7394 48.0335 65.487 47.2036 64.9981L47.1369 65.0352L45.9602 65.6653C46.9543 66.4236 48.1286 66.8784 49.3534 66.9794C50.5782 67.0804 51.8057 66.8238 52.9003 66.2378C53.9949 65.6518 54.914 64.7593 55.5561 63.6589C56.1981 62.5585 56.5382 61.2931 56.5386 60.0024C56.5386 59.8225 56.5319 59.6425 56.5192 59.4647C56.5012 59.2143 56.554 58.9639 56.6711 58.7449C56.7881 58.526 56.9641 58.3482 57.1769 58.234L57.75 57.9274V56.502Z" fill="white"/>
</g>
<defs>
<clipPath id="clip0_108_276">
<rect width="100" height="120" fill="white"/>
</clipPath>
</defs>
</svg>
