<svg viewBox="0 0 32 32" xmlns="http://www.w3.org/2000/svg">
<path d="M21.3302 16.0003C21.3308 15.6888 21.2223 15.3868 21.0235 15.147L14.3568 7.14695C14.1305 6.87466 13.8053 6.70343 13.4527 6.67093C13.1002 6.63842 12.7491 6.7473 12.4768 6.97362C12.2046 7.19994 12.0333 7.52515 12.0008 7.87772C11.9683 8.23029 12.0772 8.58133 12.3035 8.85362L18.2768 16.0003L12.5168 23.147C12.4061 23.2833 12.3234 23.4403 12.2735 23.6087C12.2236 23.7772 12.2074 23.9538 12.226 24.1285C12.2446 24.3032 12.2975 24.4725 12.3818 24.6267C12.466 24.7809 12.5799 24.9169 12.7168 25.027C12.8539 25.1491 13.0148 25.2415 13.1893 25.2986C13.3638 25.3557 13.5482 25.3761 13.7309 25.3585C13.9137 25.341 14.0908 25.2859 14.2513 25.1968C14.4118 25.1076 14.5521 24.9862 14.6635 24.8403L21.1035 16.8403C21.2709 16.5935 21.3507 16.2978 21.3302 16.0003Z" />
</svg>
