<svg width="24" height="24" viewBox="0 0 24 24" fill="none" xmlns="http://www.w3.org/2000/svg">
<path d="M16 12.0002C16.0005 12.2339 15.9191 12.4603 15.77 12.6402L10.77 18.6402C10.6003 18.8444 10.3564 18.9729 10.0919 18.9972C9.8275 19.0216 9.56422 18.94 9.36 18.7702C9.15578 18.6005 9.02736 18.3566 9.00298 18.0921C8.9786 17.8277 9.06026 17.5644 9.23 17.3602L13.71 12.0002L9.39 6.64021C9.30693 6.53792 9.2449 6.42023 9.20747 6.29389C9.17004 6.16755 9.15795 6.03506 9.17188 5.90403C9.18582 5.773 9.22552 5.64602 9.28869 5.53038C9.35187 5.41475 9.43727 5.31273 9.54 5.23021C9.64282 5.13863 9.76345 5.06927 9.89432 5.02648C10.0252 4.98369 10.1635 4.96839 10.3006 4.98153C10.4376 4.99467 10.5705 5.03598 10.6909 5.10286C10.8112 5.16974 10.9165 5.26076 11 5.37021L15.83 11.3702C15.9555 11.5553 16.0154 11.7771 16 12.0002V12.0002Z" fill="#93989A"/>
</svg>
