<svg width="33" height="33" viewBox="0 0 33 33" fill="none" xmlns="http://www.w3.org/2000/svg">
<path d="M15.3616 3.88186C16.0465 3.40772 16.9535 3.40772 17.6384 3.88186L19.9662 5.49337C20.2489 5.68909 20.5773 5.80861 20.9197 5.84041L23.7387 6.10219C24.5681 6.17921 25.263 6.76225 25.4829 7.56569L26.2302 10.2965C26.3209 10.6281 26.4957 10.9308 26.7375 11.1752L28.7288 13.1878C29.3146 13.7799 29.4721 14.6732 29.1241 15.43L27.9413 18.0023C27.7977 18.3147 27.737 18.6588 27.7651 19.0015L27.9968 21.8232C28.065 22.6534 27.6115 23.4389 26.8584 23.795L24.2989 25.0051C23.9881 25.1521 23.7204 25.3767 23.5216 25.6573L21.8854 27.9678C21.404 28.6476 20.5517 28.9578 19.7459 28.7465L17.0073 28.0284C16.6747 27.9411 16.3253 27.9411 15.9927 28.0284L13.2541 28.7465C12.4483 28.9578 11.596 28.6476 11.1146 27.9678L9.47835 25.6573C9.27963 25.3767 9.01193 25.1521 8.70108 25.0051L6.14157 23.795C5.38851 23.4389 4.93499 22.6534 5.00317 21.8232L5.23488 19.0015C5.26302 18.6588 5.20234 18.3147 5.05869 18.0023L3.87587 15.43C3.52787 14.6732 3.68537 13.7799 4.27124 13.1878L6.26248 11.1752C6.50432 10.9308 6.67905 10.6281 6.76982 10.2965L7.51715 7.56569C7.73703 6.76225 8.43186 6.17921 9.26128 6.10219L12.0803 5.84041C12.4227 5.80861 12.7511 5.68909 13.0338 5.49337L15.3616 3.88186Z" fill="#3F4255"/>
<path d="M20.3672 12.6328L12.6328 20.3672" stroke="#93989A" stroke-width="1.5" stroke-linecap="round" stroke-linejoin="round"/>
<path d="M20.3672 20.3672L12.6328 12.6328" stroke="#93989A" stroke-width="1.5" stroke-linecap="round" stroke-linejoin="round"/>
</svg>
