<svg width="550" height="610" viewBox="0 0 550 610" fill="none" xmlns="http://www.w3.org/2000/svg">
<rect width="550" height="610" rx="15" fill="url(#paint0_linear_1_1014)"/>
<rect x="60" y="176" width="430" height="258" rx="15" fill="#1D1F2B"/>
<rect x="208" y="280" width="252" height="44" rx="5" fill="#2B2E41"/>
<path d="M427.519 297.11L430.095 296.2H431.775V306H429.843V298.244L427.995 298.762L427.519 297.11ZM437.997 302.416L440.559 306H438.473L436.961 303.872L435.435 306H433.349L435.911 302.43L433.461 299H435.547L436.961 300.974L438.375 299H440.447L437.997 302.416Z" fill="white"/>
<rect x="228" y="299" width="180" height="6" rx="3" fill="#3F4255"/>
<rect x="228" y="299" width="91" height="6" rx="3" fill="#CBD2D9"/>
<rect x="228" y="299" width="91" height="6" rx="3" fill="url(#paint1_linear_1_1014)"/>
<rect x="228" y="299" width="91" height="6" rx="3" fill="url(#paint2_linear_1_1014)"/>
<rect x="311" y="295" width="14.0833" height="14" rx="7" fill="white"/>
<rect x="90" y="206" width="124" height="44" rx="5" fill="#2B2E41"/>
<rect x="118" y="225" width="68" height="6" rx="3" fill="white"/>
<rect x="90" y="344" width="370" height="60" rx="5" fill="url(#paint3_linear_1_1014)"/>
<path d="M275 364.454V383.546" stroke="white" stroke-width="2" stroke-linecap="round" stroke-linejoin="round"/>
<path d="M284.546 374H265.454" stroke="white" stroke-width="2" stroke-linecap="round" stroke-linejoin="round"/>
<rect x="362" y="206" width="44" height="44" rx="5" fill="#2B2E41"/>
<g clip-path="url(#clip0_1_1014)">
<path d="M390 220H389V219C389 218.735 388.895 218.48 388.707 218.293C388.52 218.105 388.265 218 388 218C387.735 218 387.48 218.105 387.293 218.293C387.105 218.48 387 218.735 387 219V220H381V219C381 218.735 380.895 218.48 380.707 218.293C380.52 218.105 380.265 218 380 218C379.735 218 379.48 218.105 379.293 218.293C379.105 218.48 379 218.735 379 219V220H378C377.204 220 376.441 220.316 375.879 220.879C375.316 221.441 375 222.204 375 223V235C375 235.796 375.316 236.559 375.879 237.121C376.441 237.684 377.204 238 378 238H390C390.796 238 391.559 237.684 392.121 237.121C392.684 236.559 393 235.796 393 235V223C393 222.204 392.684 221.441 392.121 220.879C391.559 220.316 390.796 220 390 220ZM380 233C379.802 233 379.609 232.941 379.444 232.831C379.28 232.722 379.152 232.565 379.076 232.383C379 232.2 378.981 231.999 379.019 231.805C379.058 231.611 379.153 231.433 379.293 231.293C379.433 231.153 379.611 231.058 379.805 231.019C379.999 230.981 380.2 231 380.383 231.076C380.565 231.152 380.722 231.28 380.831 231.444C380.941 231.609 381 231.802 381 232C381 232.265 380.895 232.52 380.707 232.707C380.52 232.895 380.265 233 380 233ZM388 233H384C383.735 233 383.48 232.895 383.293 232.707C383.105 232.52 383 232.265 383 232C383 231.735 383.105 231.48 383.293 231.293C383.48 231.105 383.735 231 384 231H388C388.265 231 388.52 231.105 388.707 231.293C388.895 231.48 389 231.735 389 232C389 232.265 388.895 232.52 388.707 232.707C388.52 232.895 388.265 233 388 233ZM391 227H377V223C377 222.735 377.105 222.48 377.293 222.293C377.48 222.105 377.735 222 378 222H379V223C379 223.265 379.105 223.52 379.293 223.707C379.48 223.895 379.735 224 380 224C380.265 224 380.52 223.895 380.707 223.707C380.895 223.52 381 223.265 381 223V222H387V223C387 223.265 387.105 223.52 387.293 223.707C387.48 223.895 387.735 224 388 224C388.265 224 388.52 223.895 388.707 223.707C388.895 223.52 389 223.265 389 223V222H390C390.265 222 390.52 222.105 390.707 222.293C390.895 222.48 391 222.735 391 223V227Z" fill="white"/>
</g>
<rect x="90" y="280" width="44" height="44" rx="5" fill="#2B2E41"/>
<path d="M106.5 307.48V296.586C106.5 295.381 107.848 294.668 108.844 295.346L117.015 300.909C117.9 301.512 117.887 302.82 116.99 303.405L108.82 308.736C107.822 309.387 106.5 308.672 106.5 307.48Z" fill="white"/>
<rect x="144" y="280" width="44" height="44" rx="5" fill="#2B2E41"/>
<path d="M158.184 298.414V305.586C158.184 307.056 159.425 307.977 160.415 307.242L162.828 305.449L165.241 303.656L165.614 303.381V300.619L165.241 300.344L162.828 298.551L160.415 296.758C159.425 296.023 158.184 296.944 158.184 298.414Z" fill="white"/>
<path d="M165.614 298.414V305.586C165.614 307.056 166.797 307.977 167.733 307.242L170.041 305.449L172.342 303.656C173.278 302.921 173.278 301.079 172.342 300.344L170.041 298.551L167.733 296.758C166.797 296.023 165.614 296.944 165.614 298.414Z" fill="white"/>
<rect x="416" y="206" width="44" height="44" rx="5" fill="#2B2E41"/>
<path d="M438 219C436.22 219 434.48 219.528 433 220.517C431.52 221.506 430.366 222.911 429.685 224.556C429.004 226.2 428.826 228.01 429.173 229.756C429.52 231.502 430.377 233.105 431.636 234.364C432.895 235.623 434.498 236.48 436.244 236.827C437.99 237.174 439.8 236.996 441.444 236.315C443.089 235.634 444.494 234.48 445.483 233C446.472 231.52 447 229.78 447 228C446.997 225.614 446.048 223.326 444.361 221.639C442.674 219.952 440.386 219.003 438 219ZM442.846 228.692H438C437.909 228.692 437.819 228.674 437.735 228.64C437.651 228.605 437.575 228.554 437.51 228.49C437.446 228.425 437.395 228.349 437.36 228.265C437.326 228.181 437.308 228.091 437.308 228V223.154C437.308 222.97 437.381 222.794 437.51 222.664C437.64 222.534 437.816 222.462 438 222.462C438.184 222.462 438.36 222.534 438.49 222.664C438.619 222.794 438.692 222.97 438.692 223.154V227.308H442.846C443.03 227.308 443.206 227.381 443.336 227.51C443.466 227.64 443.538 227.816 443.538 228C443.538 228.184 443.466 228.36 443.336 228.49C443.206 228.619 443.03 228.692 442.846 228.692Z" fill="white"/>
<defs>
<linearGradient id="paint0_linear_1_1014" x1="550" y1="-1.95734e-05" x2="116.855" y2="839.406" gradientUnits="userSpaceOnUse">
<stop stop-color="#CC42EE"/>
<stop offset="1" stop-color="#6271EB"/>
</linearGradient>
<linearGradient id="paint1_linear_1_1014" x1="319" y1="299" x2="318.649" y2="308.386" gradientUnits="userSpaceOnUse">
<stop stop-color="#42EEA6"/>
<stop offset="1" stop-color="#309CD9"/>
</linearGradient>
<linearGradient id="paint2_linear_1_1014" x1="319" y1="299" x2="318.68" y2="309.445" gradientUnits="userSpaceOnUse">
<stop stop-color="#CC42EE"/>
<stop offset="1" stop-color="#6271EB"/>
</linearGradient>
<linearGradient id="paint3_linear_1_1014" x1="460" y1="344" x2="452.157" y2="447.957" gradientUnits="userSpaceOnUse">
<stop stop-color="#CC42EE"/>
<stop offset="1" stop-color="#6271EB"/>
</linearGradient>
<clipPath id="clip0_1_1014">
<rect width="24" height="24" fill="white" transform="translate(372 216)"/>
</clipPath>
</defs>
</svg>
