<svg viewBox="0 0 59 50" fill="none" xmlns="http://www.w3.org/2000/svg">
<path d="M11.3731 6.29121L7.45374 5V33.7755C9.02147 33.96 22.3472 41.1538 22.3472 41.1538C21.9553 40.416 12.3529 32.6688 11.3731 32.1154V6.29121Z" fill="#242634"/>
<path d="M11.3731 6.29121L7.45374 5V33.7755C9.02147 33.96 22.3472 41.1538 22.3472 41.1538C21.9553 40.416 12.3529 32.6688 11.3731 32.1154V6.29121Z" fill="url(#paint0_linear_632_1017)"/>
<path d="M4.90618 12.8845L1.96667 12.1152V38.0768C7.25778 38.4614 24.8948 45.9614 24.8948 45.9614C24.1109 44.8075 12.3529 37.6922 5.10214 35.3845L4.90618 12.8845Z" fill="#403D57"/>
<path d="M47.4309 6.29121L51.3503 5V33.7755C49.7825 33.96 36.4568 41.1538 36.4568 41.1538C36.8487 40.416 46.4511 32.6688 47.4309 32.1154V6.29121Z" fill="#242634"/>
<path d="M47.4309 6.29121L51.3503 5V33.7755C49.7825 33.96 36.4568 41.1538 36.4568 41.1538C36.8487 40.416 46.4511 32.6688 47.4309 32.1154V6.29121Z" fill="url(#paint1_linear_632_1017)"/>
<path d="M54.0938 12.8845L57.0333 12.1152V38.0768C51.7422 38.4614 34.1052 45.9614 34.1052 45.9614C34.8891 44.8075 46.6471 37.6922 53.8979 35.3845L54.0938 12.8845Z" fill="#403D57"/>
<path d="M13.7247 31.0814V2.30762C13.7247 2.30762 24.19 4.23083 29.4021 17.8845C34.81 4.23069 45.0794 2.30762 45.0794 2.30762V31.0814C45.0794 31.0814 30.09 41.923 29.4021 47.8845C28.1234 41.923 13.7247 31.0814 13.7247 31.0814Z" fill="white"/>
<path d="M21.5633 26.3035C21.5633 28.3618 22.317 30.0726 23.8245 31.436C25.3176 32.7863 27.1767 33.4614 29.402 33.4614C31.6416 33.4614 33.5008 32.7863 34.9795 31.436C36.4869 30.0726 37.2407 28.3618 37.2407 26.3035C37.2407 25.0581 36.9176 23.911 36.2716 22.8622C35.8598 22.17 35.3504 21.578 34.7433 21.0863C34.1876 20.6362 33.3902 20.8526 33.0068 21.4563C32.5754 22.1357 32.857 23.0276 33.3833 23.6365C33.5278 23.8037 33.6579 23.9848 33.7736 24.1798C34.1612 24.809 34.355 25.5169 34.355 26.3035C34.355 27.6407 33.8956 28.7223 32.9768 29.5482C32.0436 30.361 30.852 30.7674 29.402 30.7674C27.9663 30.7674 26.7819 30.361 25.8487 29.5482C24.9299 28.7223 24.4705 27.6407 24.4705 26.3035C24.4705 25.517 24.6572 24.809 25.0304 24.1798C25.1474 23.9858 25.2769 23.8063 25.4187 23.641C25.9435 23.0298 26.2263 22.1322 25.7945 21.4522C25.4127 20.8508 24.6188 20.6356 24.0635 21.0819C23.4508 21.5745 22.9333 22.1679 22.5109 22.8622C21.8792 23.911 21.5633 25.0581 21.5633 26.3035Z" fill="#242634"/>
<defs>
<linearGradient id="paint0_linear_632_1017" x1="22.3472" y1="5" x2="-8.91971" y2="32.6842" gradientUnits="userSpaceOnUse">
<stop stop-color="#42E4EE"/>
<stop offset="1" stop-color="#6271EB"/>
</linearGradient>
<linearGradient id="paint1_linear_632_1017" x1="36.4568" y1="5" x2="67.7237" y2="32.6842" gradientUnits="userSpaceOnUse">
<stop stop-color="#42E4EE"/>
<stop offset="1" stop-color="#6271EB"/>
</linearGradient>
</defs>
</svg>
