<svg width="48" height="48" viewBox="0 0 48 48" fill="none" xmlns="http://www.w3.org/2000/svg">
<path d="M0 24C0 10.7452 10.7452 0 24 0C37.2548 0 48 10.7452 48 24C48 37.2548 37.2548 48 24 48C10.7452 48 0 37.2548 0 24Z" fill="#7289DA"/>
<mask id="mask0_261_3545" style="mask-type:luminance" maskUnits="userSpaceOnUse" x="0" y="0" width="48" height="48">
<path fill-rule="evenodd" clip-rule="evenodd" d="M0 24C0 10.7452 10.7452 0 24 0C37.2548 0 48 10.7452 48 24C48 37.2548 37.2548 48 24 48C10.7452 48 0 37.2548 0 24Z" fill="white"/>
</mask>
<g mask="url(#mask0_261_3545)">
</g>
<g clip-path="url(#clip0_261_3545)">
<path d="M32.8716 15.675C31.0977 14.8812 29.225 14.3181 27.3013 14C27.0381 14.4599 26.7999 14.9331 26.5878 15.4176C24.5387 15.1158 22.4549 15.1158 20.4058 15.4176C20.1936 14.9332 19.9554 14.46 19.6923 14C17.7674 14.3208 15.8934 14.8852 14.1177 15.6791C10.5925 20.7767 9.63684 25.7476 10.1147 30.648C12.1791 32.1388 14.4899 33.2725 16.9464 34C17.4996 33.2729 17.989 32.5015 18.4096 31.6941C17.6108 31.4025 16.8397 31.0427 16.1055 30.6189C16.2987 30.4819 16.4877 30.3408 16.6703 30.2038C18.8069 31.1859 21.1389 31.695 23.5 31.695C25.861 31.695 28.193 31.1859 30.3296 30.2038C30.5144 30.3512 30.7034 30.4923 30.8945 30.6189C30.1588 31.0434 29.3864 31.4038 28.5861 31.6961C29.0062 32.5032 29.4957 33.2739 30.0493 34C32.5079 33.2755 34.8205 32.1422 36.8853 30.6501C37.4459 24.9672 35.9275 20.0419 32.8716 15.675ZM19.0148 27.6343C17.6833 27.6343 16.5833 26.4533 16.5833 25.0004C16.5833 23.5475 17.6451 22.3562 19.0106 22.3562C20.3761 22.3562 21.4677 23.5475 21.4443 25.0004C21.4209 26.4533 20.3719 27.6343 19.0148 27.6343ZM27.9851 27.6343C26.6515 27.6343 25.5557 26.4533 25.5557 25.0004C25.5557 23.5475 26.6175 22.3562 27.9851 22.3562C29.3527 22.3562 30.4358 23.5475 30.4124 25.0004C30.3891 26.4533 29.3421 27.6343 27.9851 27.6343Z" fill="white"/>
</g>
<defs>
<clipPath id="clip0_261_3545">
<rect width="27" height="20" fill="white" transform="translate(10 14)"/>
</clipPath>
</defs>
</svg>
